%
M48
M72
T01C0.0315
T02C0.0320
T03C0.0340
T04C0.0354
T05C0.0400
T06C0.0430
T07C0.1024
T08C0.1181
%
T01
X200945Y82491
X200945Y90365
X210787Y90365
X210787Y82491
T02
X179366Y107774
X171366Y107774
T03
X171366Y123774
X181366Y123774
X180866Y144274
X180866Y164274
X233366Y164274
X233366Y144274
X229866Y124774
X237866Y124774
X237866Y104774
X229866Y104774
X234866Y94774
X234866Y86774
X254866Y86774
X254866Y94774
X176866Y61774
X166866Y70774
X156866Y70774
X156866Y61774
X156866Y90774
X166866Y90774
T04
X190866Y104774
X190866Y114774
X190866Y124774
X190866Y134774
X220866Y134774
X220866Y124774
X220866Y114774
X220866Y104774
X252866Y124774
X246366Y73211
X246366Y65337
X158866Y124774
X198366Y204774
X213366Y204774
T05
X140866Y34774
X150866Y34774
X160866Y34774
X170866Y34774
X240866Y34774
X250866Y34774
X260866Y34774
X270866Y34774
T06
X225866Y154774
X215866Y154774
X198366Y154774
X188366Y154774
T07
X181866Y72774
X229866Y72774
T08
X205748Y220306
M30
