G75*
G70*
%OFA0B0*%
%FSLAX24Y24*%
%IPPOS*%
%LPD*%
%AMOC8*
5,1,8,0,0,1.08239X$1,22.5*
%
%ADD10C,0.0640*%
%ADD11C,0.0740*%
%ADD12R,0.0740X0.0740*%
%ADD13R,0.0640X0.0640*%
%ADD14R,0.0560X0.0560*%
%ADD15C,0.0560*%
%ADD16C,0.0555*%
%ADD17C,0.1615*%
%ADD18C,0.1221*%
%ADD19R,0.0594X0.0594*%
%ADD20C,0.0594*%
D10*
X015687Y007077D03*
X017687Y006177D03*
X016687Y009077D03*
X019087Y010477D03*
X019087Y011477D03*
X019087Y012477D03*
X018137Y012377D03*
X017137Y012377D03*
X019087Y013477D03*
X018087Y014427D03*
X018087Y016427D03*
X023337Y016427D03*
X023337Y014427D03*
X022987Y012477D03*
X023787Y012477D03*
X022087Y012477D03*
X022087Y011477D03*
X022087Y010477D03*
X022987Y010477D03*
X023787Y010477D03*
X023487Y009477D03*
X023487Y008677D03*
X025487Y008677D03*
X025487Y009477D03*
D11*
X022587Y015477D03*
X018837Y015477D03*
D12*
X014087Y003477D03*
X015087Y003477D03*
X016087Y003477D03*
X017087Y003477D03*
X024087Y003477D03*
X025087Y003477D03*
X026087Y003477D03*
X027087Y003477D03*
X021587Y015477D03*
X019837Y015477D03*
D13*
X022087Y013477D03*
X015687Y009077D03*
X016687Y007077D03*
X015687Y006177D03*
D14*
X017937Y010777D03*
D15*
X017137Y010777D03*
D16*
X020094Y009036D03*
X020094Y008249D03*
X021079Y008249D03*
X021079Y009036D03*
D17*
X022987Y007277D03*
X018187Y007277D03*
D18*
X020575Y022031D03*
D19*
X024637Y007321D03*
D20*
X024637Y006534D03*
M02*
