G75*
G70*
%OFA0B0*%
%FSLAX24Y24*%
%IPPOS*%
%LPD*%
%AMOC8*
5,1,8,0,0,1.08239X$1,22.5*
%
%ADD10C,0.0100*%
%ADD11C,0.0010*%
%ADD12C,0.0050*%
%ADD13C,0.0079*%
%ADD14C,0.0157*%
%ADD15C,0.0236*%
%ADD16C,0.0098*%
%ADD17C,0.0170*%
D10*
X013898Y004187D02*
X014039Y004328D01*
X014087Y004376D01*
X014181Y004281D02*
X013992Y004092D01*
X014134Y004045D02*
X013851Y004328D01*
X013945Y004423D02*
X014228Y004140D01*
X014365Y004371D02*
X014365Y004748D01*
X014554Y004559D01*
X014554Y004465D01*
X014459Y004371D01*
X014365Y004371D01*
X014176Y004559D01*
X014176Y004654D01*
X014271Y004748D01*
X014365Y004748D01*
X014851Y004328D02*
X015134Y004045D01*
X015228Y004140D02*
X014945Y004423D01*
X015039Y004328D02*
X015087Y004376D01*
X015039Y004328D02*
X014898Y004187D01*
X014992Y004092D02*
X015181Y004281D01*
X015412Y004324D02*
X015601Y004512D01*
X015506Y004418D02*
X015223Y004701D01*
X015223Y004512D01*
X015851Y004328D02*
X016134Y004045D01*
X016228Y004140D02*
X015945Y004423D01*
X016039Y004328D02*
X016087Y004376D01*
X016039Y004328D02*
X015898Y004187D01*
X015992Y004092D02*
X016181Y004281D01*
X016412Y004324D02*
X016412Y004701D01*
X016365Y004748D01*
X016271Y004748D01*
X016176Y004654D01*
X016176Y004559D01*
X016412Y004324D02*
X016601Y004512D01*
X016851Y004328D02*
X017134Y004045D01*
X017228Y004140D02*
X016945Y004423D01*
X017039Y004328D02*
X017087Y004376D01*
X017039Y004328D02*
X016898Y004187D01*
X016992Y004092D02*
X017181Y004281D01*
X017365Y004371D02*
X017459Y004371D01*
X017554Y004465D01*
X017554Y004559D01*
X017506Y004607D01*
X017412Y004607D01*
X017365Y004559D01*
X017412Y004607D02*
X017412Y004701D01*
X017365Y004748D01*
X017271Y004748D01*
X017176Y004654D01*
X017176Y004559D01*
X023200Y004478D02*
X023483Y004761D01*
X023577Y004666D02*
X023294Y004383D01*
X023436Y004430D02*
X023247Y004619D01*
X023341Y004714D02*
X023483Y004572D01*
X023530Y004525D01*
X023620Y004341D02*
X023808Y004152D01*
X023620Y004058D02*
X023903Y004341D01*
X023620Y004341D01*
X024266Y004662D02*
X024266Y004850D01*
X024313Y004803D02*
X024171Y004945D01*
X024077Y004850D02*
X024360Y005133D01*
X024502Y004992D01*
X024502Y004898D01*
X024407Y004803D01*
X024313Y004803D01*
X024450Y004572D02*
X024450Y004478D01*
X024544Y004383D01*
X024638Y004383D01*
X024686Y004430D01*
X024686Y004525D01*
X024591Y004619D01*
X024591Y004714D01*
X024638Y004761D01*
X024733Y004761D01*
X024827Y004666D01*
X024827Y004572D01*
X025011Y004482D02*
X025200Y004294D01*
X025106Y004388D02*
X024822Y004105D01*
X025403Y004525D02*
X025686Y004808D01*
X025591Y004336D01*
X025874Y004619D01*
X026011Y004482D02*
X026153Y004341D01*
X026153Y004246D01*
X025964Y004058D01*
X025870Y004058D01*
X025728Y004199D01*
X026011Y004482D01*
X026171Y004756D02*
X026360Y004756D01*
X026549Y004945D01*
X026639Y004761D02*
X026450Y004572D01*
X026450Y004478D01*
X026544Y004383D01*
X026639Y004383D01*
X026775Y004246D02*
X026775Y004152D01*
X026870Y004058D01*
X026964Y004058D01*
X026775Y004246D02*
X026964Y004435D01*
X027058Y004435D01*
X027153Y004341D01*
X027153Y004246D01*
X026827Y004572D02*
X026827Y004666D01*
X026733Y004761D01*
X026639Y004761D01*
X026360Y005133D02*
X026171Y004945D01*
X026171Y004756D01*
X025502Y004898D02*
X025502Y004992D01*
X025407Y005086D01*
X025313Y005086D01*
X025124Y004898D01*
X025124Y004803D01*
X025219Y004709D01*
X025313Y004709D01*
X025407Y004803D01*
X025313Y004898D01*
X024176Y005317D02*
X023893Y005034D01*
X023799Y005129D02*
X024082Y005412D01*
X023940Y005365D02*
X024082Y005223D01*
X024129Y005176D01*
X024035Y005082D02*
X023846Y005270D01*
X018787Y013227D02*
X018774Y013240D01*
X018737Y013302D02*
X018737Y013673D01*
X018774Y013735D02*
X018937Y013897D01*
X018775Y013735D02*
X018752Y013710D01*
X018733Y013683D01*
X018717Y013653D01*
X018704Y013622D01*
X018695Y013590D01*
X018689Y013557D01*
X018687Y013523D01*
X018687Y013452D01*
X018689Y013418D01*
X018695Y013385D01*
X018704Y013353D01*
X018717Y013322D01*
X018733Y013292D01*
X018752Y013265D01*
X018775Y013240D01*
X020137Y014977D02*
X020137Y015977D01*
X020098Y016031D01*
X020055Y016082D01*
X020008Y016130D01*
X019958Y016174D01*
X019905Y016214D01*
X019849Y016250D01*
X019791Y016282D01*
X019730Y016310D01*
X019668Y016333D01*
X019603Y016352D01*
X019538Y016365D01*
X019472Y016374D01*
X019406Y016378D01*
X019339Y016377D01*
X019272Y016371D01*
X019207Y016360D01*
X019142Y016344D01*
X019078Y016324D01*
X019017Y016298D01*
X018957Y016269D01*
X018900Y016235D01*
X018845Y016197D01*
X018793Y016155D01*
X018745Y016109D01*
X018700Y016060D01*
X018659Y016007D01*
X018621Y015952D01*
X018588Y015894D01*
X018560Y015834D01*
X018536Y015772D01*
X018516Y015708D01*
X018501Y015643D01*
X018492Y015577D01*
X018487Y015510D01*
X018487Y015444D01*
X018492Y015377D01*
X018501Y015311D01*
X018516Y015246D01*
X018536Y015182D01*
X018560Y015120D01*
X018588Y015060D01*
X018621Y015002D01*
X018659Y014947D01*
X018700Y014894D01*
X018745Y014845D01*
X018793Y014799D01*
X018845Y014757D01*
X018900Y014719D01*
X018957Y014685D01*
X019017Y014656D01*
X019078Y014630D01*
X019142Y014610D01*
X019207Y014594D01*
X019272Y014583D01*
X019339Y014577D01*
X019406Y014576D01*
X019472Y014580D01*
X019538Y014589D01*
X019603Y014602D01*
X019668Y014621D01*
X019730Y014644D01*
X019791Y014672D01*
X019849Y014704D01*
X019905Y014740D01*
X019958Y014780D01*
X020008Y014824D01*
X020055Y014872D01*
X020098Y014923D01*
X020137Y014977D01*
X021287Y014977D02*
X021287Y015977D01*
X021326Y016031D01*
X021369Y016082D01*
X021416Y016130D01*
X021466Y016174D01*
X021519Y016214D01*
X021575Y016250D01*
X021633Y016282D01*
X021694Y016310D01*
X021756Y016333D01*
X021821Y016352D01*
X021886Y016365D01*
X021952Y016374D01*
X022018Y016378D01*
X022085Y016377D01*
X022152Y016371D01*
X022217Y016360D01*
X022282Y016344D01*
X022346Y016324D01*
X022407Y016298D01*
X022467Y016269D01*
X022524Y016235D01*
X022579Y016197D01*
X022631Y016155D01*
X022679Y016109D01*
X022724Y016060D01*
X022765Y016007D01*
X022803Y015952D01*
X022836Y015894D01*
X022864Y015834D01*
X022888Y015772D01*
X022908Y015708D01*
X022923Y015643D01*
X022932Y015577D01*
X022937Y015510D01*
X022937Y015444D01*
X022932Y015377D01*
X022923Y015311D01*
X022908Y015246D01*
X022888Y015182D01*
X022864Y015120D01*
X022836Y015060D01*
X022803Y015002D01*
X022765Y014947D01*
X022724Y014894D01*
X022679Y014845D01*
X022631Y014799D01*
X022579Y014757D01*
X022524Y014719D01*
X022467Y014685D01*
X022407Y014656D01*
X022346Y014630D01*
X022282Y014610D01*
X022217Y014594D01*
X022152Y014583D01*
X022085Y014577D01*
X022018Y014576D01*
X021952Y014580D01*
X021886Y014589D01*
X021821Y014602D01*
X021756Y014621D01*
X021694Y014644D01*
X021633Y014672D01*
X021575Y014704D01*
X021519Y014740D01*
X021466Y014780D01*
X021416Y014824D01*
X021369Y014872D01*
X021326Y014923D01*
X021287Y014977D01*
D11*
X021758Y015037D02*
X021805Y015113D01*
X021840Y015094D01*
X021877Y015079D01*
X021915Y015067D01*
X021954Y015059D01*
X021994Y015055D01*
X022034Y015054D01*
X022073Y015058D01*
X022113Y015065D01*
X022151Y015076D01*
X022188Y015091D01*
X022224Y015109D01*
X022257Y015131D01*
X022288Y015156D01*
X022317Y015183D01*
X022343Y015214D01*
X022366Y015246D01*
X022442Y015200D01*
X022443Y015199D01*
X022418Y015163D01*
X022391Y015130D01*
X022360Y015099D01*
X022327Y015071D01*
X022292Y015046D01*
X022255Y015024D01*
X022216Y015005D01*
X022175Y014990D01*
X022134Y014978D01*
X022091Y014969D01*
X022048Y014965D01*
X022005Y014964D01*
X021961Y014967D01*
X021919Y014974D01*
X021876Y014984D01*
X021835Y014998D01*
X021796Y015015D01*
X021758Y015036D01*
X021762Y015044D01*
X021800Y015023D01*
X021839Y015006D01*
X021879Y014993D01*
X021920Y014983D01*
X021962Y014976D01*
X022005Y014973D01*
X022047Y014974D01*
X022090Y014978D01*
X022131Y014986D01*
X022172Y014998D01*
X022212Y015013D01*
X022250Y015032D01*
X022287Y015053D01*
X022322Y015078D01*
X022354Y015106D01*
X022384Y015136D01*
X022411Y015169D01*
X022435Y015204D01*
X022427Y015209D01*
X022404Y015174D01*
X022377Y015142D01*
X022348Y015112D01*
X022316Y015085D01*
X022282Y015061D01*
X022246Y015040D01*
X022209Y015021D01*
X022170Y015007D01*
X022129Y014995D01*
X022088Y014987D01*
X022047Y014983D01*
X022005Y014982D01*
X021963Y014985D01*
X021922Y014991D01*
X021882Y015001D01*
X021842Y015015D01*
X021804Y015031D01*
X021767Y015051D01*
X021772Y015059D01*
X021810Y015038D01*
X021850Y015021D01*
X021891Y015008D01*
X021933Y014998D01*
X021976Y014993D01*
X022020Y014991D01*
X022063Y014993D01*
X022106Y014999D01*
X022148Y015009D01*
X022189Y015023D01*
X022229Y015041D01*
X022267Y015062D01*
X022303Y015086D01*
X022336Y015114D01*
X022367Y015144D01*
X022395Y015178D01*
X022420Y015213D01*
X022412Y015218D01*
X022388Y015183D01*
X022360Y015151D01*
X022330Y015121D01*
X022297Y015094D01*
X022262Y015070D01*
X022225Y015049D01*
X022186Y015032D01*
X022146Y015018D01*
X022104Y015008D01*
X022062Y015002D01*
X022020Y015000D01*
X021977Y015002D01*
X021935Y015007D01*
X021894Y015017D01*
X021853Y015030D01*
X021814Y015046D01*
X021777Y015067D01*
X021781Y015074D01*
X021818Y015055D01*
X021856Y015038D01*
X021896Y015025D01*
X021937Y015016D01*
X021978Y015011D01*
X022020Y015009D01*
X022061Y015011D01*
X022103Y015017D01*
X022143Y015027D01*
X022183Y015040D01*
X022221Y015057D01*
X022257Y015077D01*
X022292Y015101D01*
X022324Y015127D01*
X022354Y015157D01*
X022381Y015188D01*
X022404Y015223D01*
X022397Y015227D01*
X022373Y015194D01*
X022347Y015163D01*
X022318Y015134D01*
X022286Y015108D01*
X022253Y015085D01*
X022217Y015065D01*
X022180Y015048D01*
X022141Y015035D01*
X022101Y015026D01*
X022061Y015020D01*
X022020Y015018D01*
X021979Y015020D01*
X021938Y015025D01*
X021898Y015034D01*
X021860Y015047D01*
X021822Y015063D01*
X021786Y015082D01*
X021791Y015090D01*
X021826Y015071D01*
X021863Y015055D01*
X021901Y015043D01*
X021940Y015034D01*
X021980Y015029D01*
X022020Y015027D01*
X022060Y015029D01*
X022099Y015035D01*
X022138Y015044D01*
X022176Y015057D01*
X022213Y015073D01*
X022248Y015092D01*
X022281Y015115D01*
X022312Y015140D01*
X022340Y015169D01*
X022366Y015199D01*
X022389Y015232D01*
X022381Y015237D01*
X022359Y015205D01*
X022334Y015175D01*
X022306Y015147D01*
X022276Y015122D01*
X022243Y015100D01*
X022209Y015081D01*
X022173Y015065D01*
X022136Y015053D01*
X022098Y015044D01*
X022059Y015038D01*
X022020Y015036D01*
X021980Y015038D01*
X021942Y015043D01*
X021903Y015051D01*
X021866Y015063D01*
X021830Y015079D01*
X021795Y015097D01*
X021800Y015105D01*
X021836Y015086D01*
X021874Y015070D01*
X021913Y015058D01*
X021953Y015050D01*
X021993Y015046D01*
X022034Y015045D01*
X022075Y015049D01*
X022115Y015056D01*
X022154Y015068D01*
X022192Y015083D01*
X022228Y015102D01*
X022262Y015124D01*
X022294Y015149D01*
X022324Y015177D01*
X022350Y015208D01*
X022374Y015242D01*
X022297Y016120D02*
X022265Y016036D01*
X022265Y016037D02*
X022220Y016052D01*
X022174Y016063D01*
X022127Y016071D01*
X022079Y016075D01*
X022031Y016075D01*
X021984Y016071D01*
X021937Y016063D01*
X021890Y016052D01*
X021845Y016037D01*
X021801Y016018D01*
X021759Y015996D01*
X021718Y015971D01*
X021680Y015943D01*
X021644Y015911D01*
X021611Y015877D01*
X021580Y015841D01*
X021553Y015801D01*
X021528Y015760D01*
X021449Y015802D01*
X021475Y015847D01*
X021505Y015890D01*
X021538Y015931D01*
X021573Y015968D01*
X021612Y016003D01*
X021653Y016035D01*
X021697Y016064D01*
X021742Y016090D01*
X021789Y016112D01*
X021838Y016130D01*
X021888Y016144D01*
X021939Y016155D01*
X021991Y016162D01*
X022043Y016165D01*
X022095Y016164D01*
X022147Y016159D01*
X022198Y016150D01*
X022248Y016137D01*
X022298Y016121D01*
X022295Y016112D01*
X022246Y016129D01*
X022196Y016141D01*
X022145Y016150D01*
X022094Y016155D01*
X022043Y016156D01*
X021991Y016153D01*
X021940Y016146D01*
X021890Y016136D01*
X021841Y016121D01*
X021793Y016103D01*
X021746Y016082D01*
X021701Y016057D01*
X021658Y016028D01*
X021618Y015997D01*
X021580Y015962D01*
X021544Y015925D01*
X021512Y015885D01*
X021483Y015843D01*
X021457Y015798D01*
X021465Y015794D01*
X021490Y015838D01*
X021519Y015879D01*
X021551Y015919D01*
X021586Y015956D01*
X021624Y015990D01*
X021664Y016021D01*
X021706Y016049D01*
X021750Y016074D01*
X021796Y016095D01*
X021844Y016113D01*
X021892Y016127D01*
X021942Y016137D01*
X021992Y016144D01*
X022043Y016147D01*
X022094Y016146D01*
X022144Y016141D01*
X022194Y016132D01*
X022243Y016120D01*
X022291Y016104D01*
X022288Y016096D01*
X022241Y016111D01*
X022192Y016124D01*
X022143Y016132D01*
X022093Y016137D01*
X022043Y016138D01*
X021993Y016135D01*
X021943Y016129D01*
X021895Y016118D01*
X021846Y016104D01*
X021800Y016087D01*
X021754Y016066D01*
X021711Y016041D01*
X021669Y016014D01*
X021629Y015983D01*
X021592Y015949D01*
X021558Y015913D01*
X021527Y015874D01*
X021498Y015833D01*
X021473Y015790D01*
X021481Y015786D01*
X021506Y015828D01*
X021534Y015869D01*
X021565Y015907D01*
X021599Y015943D01*
X021635Y015976D01*
X021674Y016006D01*
X021715Y016034D01*
X021758Y016058D01*
X021803Y016078D01*
X021849Y016096D01*
X021897Y016109D01*
X021945Y016120D01*
X021994Y016126D01*
X022043Y016129D01*
X022092Y016128D01*
X022142Y016123D01*
X022190Y016115D01*
X022238Y016103D01*
X022285Y016087D01*
X022282Y016079D01*
X022235Y016094D01*
X022188Y016106D01*
X022140Y016114D01*
X022092Y016119D01*
X022043Y016120D01*
X021995Y016117D01*
X021946Y016111D01*
X021899Y016101D01*
X021852Y016087D01*
X021807Y016070D01*
X021762Y016050D01*
X021720Y016026D01*
X021680Y015999D01*
X021641Y015969D01*
X021605Y015936D01*
X021572Y015901D01*
X021541Y015863D01*
X021513Y015823D01*
X021489Y015781D01*
X021497Y015777D01*
X021521Y015819D01*
X021548Y015858D01*
X021578Y015895D01*
X021611Y015930D01*
X021647Y015962D01*
X021685Y015992D01*
X021725Y016018D01*
X021767Y016042D01*
X021810Y016062D01*
X021855Y016079D01*
X021901Y016092D01*
X021948Y016102D01*
X021996Y016108D01*
X022043Y016111D01*
X022091Y016110D01*
X022139Y016105D01*
X022186Y016097D01*
X022233Y016086D01*
X022278Y016070D01*
X022275Y016062D01*
X022228Y016078D01*
X022179Y016090D01*
X022130Y016097D01*
X022080Y016101D01*
X022030Y016102D01*
X021981Y016098D01*
X021931Y016090D01*
X021883Y016078D01*
X021836Y016062D01*
X021790Y016043D01*
X021745Y016020D01*
X021703Y015993D01*
X021663Y015964D01*
X021625Y015931D01*
X021590Y015895D01*
X021559Y015857D01*
X021530Y015816D01*
X021505Y015773D01*
X021513Y015769D01*
X021538Y015811D01*
X021566Y015851D01*
X021597Y015889D01*
X021632Y015924D01*
X021669Y015957D01*
X021708Y015986D01*
X021750Y016012D01*
X021793Y016035D01*
X021839Y016054D01*
X021885Y016069D01*
X021933Y016081D01*
X021982Y016089D01*
X022031Y016093D01*
X022080Y016092D01*
X022129Y016089D01*
X022177Y016081D01*
X022225Y016069D01*
X022272Y016054D01*
X022269Y016045D01*
X022223Y016060D01*
X022176Y016072D01*
X022128Y016080D01*
X022079Y016084D01*
X022031Y016084D01*
X021983Y016080D01*
X021935Y016072D01*
X021888Y016061D01*
X021842Y016045D01*
X021797Y016027D01*
X021754Y016004D01*
X021713Y015979D01*
X021674Y015950D01*
X021638Y015918D01*
X021604Y015883D01*
X021573Y015846D01*
X021545Y015806D01*
X021520Y015765D01*
X021776Y014834D02*
X021808Y014918D01*
X021808Y014917D02*
X021853Y014902D01*
X021899Y014891D01*
X021946Y014883D01*
X021994Y014879D01*
X022042Y014879D01*
X022089Y014883D01*
X022136Y014891D01*
X022183Y014902D01*
X022228Y014917D01*
X022272Y014936D01*
X022314Y014958D01*
X022355Y014983D01*
X022393Y015011D01*
X022429Y015043D01*
X022462Y015077D01*
X022493Y015113D01*
X022520Y015153D01*
X022545Y015194D01*
X022624Y015152D01*
X022598Y015107D01*
X022568Y015064D01*
X022535Y015023D01*
X022500Y014986D01*
X022461Y014951D01*
X022420Y014919D01*
X022376Y014890D01*
X022331Y014864D01*
X022284Y014842D01*
X022235Y014824D01*
X022185Y014810D01*
X022134Y014799D01*
X022082Y014792D01*
X022030Y014789D01*
X021978Y014790D01*
X021926Y014795D01*
X021875Y014804D01*
X021825Y014817D01*
X021775Y014833D01*
X021778Y014842D01*
X021827Y014825D01*
X021877Y014813D01*
X021928Y014804D01*
X021979Y014799D01*
X022030Y014798D01*
X022082Y014801D01*
X022133Y014808D01*
X022183Y014818D01*
X022232Y014833D01*
X022280Y014851D01*
X022327Y014872D01*
X022372Y014897D01*
X022415Y014926D01*
X022455Y014957D01*
X022493Y014992D01*
X022529Y015029D01*
X022561Y015069D01*
X022590Y015111D01*
X022616Y015156D01*
X022608Y015160D01*
X022583Y015116D01*
X022554Y015075D01*
X022522Y015035D01*
X022487Y014998D01*
X022449Y014964D01*
X022409Y014933D01*
X022367Y014905D01*
X022323Y014880D01*
X022277Y014859D01*
X022229Y014841D01*
X022181Y014827D01*
X022131Y014817D01*
X022081Y014810D01*
X022030Y014807D01*
X021979Y014808D01*
X021929Y014813D01*
X021879Y014822D01*
X021830Y014834D01*
X021782Y014850D01*
X021785Y014858D01*
X021832Y014843D01*
X021881Y014830D01*
X021930Y014822D01*
X021980Y014817D01*
X022030Y014816D01*
X022080Y014819D01*
X022130Y014825D01*
X022178Y014836D01*
X022227Y014850D01*
X022273Y014867D01*
X022319Y014888D01*
X022362Y014913D01*
X022404Y014940D01*
X022444Y014971D01*
X022481Y015005D01*
X022515Y015041D01*
X022546Y015080D01*
X022575Y015121D01*
X022600Y015164D01*
X022592Y015168D01*
X022567Y015126D01*
X022539Y015085D01*
X022508Y015047D01*
X022474Y015011D01*
X022438Y014978D01*
X022399Y014948D01*
X022358Y014920D01*
X022315Y014896D01*
X022270Y014876D01*
X022224Y014858D01*
X022176Y014845D01*
X022128Y014834D01*
X022079Y014828D01*
X022030Y014825D01*
X021981Y014826D01*
X021931Y014831D01*
X021883Y014839D01*
X021835Y014851D01*
X021788Y014867D01*
X021791Y014875D01*
X021838Y014860D01*
X021885Y014848D01*
X021933Y014840D01*
X021981Y014835D01*
X022030Y014834D01*
X022078Y014837D01*
X022127Y014843D01*
X022174Y014853D01*
X022221Y014867D01*
X022266Y014884D01*
X022311Y014904D01*
X022353Y014928D01*
X022393Y014955D01*
X022432Y014985D01*
X022468Y015018D01*
X022501Y015053D01*
X022532Y015091D01*
X022560Y015131D01*
X022584Y015173D01*
X022576Y015177D01*
X022552Y015135D01*
X022525Y015096D01*
X022495Y015059D01*
X022462Y015024D01*
X022426Y014992D01*
X022388Y014962D01*
X022348Y014936D01*
X022306Y014912D01*
X022263Y014892D01*
X022218Y014875D01*
X022172Y014862D01*
X022125Y014852D01*
X022077Y014846D01*
X022030Y014843D01*
X021982Y014844D01*
X021934Y014849D01*
X021887Y014857D01*
X021840Y014868D01*
X021795Y014884D01*
X021798Y014892D01*
X021845Y014876D01*
X021894Y014864D01*
X021943Y014857D01*
X021993Y014853D01*
X022043Y014852D01*
X022092Y014856D01*
X022142Y014864D01*
X022190Y014876D01*
X022237Y014892D01*
X022283Y014911D01*
X022328Y014934D01*
X022370Y014961D01*
X022410Y014990D01*
X022448Y015023D01*
X022483Y015059D01*
X022514Y015097D01*
X022543Y015138D01*
X022568Y015181D01*
X022560Y015185D01*
X022535Y015143D01*
X022507Y015103D01*
X022476Y015065D01*
X022441Y015030D01*
X022404Y014997D01*
X022365Y014968D01*
X022323Y014942D01*
X022280Y014919D01*
X022234Y014900D01*
X022188Y014885D01*
X022140Y014873D01*
X022091Y014865D01*
X022042Y014861D01*
X021993Y014862D01*
X021944Y014865D01*
X021896Y014873D01*
X021848Y014885D01*
X021801Y014900D01*
X021804Y014909D01*
X021850Y014894D01*
X021897Y014882D01*
X021945Y014874D01*
X021994Y014870D01*
X022042Y014870D01*
X022090Y014874D01*
X022138Y014882D01*
X022185Y014893D01*
X022231Y014909D01*
X022276Y014927D01*
X022319Y014950D01*
X022360Y014975D01*
X022399Y015004D01*
X022435Y015036D01*
X022469Y015071D01*
X022500Y015108D01*
X022528Y015148D01*
X022553Y015189D01*
X022316Y015917D02*
X022269Y015841D01*
X022234Y015860D01*
X022197Y015875D01*
X022159Y015887D01*
X022120Y015895D01*
X022080Y015899D01*
X022040Y015900D01*
X022001Y015896D01*
X021961Y015889D01*
X021923Y015878D01*
X021886Y015863D01*
X021850Y015845D01*
X021817Y015823D01*
X021786Y015798D01*
X021757Y015771D01*
X021731Y015740D01*
X021708Y015708D01*
X021632Y015754D01*
X021631Y015755D01*
X021656Y015791D01*
X021683Y015824D01*
X021714Y015855D01*
X021747Y015883D01*
X021782Y015908D01*
X021819Y015930D01*
X021858Y015949D01*
X021899Y015964D01*
X021940Y015976D01*
X021983Y015985D01*
X022026Y015989D01*
X022069Y015990D01*
X022113Y015987D01*
X022155Y015980D01*
X022198Y015970D01*
X022239Y015956D01*
X022278Y015939D01*
X022316Y015918D01*
X022312Y015910D01*
X022274Y015931D01*
X022235Y015948D01*
X022195Y015961D01*
X022154Y015971D01*
X022112Y015978D01*
X022069Y015981D01*
X022027Y015980D01*
X021984Y015976D01*
X021943Y015968D01*
X021902Y015956D01*
X021862Y015941D01*
X021824Y015922D01*
X021787Y015901D01*
X021752Y015876D01*
X021720Y015848D01*
X021690Y015818D01*
X021663Y015785D01*
X021639Y015750D01*
X021647Y015745D01*
X021670Y015780D01*
X021697Y015812D01*
X021726Y015842D01*
X021758Y015869D01*
X021792Y015893D01*
X021828Y015914D01*
X021865Y015933D01*
X021904Y015947D01*
X021945Y015959D01*
X021986Y015967D01*
X022027Y015971D01*
X022069Y015972D01*
X022111Y015969D01*
X022152Y015963D01*
X022192Y015953D01*
X022232Y015939D01*
X022270Y015923D01*
X022307Y015903D01*
X022302Y015895D01*
X022264Y015916D01*
X022224Y015933D01*
X022183Y015946D01*
X022141Y015956D01*
X022098Y015961D01*
X022054Y015963D01*
X022011Y015961D01*
X021968Y015955D01*
X021926Y015945D01*
X021885Y015931D01*
X021845Y015913D01*
X021807Y015892D01*
X021771Y015868D01*
X021738Y015840D01*
X021707Y015810D01*
X021679Y015776D01*
X021654Y015741D01*
X021662Y015736D01*
X021686Y015771D01*
X021714Y015803D01*
X021744Y015833D01*
X021777Y015860D01*
X021812Y015884D01*
X021849Y015905D01*
X021888Y015922D01*
X021928Y015936D01*
X021970Y015946D01*
X022012Y015952D01*
X022054Y015954D01*
X022097Y015952D01*
X022139Y015947D01*
X022180Y015937D01*
X022221Y015924D01*
X022260Y015908D01*
X022297Y015887D01*
X022293Y015880D01*
X022256Y015899D01*
X022218Y015916D01*
X022178Y015929D01*
X022137Y015938D01*
X022096Y015943D01*
X022054Y015945D01*
X022013Y015943D01*
X021971Y015937D01*
X021931Y015927D01*
X021891Y015914D01*
X021853Y015897D01*
X021817Y015877D01*
X021782Y015853D01*
X021750Y015827D01*
X021720Y015797D01*
X021693Y015766D01*
X021670Y015731D01*
X021677Y015727D01*
X021701Y015760D01*
X021727Y015791D01*
X021756Y015820D01*
X021788Y015846D01*
X021821Y015869D01*
X021857Y015889D01*
X021894Y015906D01*
X021933Y015919D01*
X021973Y015928D01*
X022013Y015934D01*
X022054Y015936D01*
X022095Y015934D01*
X022136Y015929D01*
X022176Y015920D01*
X022214Y015907D01*
X022252Y015891D01*
X022288Y015872D01*
X022283Y015864D01*
X022248Y015883D01*
X022211Y015899D01*
X022173Y015911D01*
X022134Y015920D01*
X022094Y015925D01*
X022054Y015927D01*
X022014Y015925D01*
X021975Y015919D01*
X021936Y015910D01*
X021898Y015897D01*
X021861Y015881D01*
X021826Y015862D01*
X021793Y015839D01*
X021762Y015814D01*
X021734Y015785D01*
X021708Y015755D01*
X021685Y015722D01*
X021693Y015717D01*
X021715Y015749D01*
X021740Y015779D01*
X021768Y015807D01*
X021798Y015832D01*
X021831Y015854D01*
X021865Y015873D01*
X021901Y015889D01*
X021938Y015901D01*
X021976Y015910D01*
X022015Y015916D01*
X022054Y015918D01*
X022094Y015916D01*
X022132Y015911D01*
X022171Y015903D01*
X022208Y015891D01*
X022244Y015875D01*
X022279Y015857D01*
X022274Y015849D01*
X022238Y015868D01*
X022200Y015884D01*
X022161Y015896D01*
X022121Y015904D01*
X022081Y015908D01*
X022040Y015909D01*
X021999Y015905D01*
X021959Y015898D01*
X021920Y015886D01*
X021882Y015871D01*
X021846Y015852D01*
X021812Y015830D01*
X021780Y015805D01*
X021750Y015777D01*
X021724Y015746D01*
X021700Y015712D01*
X019666Y015917D02*
X019619Y015841D01*
X019584Y015860D01*
X019547Y015875D01*
X019509Y015887D01*
X019470Y015895D01*
X019430Y015899D01*
X019390Y015900D01*
X019351Y015896D01*
X019311Y015889D01*
X019273Y015878D01*
X019236Y015863D01*
X019200Y015845D01*
X019167Y015823D01*
X019136Y015798D01*
X019107Y015771D01*
X019081Y015740D01*
X019058Y015708D01*
X018982Y015754D01*
X018981Y015755D01*
X019006Y015791D01*
X019033Y015824D01*
X019064Y015855D01*
X019097Y015883D01*
X019132Y015908D01*
X019169Y015930D01*
X019208Y015949D01*
X019249Y015964D01*
X019290Y015976D01*
X019333Y015985D01*
X019376Y015989D01*
X019419Y015990D01*
X019463Y015987D01*
X019505Y015980D01*
X019548Y015970D01*
X019589Y015956D01*
X019628Y015939D01*
X019666Y015918D01*
X019662Y015910D01*
X019624Y015931D01*
X019585Y015948D01*
X019545Y015961D01*
X019504Y015971D01*
X019462Y015978D01*
X019419Y015981D01*
X019377Y015980D01*
X019334Y015976D01*
X019293Y015968D01*
X019252Y015956D01*
X019212Y015941D01*
X019174Y015922D01*
X019137Y015901D01*
X019102Y015876D01*
X019070Y015848D01*
X019040Y015818D01*
X019013Y015785D01*
X018989Y015750D01*
X018997Y015745D01*
X019020Y015780D01*
X019047Y015812D01*
X019076Y015842D01*
X019108Y015869D01*
X019142Y015893D01*
X019178Y015914D01*
X019215Y015933D01*
X019254Y015947D01*
X019295Y015959D01*
X019336Y015967D01*
X019377Y015971D01*
X019419Y015972D01*
X019461Y015969D01*
X019502Y015963D01*
X019542Y015953D01*
X019582Y015939D01*
X019620Y015923D01*
X019657Y015903D01*
X019652Y015895D01*
X019614Y015916D01*
X019574Y015933D01*
X019533Y015946D01*
X019491Y015956D01*
X019448Y015961D01*
X019404Y015963D01*
X019361Y015961D01*
X019318Y015955D01*
X019276Y015945D01*
X019235Y015931D01*
X019195Y015913D01*
X019157Y015892D01*
X019121Y015868D01*
X019088Y015840D01*
X019057Y015810D01*
X019029Y015776D01*
X019004Y015741D01*
X019012Y015736D01*
X019036Y015771D01*
X019064Y015803D01*
X019094Y015833D01*
X019127Y015860D01*
X019162Y015884D01*
X019199Y015905D01*
X019238Y015922D01*
X019278Y015936D01*
X019320Y015946D01*
X019362Y015952D01*
X019404Y015954D01*
X019447Y015952D01*
X019489Y015947D01*
X019530Y015937D01*
X019571Y015924D01*
X019610Y015908D01*
X019647Y015887D01*
X019643Y015880D01*
X019606Y015899D01*
X019568Y015916D01*
X019528Y015929D01*
X019487Y015938D01*
X019446Y015943D01*
X019404Y015945D01*
X019363Y015943D01*
X019321Y015937D01*
X019281Y015927D01*
X019241Y015914D01*
X019203Y015897D01*
X019167Y015877D01*
X019132Y015853D01*
X019100Y015827D01*
X019070Y015797D01*
X019043Y015766D01*
X019020Y015731D01*
X019027Y015727D01*
X019051Y015760D01*
X019077Y015791D01*
X019106Y015820D01*
X019138Y015846D01*
X019171Y015869D01*
X019207Y015889D01*
X019244Y015906D01*
X019283Y015919D01*
X019323Y015928D01*
X019363Y015934D01*
X019404Y015936D01*
X019445Y015934D01*
X019486Y015929D01*
X019526Y015920D01*
X019564Y015907D01*
X019602Y015891D01*
X019638Y015872D01*
X019633Y015864D01*
X019598Y015883D01*
X019561Y015899D01*
X019523Y015911D01*
X019484Y015920D01*
X019444Y015925D01*
X019404Y015927D01*
X019364Y015925D01*
X019325Y015919D01*
X019286Y015910D01*
X019248Y015897D01*
X019211Y015881D01*
X019176Y015862D01*
X019143Y015839D01*
X019112Y015814D01*
X019084Y015785D01*
X019058Y015755D01*
X019035Y015722D01*
X019043Y015717D01*
X019065Y015749D01*
X019090Y015779D01*
X019118Y015807D01*
X019148Y015832D01*
X019181Y015854D01*
X019215Y015873D01*
X019251Y015889D01*
X019288Y015901D01*
X019326Y015910D01*
X019365Y015916D01*
X019404Y015918D01*
X019444Y015916D01*
X019482Y015911D01*
X019521Y015903D01*
X019558Y015891D01*
X019594Y015875D01*
X019629Y015857D01*
X019624Y015849D01*
X019588Y015868D01*
X019550Y015884D01*
X019511Y015896D01*
X019471Y015904D01*
X019431Y015908D01*
X019390Y015909D01*
X019349Y015905D01*
X019309Y015898D01*
X019270Y015886D01*
X019232Y015871D01*
X019196Y015852D01*
X019162Y015830D01*
X019130Y015805D01*
X019100Y015777D01*
X019074Y015746D01*
X019050Y015712D01*
X019126Y014834D02*
X019158Y014918D01*
X019158Y014917D02*
X019203Y014902D01*
X019249Y014891D01*
X019296Y014883D01*
X019344Y014879D01*
X019392Y014879D01*
X019439Y014883D01*
X019486Y014891D01*
X019533Y014902D01*
X019578Y014917D01*
X019622Y014936D01*
X019664Y014958D01*
X019705Y014983D01*
X019743Y015011D01*
X019779Y015043D01*
X019812Y015077D01*
X019843Y015113D01*
X019870Y015153D01*
X019895Y015194D01*
X019974Y015152D01*
X019948Y015107D01*
X019918Y015064D01*
X019885Y015023D01*
X019850Y014986D01*
X019811Y014951D01*
X019770Y014919D01*
X019726Y014890D01*
X019681Y014864D01*
X019634Y014842D01*
X019585Y014824D01*
X019535Y014810D01*
X019484Y014799D01*
X019432Y014792D01*
X019380Y014789D01*
X019328Y014790D01*
X019276Y014795D01*
X019225Y014804D01*
X019175Y014817D01*
X019125Y014833D01*
X019128Y014842D01*
X019177Y014825D01*
X019227Y014813D01*
X019278Y014804D01*
X019329Y014799D01*
X019380Y014798D01*
X019432Y014801D01*
X019483Y014808D01*
X019533Y014818D01*
X019582Y014833D01*
X019630Y014851D01*
X019677Y014872D01*
X019722Y014897D01*
X019765Y014926D01*
X019805Y014957D01*
X019843Y014992D01*
X019879Y015029D01*
X019911Y015069D01*
X019940Y015111D01*
X019966Y015156D01*
X019958Y015160D01*
X019933Y015116D01*
X019904Y015075D01*
X019872Y015035D01*
X019837Y014998D01*
X019799Y014964D01*
X019759Y014933D01*
X019717Y014905D01*
X019673Y014880D01*
X019627Y014859D01*
X019579Y014841D01*
X019531Y014827D01*
X019481Y014817D01*
X019431Y014810D01*
X019380Y014807D01*
X019329Y014808D01*
X019279Y014813D01*
X019229Y014822D01*
X019180Y014834D01*
X019132Y014850D01*
X019135Y014858D01*
X019182Y014843D01*
X019231Y014830D01*
X019280Y014822D01*
X019330Y014817D01*
X019380Y014816D01*
X019430Y014819D01*
X019480Y014825D01*
X019528Y014836D01*
X019577Y014850D01*
X019623Y014867D01*
X019669Y014888D01*
X019712Y014913D01*
X019754Y014940D01*
X019794Y014971D01*
X019831Y015005D01*
X019865Y015041D01*
X019896Y015080D01*
X019925Y015121D01*
X019950Y015164D01*
X019942Y015168D01*
X019917Y015126D01*
X019889Y015085D01*
X019858Y015047D01*
X019824Y015011D01*
X019788Y014978D01*
X019749Y014948D01*
X019708Y014920D01*
X019665Y014896D01*
X019620Y014876D01*
X019574Y014858D01*
X019526Y014845D01*
X019478Y014834D01*
X019429Y014828D01*
X019380Y014825D01*
X019331Y014826D01*
X019281Y014831D01*
X019233Y014839D01*
X019185Y014851D01*
X019138Y014867D01*
X019141Y014875D01*
X019188Y014860D01*
X019235Y014848D01*
X019283Y014840D01*
X019331Y014835D01*
X019380Y014834D01*
X019428Y014837D01*
X019477Y014843D01*
X019524Y014853D01*
X019571Y014867D01*
X019616Y014884D01*
X019661Y014904D01*
X019703Y014928D01*
X019743Y014955D01*
X019782Y014985D01*
X019818Y015018D01*
X019851Y015053D01*
X019882Y015091D01*
X019910Y015131D01*
X019934Y015173D01*
X019926Y015177D01*
X019902Y015135D01*
X019875Y015096D01*
X019845Y015059D01*
X019812Y015024D01*
X019776Y014992D01*
X019738Y014962D01*
X019698Y014936D01*
X019656Y014912D01*
X019613Y014892D01*
X019568Y014875D01*
X019522Y014862D01*
X019475Y014852D01*
X019427Y014846D01*
X019380Y014843D01*
X019332Y014844D01*
X019284Y014849D01*
X019237Y014857D01*
X019190Y014868D01*
X019145Y014884D01*
X019148Y014892D01*
X019195Y014876D01*
X019244Y014864D01*
X019293Y014857D01*
X019343Y014853D01*
X019393Y014852D01*
X019442Y014856D01*
X019492Y014864D01*
X019540Y014876D01*
X019587Y014892D01*
X019633Y014911D01*
X019678Y014934D01*
X019720Y014961D01*
X019760Y014990D01*
X019798Y015023D01*
X019833Y015059D01*
X019864Y015097D01*
X019893Y015138D01*
X019918Y015181D01*
X019910Y015185D01*
X019885Y015143D01*
X019857Y015103D01*
X019826Y015065D01*
X019791Y015030D01*
X019754Y014997D01*
X019715Y014968D01*
X019673Y014942D01*
X019630Y014919D01*
X019584Y014900D01*
X019538Y014885D01*
X019490Y014873D01*
X019441Y014865D01*
X019392Y014861D01*
X019343Y014862D01*
X019294Y014865D01*
X019246Y014873D01*
X019198Y014885D01*
X019151Y014900D01*
X019154Y014909D01*
X019200Y014894D01*
X019247Y014882D01*
X019295Y014874D01*
X019344Y014870D01*
X019392Y014870D01*
X019440Y014874D01*
X019488Y014882D01*
X019535Y014893D01*
X019581Y014909D01*
X019626Y014927D01*
X019669Y014950D01*
X019710Y014975D01*
X019749Y015004D01*
X019785Y015036D01*
X019819Y015071D01*
X019850Y015108D01*
X019878Y015148D01*
X019903Y015189D01*
X019647Y016120D02*
X019615Y016036D01*
X019615Y016037D02*
X019570Y016052D01*
X019524Y016063D01*
X019477Y016071D01*
X019429Y016075D01*
X019381Y016075D01*
X019334Y016071D01*
X019287Y016063D01*
X019240Y016052D01*
X019195Y016037D01*
X019151Y016018D01*
X019109Y015996D01*
X019068Y015971D01*
X019030Y015943D01*
X018994Y015911D01*
X018961Y015877D01*
X018930Y015841D01*
X018903Y015801D01*
X018878Y015760D01*
X018799Y015802D01*
X018825Y015847D01*
X018855Y015890D01*
X018888Y015931D01*
X018923Y015968D01*
X018962Y016003D01*
X019003Y016035D01*
X019047Y016064D01*
X019092Y016090D01*
X019139Y016112D01*
X019188Y016130D01*
X019238Y016144D01*
X019289Y016155D01*
X019341Y016162D01*
X019393Y016165D01*
X019445Y016164D01*
X019497Y016159D01*
X019548Y016150D01*
X019598Y016137D01*
X019648Y016121D01*
X019645Y016112D01*
X019596Y016129D01*
X019546Y016141D01*
X019495Y016150D01*
X019444Y016155D01*
X019393Y016156D01*
X019341Y016153D01*
X019290Y016146D01*
X019240Y016136D01*
X019191Y016121D01*
X019143Y016103D01*
X019096Y016082D01*
X019051Y016057D01*
X019008Y016028D01*
X018968Y015997D01*
X018930Y015962D01*
X018894Y015925D01*
X018862Y015885D01*
X018833Y015843D01*
X018807Y015798D01*
X018815Y015794D01*
X018840Y015838D01*
X018869Y015879D01*
X018901Y015919D01*
X018936Y015956D01*
X018974Y015990D01*
X019014Y016021D01*
X019056Y016049D01*
X019100Y016074D01*
X019146Y016095D01*
X019194Y016113D01*
X019242Y016127D01*
X019292Y016137D01*
X019342Y016144D01*
X019393Y016147D01*
X019444Y016146D01*
X019494Y016141D01*
X019544Y016132D01*
X019593Y016120D01*
X019641Y016104D01*
X019638Y016096D01*
X019591Y016111D01*
X019542Y016124D01*
X019493Y016132D01*
X019443Y016137D01*
X019393Y016138D01*
X019343Y016135D01*
X019293Y016129D01*
X019245Y016118D01*
X019196Y016104D01*
X019150Y016087D01*
X019104Y016066D01*
X019061Y016041D01*
X019019Y016014D01*
X018979Y015983D01*
X018942Y015949D01*
X018908Y015913D01*
X018877Y015874D01*
X018848Y015833D01*
X018823Y015790D01*
X018831Y015786D01*
X018856Y015828D01*
X018884Y015869D01*
X018915Y015907D01*
X018949Y015943D01*
X018985Y015976D01*
X019024Y016006D01*
X019065Y016034D01*
X019108Y016058D01*
X019153Y016078D01*
X019199Y016096D01*
X019247Y016109D01*
X019295Y016120D01*
X019344Y016126D01*
X019393Y016129D01*
X019442Y016128D01*
X019492Y016123D01*
X019540Y016115D01*
X019588Y016103D01*
X019635Y016087D01*
X019632Y016079D01*
X019585Y016094D01*
X019538Y016106D01*
X019490Y016114D01*
X019442Y016119D01*
X019393Y016120D01*
X019345Y016117D01*
X019296Y016111D01*
X019249Y016101D01*
X019202Y016087D01*
X019157Y016070D01*
X019112Y016050D01*
X019070Y016026D01*
X019030Y015999D01*
X018991Y015969D01*
X018955Y015936D01*
X018922Y015901D01*
X018891Y015863D01*
X018863Y015823D01*
X018839Y015781D01*
X018847Y015777D01*
X018871Y015819D01*
X018898Y015858D01*
X018928Y015895D01*
X018961Y015930D01*
X018997Y015962D01*
X019035Y015992D01*
X019075Y016018D01*
X019117Y016042D01*
X019160Y016062D01*
X019205Y016079D01*
X019251Y016092D01*
X019298Y016102D01*
X019346Y016108D01*
X019393Y016111D01*
X019441Y016110D01*
X019489Y016105D01*
X019536Y016097D01*
X019583Y016086D01*
X019628Y016070D01*
X019625Y016062D01*
X019578Y016078D01*
X019529Y016090D01*
X019480Y016097D01*
X019430Y016101D01*
X019380Y016102D01*
X019331Y016098D01*
X019281Y016090D01*
X019233Y016078D01*
X019186Y016062D01*
X019140Y016043D01*
X019095Y016020D01*
X019053Y015993D01*
X019013Y015964D01*
X018975Y015931D01*
X018940Y015895D01*
X018909Y015857D01*
X018880Y015816D01*
X018855Y015773D01*
X018863Y015769D01*
X018888Y015811D01*
X018916Y015851D01*
X018947Y015889D01*
X018982Y015924D01*
X019019Y015957D01*
X019058Y015986D01*
X019100Y016012D01*
X019143Y016035D01*
X019189Y016054D01*
X019235Y016069D01*
X019283Y016081D01*
X019332Y016089D01*
X019381Y016093D01*
X019430Y016092D01*
X019479Y016089D01*
X019527Y016081D01*
X019575Y016069D01*
X019622Y016054D01*
X019619Y016045D01*
X019573Y016060D01*
X019526Y016072D01*
X019478Y016080D01*
X019429Y016084D01*
X019381Y016084D01*
X019333Y016080D01*
X019285Y016072D01*
X019238Y016061D01*
X019192Y016045D01*
X019147Y016027D01*
X019104Y016004D01*
X019063Y015979D01*
X019024Y015950D01*
X018988Y015918D01*
X018954Y015883D01*
X018923Y015846D01*
X018895Y015806D01*
X018870Y015765D01*
X019108Y015037D02*
X019155Y015113D01*
X019190Y015094D01*
X019227Y015079D01*
X019265Y015067D01*
X019304Y015059D01*
X019344Y015055D01*
X019384Y015054D01*
X019423Y015058D01*
X019463Y015065D01*
X019501Y015076D01*
X019538Y015091D01*
X019574Y015109D01*
X019607Y015131D01*
X019638Y015156D01*
X019667Y015183D01*
X019693Y015214D01*
X019716Y015246D01*
X019792Y015200D01*
X019793Y015199D01*
X019768Y015163D01*
X019741Y015130D01*
X019710Y015099D01*
X019677Y015071D01*
X019642Y015046D01*
X019605Y015024D01*
X019566Y015005D01*
X019525Y014990D01*
X019484Y014978D01*
X019441Y014969D01*
X019398Y014965D01*
X019355Y014964D01*
X019311Y014967D01*
X019269Y014974D01*
X019226Y014984D01*
X019185Y014998D01*
X019146Y015015D01*
X019108Y015036D01*
X019112Y015044D01*
X019150Y015023D01*
X019189Y015006D01*
X019229Y014993D01*
X019270Y014983D01*
X019312Y014976D01*
X019355Y014973D01*
X019397Y014974D01*
X019440Y014978D01*
X019481Y014986D01*
X019522Y014998D01*
X019562Y015013D01*
X019600Y015032D01*
X019637Y015053D01*
X019672Y015078D01*
X019704Y015106D01*
X019734Y015136D01*
X019761Y015169D01*
X019785Y015204D01*
X019777Y015209D01*
X019754Y015174D01*
X019727Y015142D01*
X019698Y015112D01*
X019666Y015085D01*
X019632Y015061D01*
X019596Y015040D01*
X019559Y015021D01*
X019520Y015007D01*
X019479Y014995D01*
X019438Y014987D01*
X019397Y014983D01*
X019355Y014982D01*
X019313Y014985D01*
X019272Y014991D01*
X019232Y015001D01*
X019192Y015015D01*
X019154Y015031D01*
X019117Y015051D01*
X019122Y015059D01*
X019160Y015038D01*
X019200Y015021D01*
X019241Y015008D01*
X019283Y014998D01*
X019326Y014993D01*
X019370Y014991D01*
X019413Y014993D01*
X019456Y014999D01*
X019498Y015009D01*
X019539Y015023D01*
X019579Y015041D01*
X019617Y015062D01*
X019653Y015086D01*
X019686Y015114D01*
X019717Y015144D01*
X019745Y015178D01*
X019770Y015213D01*
X019762Y015218D01*
X019738Y015183D01*
X019710Y015151D01*
X019680Y015121D01*
X019647Y015094D01*
X019612Y015070D01*
X019575Y015049D01*
X019536Y015032D01*
X019496Y015018D01*
X019454Y015008D01*
X019412Y015002D01*
X019370Y015000D01*
X019327Y015002D01*
X019285Y015007D01*
X019244Y015017D01*
X019203Y015030D01*
X019164Y015046D01*
X019127Y015067D01*
X019131Y015074D01*
X019168Y015055D01*
X019206Y015038D01*
X019246Y015025D01*
X019287Y015016D01*
X019328Y015011D01*
X019370Y015009D01*
X019411Y015011D01*
X019453Y015017D01*
X019493Y015027D01*
X019533Y015040D01*
X019571Y015057D01*
X019607Y015077D01*
X019642Y015101D01*
X019674Y015127D01*
X019704Y015157D01*
X019731Y015188D01*
X019754Y015223D01*
X019747Y015227D01*
X019723Y015194D01*
X019697Y015163D01*
X019668Y015134D01*
X019636Y015108D01*
X019603Y015085D01*
X019567Y015065D01*
X019530Y015048D01*
X019491Y015035D01*
X019451Y015026D01*
X019411Y015020D01*
X019370Y015018D01*
X019329Y015020D01*
X019288Y015025D01*
X019248Y015034D01*
X019210Y015047D01*
X019172Y015063D01*
X019136Y015082D01*
X019141Y015090D01*
X019176Y015071D01*
X019213Y015055D01*
X019251Y015043D01*
X019290Y015034D01*
X019330Y015029D01*
X019370Y015027D01*
X019410Y015029D01*
X019449Y015035D01*
X019488Y015044D01*
X019526Y015057D01*
X019563Y015073D01*
X019598Y015092D01*
X019631Y015115D01*
X019662Y015140D01*
X019690Y015169D01*
X019716Y015199D01*
X019739Y015232D01*
X019731Y015237D01*
X019709Y015205D01*
X019684Y015175D01*
X019656Y015147D01*
X019626Y015122D01*
X019593Y015100D01*
X019559Y015081D01*
X019523Y015065D01*
X019486Y015053D01*
X019448Y015044D01*
X019409Y015038D01*
X019370Y015036D01*
X019330Y015038D01*
X019292Y015043D01*
X019253Y015051D01*
X019216Y015063D01*
X019180Y015079D01*
X019145Y015097D01*
X019150Y015105D01*
X019186Y015086D01*
X019224Y015070D01*
X019263Y015058D01*
X019303Y015050D01*
X019343Y015046D01*
X019384Y015045D01*
X019425Y015049D01*
X019465Y015056D01*
X019504Y015068D01*
X019542Y015083D01*
X019578Y015102D01*
X019612Y015124D01*
X019644Y015149D01*
X019674Y015177D01*
X019700Y015208D01*
X019724Y015242D01*
D12*
X019412Y015252D02*
X019261Y015252D01*
X019261Y015327D01*
X019287Y015352D01*
X019337Y015352D01*
X019362Y015327D01*
X019362Y015252D01*
X019412Y015437D02*
X019261Y015437D01*
X019261Y015537D02*
X019412Y015537D01*
X019362Y015487D01*
X019412Y015437D01*
X019412Y015621D02*
X019261Y015621D01*
X019261Y015696D01*
X019287Y015721D01*
X019337Y015721D01*
X019362Y015696D01*
X019362Y015621D01*
X019362Y015671D02*
X019412Y015721D01*
X022011Y015705D02*
X022011Y015805D01*
X022011Y015755D02*
X022162Y015755D01*
X022162Y015621D02*
X022062Y015621D01*
X022011Y015571D01*
X022062Y015521D01*
X022162Y015521D01*
X022087Y015521D02*
X022087Y015621D01*
X022011Y015437D02*
X022011Y015337D01*
X022011Y015387D02*
X022162Y015387D01*
X022137Y015252D02*
X022162Y015227D01*
X022162Y015177D01*
X022137Y015152D01*
X022087Y015177D02*
X022087Y015227D01*
X022112Y015252D01*
X022137Y015252D01*
X022087Y015177D02*
X022062Y015152D01*
X022037Y015152D01*
X022011Y015177D01*
X022011Y015227D01*
X022037Y015252D01*
D13*
X014000Y002660D02*
X013606Y002897D01*
X013803Y002621D01*
X014236Y002306D01*
X014630Y002267D01*
X019000Y002267D01*
X019669Y002424D01*
X020339Y002621D01*
X020772Y002621D01*
X021598Y002346D01*
X022031Y002306D01*
X026244Y002267D01*
X026677Y002306D01*
X027150Y002503D01*
X027465Y002897D01*
X026992Y002621D01*
X021913Y002621D01*
X021362Y002779D01*
X021047Y003172D01*
X021047Y003881D01*
X021165Y004353D01*
X021598Y004865D01*
X021559Y004944D01*
X021165Y004590D01*
X020693Y004314D01*
X021156Y004314D01*
X021136Y004237D02*
X020616Y004237D01*
X020575Y004196D02*
X020693Y004314D01*
X020825Y004391D02*
X021197Y004391D01*
X021263Y004469D02*
X020958Y004469D01*
X021090Y004546D02*
X021328Y004546D01*
X021394Y004623D02*
X021203Y004623D01*
X021289Y004700D02*
X021459Y004700D01*
X021484Y004732D02*
X021598Y004865D01*
X021874Y005141D01*
X021565Y004932D02*
X021546Y004932D01*
X021590Y004855D02*
X021460Y004855D01*
X021524Y004778D02*
X021374Y004778D01*
X021117Y004159D02*
X019918Y004159D01*
X019956Y004108D02*
X019906Y004235D01*
X019859Y004345D01*
X019853Y004314D02*
X020257Y004314D01*
X020299Y004314D02*
X020368Y004268D01*
X020362Y004237D02*
X019885Y004237D01*
X019820Y004391D02*
X020152Y004391D01*
X020047Y004469D02*
X019787Y004469D01*
X019754Y004546D02*
X019942Y004546D01*
X019837Y004623D02*
X019722Y004623D01*
X019733Y004700D02*
X019689Y004700D01*
X019669Y004747D02*
X020417Y004196D01*
X020575Y004196D01*
X020509Y004235D02*
X020477Y004235D01*
X019983Y004005D02*
X021078Y004005D01*
X021098Y004082D02*
X019951Y004082D01*
X020016Y003928D02*
X021059Y003928D01*
X021047Y003850D02*
X020049Y003850D01*
X020081Y003773D02*
X021047Y003773D01*
X021087Y003717D02*
X021087Y003588D01*
X021047Y003619D02*
X020094Y003619D01*
X020100Y003696D02*
X021047Y003696D01*
X021047Y003541D02*
X020088Y003541D01*
X020082Y003464D02*
X021047Y003464D01*
X021047Y003387D02*
X020076Y003387D01*
X020070Y003309D02*
X021047Y003309D01*
X021047Y003232D02*
X020065Y003232D01*
X020063Y003212D02*
X020102Y003723D01*
X019669Y004747D01*
X019512Y002700D02*
X019445Y002679D01*
X019376Y002661D01*
X019307Y002647D01*
X019238Y002636D01*
X019168Y002627D01*
X019097Y002623D01*
X019027Y002621D01*
X014294Y002621D01*
X014276Y002582D02*
X019315Y002582D01*
X019787Y002818D01*
X020063Y003212D01*
X020023Y003155D02*
X021061Y003155D01*
X021123Y003078D02*
X019969Y003078D01*
X019945Y003054D02*
X019912Y003010D01*
X019915Y003000D02*
X021185Y003000D01*
X021247Y002923D02*
X019861Y002923D01*
X019807Y002846D02*
X021309Y002846D01*
X021398Y002768D02*
X019688Y002768D01*
X019709Y002818D02*
X019512Y002700D01*
X019534Y002691D02*
X021668Y002691D01*
X021663Y002707D02*
X021622Y002716D01*
X021257Y002459D02*
X027045Y002459D01*
X027176Y002537D02*
X021025Y002537D01*
X020794Y002614D02*
X027238Y002614D01*
X027300Y002691D02*
X027112Y002691D01*
X027189Y002739D02*
X027235Y002773D01*
X027245Y002768D02*
X027362Y002768D01*
X027377Y002846D02*
X027424Y002846D01*
X026855Y002660D02*
X022090Y002660D01*
X022187Y002305D02*
X026661Y002305D01*
X026859Y002382D02*
X021489Y002382D01*
X020314Y002614D02*
X019379Y002614D01*
X019490Y002382D02*
X014132Y002382D01*
X014026Y002459D02*
X019788Y002459D01*
X020051Y002537D02*
X013919Y002537D01*
X013813Y002614D02*
X014163Y002614D01*
X014276Y002582D02*
X014000Y002660D01*
X013961Y002700D02*
X013803Y002818D01*
X013606Y002975D01*
X013590Y002992D01*
X013643Y002846D02*
X013691Y002846D01*
X013698Y002768D02*
X013820Y002768D01*
X013753Y002691D02*
X013949Y002691D01*
X014251Y002305D02*
X019161Y002305D01*
X019709Y002817D02*
X019755Y002850D01*
X019798Y002886D01*
X019839Y002924D01*
X019877Y002966D01*
X019912Y003010D01*
X019945Y003054D02*
X019972Y003112D01*
X019996Y003173D01*
X020016Y003234D01*
X020033Y003297D01*
X020046Y003360D01*
X020055Y003425D01*
X020061Y003489D01*
X020063Y003554D01*
X020061Y003625D01*
X020056Y003696D01*
X020048Y003766D01*
X020036Y003836D01*
X020021Y003905D01*
X020003Y003974D01*
X019981Y004041D01*
X019956Y004108D01*
X021432Y002797D02*
X021468Y002776D01*
X021504Y002757D01*
X021543Y002740D01*
X021582Y002727D01*
X021622Y002716D01*
X021195Y003052D02*
X021173Y003093D01*
X021154Y003134D01*
X021138Y003177D01*
X021125Y003220D01*
X021114Y003265D01*
X021106Y003309D01*
X021195Y003052D02*
X021221Y003009D01*
X021250Y002968D01*
X021282Y002929D01*
X021316Y002893D01*
X021353Y002858D01*
X021392Y002827D01*
X021433Y002797D01*
X021164Y004190D02*
X021186Y004251D01*
X021211Y004311D01*
X021239Y004370D01*
X021269Y004427D01*
X021663Y002707D02*
X021747Y002690D01*
X021832Y002677D01*
X021918Y002668D01*
X022004Y002662D01*
X022090Y002660D01*
X021269Y004428D02*
X021308Y004492D01*
X021348Y004555D01*
X021391Y004616D01*
X021437Y004675D01*
X021484Y004732D01*
X021164Y004191D02*
X021144Y004125D01*
X021126Y004058D01*
X021112Y003991D01*
X021101Y003923D01*
X021093Y003855D01*
X021089Y003786D01*
X021087Y003717D01*
X021086Y003588D02*
X021087Y003518D01*
X021091Y003448D01*
X021097Y003379D01*
X021106Y003309D01*
X026059Y005455D02*
X026129Y005428D01*
X026199Y005399D01*
X026267Y005366D01*
X026413Y005292D01*
X026691Y005124D02*
X026820Y005030D01*
X027134Y004746D02*
X027158Y004718D01*
X027446Y002956D02*
X027395Y002908D01*
X027343Y002861D01*
X027290Y002816D01*
X027235Y002774D01*
X027545Y003067D02*
X027562Y003100D01*
X027576Y003135D01*
X027587Y003172D01*
X027595Y003209D01*
X027622Y003532D02*
X027622Y003591D01*
X027189Y002739D02*
X027144Y002718D01*
X027098Y002701D01*
X027050Y002686D01*
X027002Y002675D01*
X026954Y002667D01*
X026904Y002662D01*
X026855Y002660D01*
X027622Y003591D02*
X027620Y003657D01*
X027615Y003723D01*
X027607Y003789D01*
X027596Y003854D01*
X027554Y003081D02*
X027520Y003038D01*
X027484Y002996D01*
X027446Y002956D01*
X027446Y002878D02*
X027485Y002944D01*
X027521Y003012D01*
X027554Y003081D01*
X027596Y003854D02*
X027579Y003928D01*
X027559Y004002D01*
X027537Y004075D01*
X027511Y004146D01*
X027482Y004217D01*
X027449Y004286D01*
X027414Y004353D01*
X026059Y005455D02*
X025732Y005574D01*
X025654Y005731D02*
X025575Y005653D01*
X025654Y005731D02*
X026165Y006558D01*
X026283Y006794D01*
X025811Y006794D01*
X025848Y007355D01*
X025881Y007328D02*
X026711Y007328D01*
X026675Y007251D02*
X025876Y007251D01*
X025872Y007174D02*
X026639Y007174D01*
X026603Y007096D02*
X025867Y007096D01*
X025862Y007019D02*
X026567Y007019D01*
X026531Y006942D02*
X025857Y006942D01*
X025852Y006864D02*
X026495Y006864D01*
X026480Y006834D02*
X026756Y007424D01*
X027031Y008212D01*
X027150Y009078D01*
X027150Y009708D01*
X027189Y009865D01*
X027346Y009944D01*
X027543Y009905D01*
X028528Y009353D01*
X029394Y008920D01*
X029866Y008920D01*
X029945Y009038D01*
X029787Y009275D01*
X028843Y010180D01*
X027780Y011243D01*
X027150Y011912D01*
X026795Y012306D01*
X026677Y012582D01*
X026638Y013054D01*
X026244Y013920D01*
X026008Y014786D01*
X026008Y016204D01*
X025890Y016755D01*
X025378Y018015D01*
X025024Y018566D01*
X024354Y019275D01*
X023528Y019944D01*
X022504Y020534D01*
X021953Y020731D01*
X021244Y020849D01*
X019827Y020849D01*
X019394Y020771D01*
X018803Y020574D01*
X017701Y020062D01*
X016913Y019471D01*
X016283Y018881D01*
X015614Y017779D01*
X015260Y016794D01*
X015142Y016125D01*
X015024Y014747D01*
X014748Y013605D01*
X014433Y012897D01*
X014354Y012424D01*
X014118Y011991D01*
X011165Y009038D01*
X011244Y008920D01*
X011402Y008881D01*
X011677Y008920D01*
X012307Y009196D01*
X012858Y009550D01*
X013331Y009786D01*
X013724Y009905D01*
X013882Y009905D01*
X013921Y009786D01*
X013961Y009078D01*
X014197Y007779D01*
X014551Y006952D01*
X014669Y006755D01*
X015260Y006755D01*
X015181Y007936D01*
X015181Y008960D01*
X015417Y009944D01*
X015850Y011086D01*
X016677Y012464D01*
X017268Y013094D01*
X017701Y013527D01*
X017701Y013645D01*
X017543Y013763D01*
X017150Y014275D01*
X016913Y015023D01*
X016874Y015416D01*
X016874Y016007D01*
X017071Y016676D01*
X017346Y017149D01*
X017504Y017346D01*
X016598Y017346D01*
X016598Y017739D01*
X016717Y018290D01*
X016953Y018802D01*
X017346Y019314D01*
X017898Y019826D01*
X018528Y020259D01*
X019197Y020495D01*
X019984Y020692D01*
X020614Y020731D01*
X021244Y020692D01*
X021874Y020534D01*
X022465Y020338D01*
X022937Y020101D01*
X023370Y019826D01*
X023764Y019432D01*
X024276Y018802D01*
X024472Y018330D01*
X024591Y017936D01*
X024669Y017385D01*
X024669Y016637D01*
X023685Y016637D01*
X023843Y016519D01*
X024236Y016046D01*
X024315Y015338D01*
X024236Y014905D01*
X024039Y014471D01*
X024039Y014550D01*
X023764Y014235D01*
X023173Y013881D01*
X022976Y013842D01*
X022976Y013684D01*
X023213Y013605D01*
X024039Y012897D01*
X024669Y012149D01*
X025299Y011007D01*
X025693Y009786D01*
X025929Y008684D01*
X025929Y008094D01*
X025850Y006834D01*
X026480Y006834D01*
X026747Y007405D02*
X025886Y007405D01*
X025851Y007416D02*
X025884Y008322D01*
X025929Y008333D02*
X027048Y008333D01*
X027059Y008410D02*
X025929Y008410D01*
X025929Y008487D02*
X027069Y008487D01*
X027080Y008565D02*
X025929Y008565D01*
X025929Y008642D02*
X027090Y008642D01*
X027101Y008719D02*
X025922Y008719D01*
X025905Y008796D02*
X027111Y008796D01*
X027122Y008874D02*
X025888Y008874D01*
X025872Y008951D02*
X027132Y008951D01*
X027143Y009028D02*
X025855Y009028D01*
X025822Y008994D02*
X025868Y008652D01*
X025929Y008256D02*
X027037Y008256D01*
X027020Y008178D02*
X025929Y008178D01*
X025929Y008101D02*
X026993Y008101D01*
X026966Y008024D02*
X025925Y008024D01*
X025920Y007946D02*
X026939Y007946D01*
X026912Y007869D02*
X025915Y007869D01*
X025910Y007792D02*
X026885Y007792D01*
X026857Y007715D02*
X025905Y007715D01*
X025901Y007637D02*
X026830Y007637D01*
X026803Y007560D02*
X025896Y007560D01*
X025891Y007483D02*
X026776Y007483D01*
X029685Y009416D02*
X029727Y009374D01*
X029767Y009330D01*
X029806Y009285D01*
X029805Y009285D02*
X029945Y009117D01*
X029900Y009106D02*
X029023Y009106D01*
X029857Y009490D02*
X029880Y009440D01*
X029900Y009388D01*
X029916Y009335D01*
X029929Y009282D01*
X029938Y009227D01*
X029943Y009172D01*
X029945Y009117D01*
X029938Y009028D02*
X029178Y009028D01*
X029332Y008951D02*
X029887Y008951D01*
X029849Y009183D02*
X028869Y009183D01*
X028714Y009260D02*
X029797Y009260D01*
X029722Y009337D02*
X028559Y009337D01*
X028418Y009415D02*
X029641Y009415D01*
X029685Y009417D02*
X028921Y010180D01*
X028488Y010574D01*
X027858Y011204D01*
X027307Y011794D01*
X026867Y012271D01*
X026824Y012274D02*
X024564Y012274D01*
X024591Y012194D02*
X024394Y012424D01*
X024135Y012719D01*
X024173Y012738D02*
X026664Y012738D01*
X026677Y012779D02*
X026805Y012586D01*
X026710Y012506D02*
X024368Y012506D01*
X024303Y012583D02*
X026677Y012583D01*
X026671Y012661D02*
X024238Y012661D01*
X024100Y012758D02*
X023822Y013036D01*
X023864Y013047D02*
X026638Y013047D01*
X026645Y012970D02*
X023954Y012970D01*
X024043Y012893D02*
X026651Y012893D01*
X026658Y012815D02*
X024108Y012815D01*
X023783Y013071D02*
X023427Y013384D01*
X023413Y013434D02*
X026465Y013434D01*
X026430Y013511D02*
X023323Y013511D01*
X023313Y013466D02*
X023103Y013592D01*
X023033Y013665D02*
X026360Y013665D01*
X026395Y013588D02*
X023233Y013588D01*
X022976Y013743D02*
X026325Y013743D01*
X026290Y013820D02*
X022976Y013820D01*
X023066Y013898D02*
X023134Y013920D01*
X023200Y013897D02*
X026255Y013897D01*
X026229Y013974D02*
X023329Y013974D01*
X023458Y014052D02*
X026208Y014052D01*
X026187Y014129D02*
X023587Y014129D01*
X023716Y014206D02*
X026166Y014206D01*
X026145Y014284D02*
X023806Y014284D01*
X023805Y014355D02*
X023724Y014275D01*
X023704Y014257D01*
X023874Y014361D02*
X026124Y014361D01*
X026103Y014438D02*
X023941Y014438D01*
X024009Y014515D02*
X024039Y014515D01*
X024059Y014515D02*
X026082Y014515D01*
X026061Y014593D02*
X024094Y014593D01*
X024130Y014670D02*
X026040Y014670D01*
X026019Y014747D02*
X024165Y014747D01*
X024200Y014825D02*
X026008Y014825D01*
X026008Y014902D02*
X024235Y014902D01*
X024250Y014979D02*
X026008Y014979D01*
X026008Y015056D02*
X024264Y015056D01*
X024229Y015048D02*
X024225Y015031D01*
X024278Y015134D02*
X026008Y015134D01*
X026008Y015211D02*
X024292Y015211D01*
X024306Y015288D02*
X026008Y015288D01*
X026008Y015366D02*
X024312Y015366D01*
X024303Y015443D02*
X026008Y015443D01*
X026008Y015520D02*
X024295Y015520D01*
X024286Y015597D02*
X026008Y015597D01*
X026008Y015675D02*
X024277Y015675D01*
X024269Y015752D02*
X026008Y015752D01*
X026008Y015829D02*
X024260Y015829D01*
X024252Y015907D02*
X026008Y015907D01*
X026008Y015984D02*
X024243Y015984D01*
X024224Y016061D02*
X026008Y016061D01*
X026008Y016138D02*
X024159Y016138D01*
X024095Y016216D02*
X026005Y016216D01*
X025989Y016293D02*
X024031Y016293D01*
X023966Y016370D02*
X025972Y016370D01*
X025956Y016448D02*
X023902Y016448D01*
X023868Y016454D02*
X023764Y016558D01*
X023591Y016688D01*
X023731Y016602D02*
X025923Y016602D01*
X025939Y016525D02*
X023834Y016525D01*
X023290Y016874D02*
X023259Y016889D01*
X023383Y017578D02*
X023321Y017603D01*
X023258Y017624D01*
X023193Y017641D01*
X023202Y017703D02*
X023396Y017614D01*
X023427Y017607D02*
X024857Y017607D01*
X024866Y017582D02*
X024472Y018664D01*
X023390Y019846D01*
X021913Y020633D01*
X020634Y020830D01*
X018961Y020436D01*
X018272Y020239D01*
X018075Y019944D01*
X018075Y019846D01*
X017878Y019846D01*
X016500Y018468D01*
X016205Y017090D01*
X016598Y017090D01*
X017287Y018074D01*
X018075Y018566D01*
X019059Y018566D01*
X019650Y018271D01*
X020240Y017582D01*
X020831Y017090D01*
X021657Y017641D01*
X021756Y017739D01*
X023252Y017739D01*
X023980Y017188D01*
X024472Y016991D01*
X024669Y017090D01*
X024866Y017582D01*
X024845Y017530D02*
X023529Y017530D01*
X023631Y017452D02*
X024814Y017452D01*
X024783Y017375D02*
X023733Y017375D01*
X023700Y017349D02*
X023724Y017306D01*
X021520Y017306D01*
X021536Y017317D01*
X021586Y017486D02*
X021835Y017621D01*
X021993Y017720D01*
X021845Y017587D02*
X021669Y017479D01*
X021606Y017607D02*
X020219Y017607D01*
X020152Y017684D02*
X021701Y017684D01*
X021491Y017530D02*
X020303Y017530D01*
X020396Y017452D02*
X021375Y017452D01*
X021259Y017375D02*
X020488Y017375D01*
X020581Y017298D02*
X021143Y017298D01*
X021087Y017267D02*
X021188Y017348D01*
X021087Y017267D02*
X020732Y017267D01*
X020575Y017503D01*
X020527Y017563D01*
X020286Y017815D02*
X020136Y017946D01*
X020020Y017839D02*
X024773Y017839D01*
X024745Y017916D02*
X019954Y017916D01*
X019887Y017993D02*
X024717Y017993D01*
X024688Y018071D02*
X019821Y018071D01*
X019755Y018148D02*
X024660Y018148D01*
X024632Y018225D02*
X019689Y018225D01*
X019810Y018184D02*
X019932Y018102D01*
X020086Y017761D02*
X024801Y017761D01*
X024829Y017684D02*
X023325Y017684D01*
X022797Y017739D02*
X022431Y017739D01*
X022471Y017779D02*
X022740Y017779D01*
X024367Y018468D02*
X024340Y018536D01*
X024310Y018603D01*
X024278Y018669D01*
X024244Y018733D01*
X024208Y018798D01*
X024242Y018843D02*
X024762Y018843D01*
X024835Y018766D02*
X024291Y018766D01*
X024308Y018843D02*
X016876Y018843D01*
X016936Y018766D02*
X016214Y018766D01*
X016261Y018843D02*
X016984Y018843D01*
X017013Y018793D02*
X017053Y018864D01*
X017044Y018921D02*
X016326Y018921D01*
X016408Y018998D02*
X017103Y018998D01*
X017030Y018998D02*
X024167Y018998D01*
X024117Y018998D02*
X024616Y018998D01*
X024689Y018921D02*
X024179Y018921D01*
X024238Y018921D02*
X016953Y018921D01*
X017108Y019075D02*
X024096Y019075D01*
X024054Y019075D02*
X024543Y019075D01*
X024470Y019152D02*
X023991Y019152D01*
X024025Y019152D02*
X017185Y019152D01*
X017222Y019152D02*
X016573Y019152D01*
X016491Y019075D02*
X017163Y019075D01*
X017279Y019190D02*
X017311Y019227D01*
X017282Y019230D02*
X016656Y019230D01*
X016738Y019307D02*
X017341Y019307D01*
X017339Y019307D02*
X023883Y019307D01*
X023865Y019307D02*
X024314Y019307D01*
X024397Y019230D02*
X023928Y019230D01*
X023954Y019230D02*
X017262Y019230D01*
X017417Y019384D02*
X023813Y019384D01*
X023803Y019384D02*
X024219Y019384D01*
X024123Y019462D02*
X023734Y019462D01*
X023742Y019462D02*
X017494Y019462D01*
X017505Y019462D02*
X016903Y019462D01*
X016820Y019384D02*
X017422Y019384D01*
X017470Y019392D02*
X017813Y019709D01*
X017755Y019693D02*
X017209Y019693D01*
X017106Y019616D02*
X017672Y019616D01*
X017649Y019616D02*
X023600Y019616D01*
X023580Y019616D02*
X023932Y019616D01*
X023837Y019693D02*
X023502Y019693D01*
X023529Y019693D02*
X017726Y019693D01*
X017803Y019771D02*
X023458Y019771D01*
X023425Y019771D02*
X023742Y019771D01*
X023646Y019848D02*
X023335Y019848D01*
X023385Y019848D02*
X018075Y019848D01*
X018075Y019925D02*
X023240Y019925D01*
X023214Y019925D02*
X023551Y019925D01*
X023426Y020003D02*
X023092Y020003D01*
X023095Y020003D02*
X018114Y020003D01*
X018155Y020003D02*
X017622Y020003D01*
X017519Y019925D02*
X018042Y019925D01*
X017991Y019854D02*
X018199Y020006D01*
X018165Y020080D02*
X022950Y020080D01*
X022971Y020080D02*
X023292Y020080D01*
X023158Y020157D02*
X022826Y020157D01*
X022818Y020141D02*
X022550Y020275D01*
X022516Y020312D02*
X022890Y020312D01*
X022756Y020389D02*
X022310Y020389D01*
X022292Y020382D02*
X021953Y020495D01*
X021679Y020573D01*
X021675Y020574D02*
X021501Y020618D01*
X021529Y020621D02*
X022262Y020621D01*
X022386Y020613D02*
X021958Y020746D01*
X022046Y020698D02*
X021145Y020698D01*
X021066Y020682D02*
X021220Y020667D01*
X021207Y020889D02*
X019950Y020889D01*
X020075Y020698D02*
X021489Y020698D01*
X021553Y020851D02*
X021670Y020827D01*
X021688Y020775D02*
X019420Y020775D01*
X019321Y020786D02*
X018803Y020613D01*
X018738Y020544D02*
X019391Y020544D01*
X019418Y020544D02*
X022081Y020544D01*
X022079Y020466D02*
X022622Y020466D01*
X022479Y020544D02*
X021838Y020544D01*
X021936Y020621D02*
X019746Y020621D01*
X019700Y020621D02*
X018944Y020621D01*
X019089Y020466D02*
X022226Y020466D01*
X022371Y020389D02*
X018796Y020389D01*
X018836Y020338D02*
X019204Y020470D01*
X019115Y020466D02*
X018571Y020466D01*
X018525Y020312D02*
X022516Y020312D01*
X022661Y020234D02*
X018269Y020234D01*
X018239Y020312D02*
X018677Y020312D01*
X018618Y020245D02*
X018476Y020174D01*
X018492Y020234D02*
X018072Y020234D01*
X018217Y020157D02*
X022805Y020157D01*
X022671Y020234D02*
X023024Y020234D01*
X023118Y019956D02*
X023337Y019792D01*
X023548Y019609D02*
X023685Y019471D01*
X023921Y019196D01*
X024000Y019102D01*
X024028Y019539D02*
X023657Y019539D01*
X023671Y019539D02*
X017571Y019539D01*
X017589Y019539D02*
X017003Y019539D01*
X017312Y019771D02*
X017838Y019771D01*
X017930Y019848D02*
X017415Y019848D01*
X017739Y020080D02*
X018267Y020080D01*
X018380Y020157D02*
X017906Y020157D01*
X018405Y020389D02*
X018896Y020389D01*
X019176Y020698D02*
X020083Y020698D01*
X019967Y020660D02*
X019792Y020628D01*
X019626Y020591D02*
X019349Y020515D01*
X020319Y020692D02*
X020870Y020692D01*
X020987Y020775D02*
X020403Y020775D01*
X021675Y020575D02*
X021679Y020574D01*
X021553Y020851D02*
X021485Y020864D01*
X021416Y020874D01*
X021346Y020882D01*
X021277Y020887D01*
X021207Y020889D01*
X019906Y022031D02*
X019909Y022092D01*
X019917Y022152D01*
X019931Y022211D01*
X019950Y022269D01*
X019974Y022325D01*
X020003Y022379D01*
X020037Y022429D01*
X020076Y022476D01*
X020118Y022520D01*
X020165Y022559D01*
X020214Y022595D01*
X020267Y022625D01*
X020323Y022651D01*
X020380Y022671D01*
X020439Y022686D01*
X020499Y022696D01*
X020560Y022700D01*
X020621Y022698D01*
X020681Y022692D01*
X020741Y022679D01*
X020799Y022661D01*
X020855Y022638D01*
X020909Y022610D01*
X020961Y022578D01*
X021009Y022540D01*
X021053Y022499D01*
X021094Y022453D01*
X021130Y022404D01*
X021162Y022352D01*
X021189Y022298D01*
X021210Y022241D01*
X021227Y022182D01*
X021238Y022122D01*
X021243Y022061D01*
X021243Y022001D01*
X021238Y021940D01*
X021227Y021880D01*
X021210Y021821D01*
X021189Y021764D01*
X021162Y021710D01*
X021130Y021658D01*
X021094Y021609D01*
X021053Y021563D01*
X021009Y021522D01*
X020961Y021484D01*
X020910Y021452D01*
X020855Y021424D01*
X020799Y021401D01*
X020741Y021383D01*
X020681Y021370D01*
X020621Y021364D01*
X020560Y021362D01*
X020499Y021366D01*
X020439Y021376D01*
X020380Y021391D01*
X020323Y021411D01*
X020267Y021437D01*
X020214Y021467D01*
X020165Y021503D01*
X020118Y021542D01*
X020076Y021586D01*
X020037Y021633D01*
X020003Y021683D01*
X019974Y021737D01*
X019950Y021793D01*
X019931Y021851D01*
X019917Y021910D01*
X019909Y021970D01*
X019906Y022031D01*
X019950Y020888D02*
X019869Y020886D01*
X019788Y020881D01*
X019707Y020873D01*
X019627Y020861D01*
X019627Y020862D02*
X019550Y020848D01*
X019473Y020830D01*
X019397Y020810D01*
X019321Y020786D01*
X019348Y020515D02*
X019276Y020493D01*
X019204Y020469D01*
X019626Y020591D02*
X019709Y020611D01*
X019792Y020628D01*
X019967Y020660D02*
X020054Y020674D01*
X020142Y020684D01*
X020230Y020690D01*
X020319Y020692D01*
X020870Y020692D02*
X020935Y020691D01*
X021001Y020688D01*
X021066Y020682D01*
X021220Y020667D02*
X021291Y020659D01*
X021362Y020648D01*
X021432Y020634D01*
X021502Y020618D01*
X024323Y018689D02*
X024908Y018689D01*
X024981Y018611D02*
X024355Y018611D01*
X024387Y018534D02*
X025044Y018534D01*
X025094Y018457D02*
X024419Y018457D01*
X024366Y018468D02*
X024433Y018290D01*
X024529Y018003D01*
X024573Y017993D02*
X025387Y017993D01*
X025418Y017916D02*
X024593Y017916D01*
X024604Y017839D02*
X025450Y017839D01*
X025481Y017761D02*
X024615Y017761D01*
X024627Y017684D02*
X025512Y017684D01*
X025544Y017607D02*
X024638Y017607D01*
X024649Y017530D02*
X025575Y017530D01*
X025606Y017452D02*
X024660Y017452D01*
X024669Y017375D02*
X025638Y017375D01*
X025669Y017298D02*
X024669Y017298D01*
X024630Y017267D02*
X024630Y017380D01*
X024630Y017267D02*
X024118Y017267D01*
X024042Y017324D01*
X023938Y017220D02*
X024722Y017220D01*
X024669Y017220D02*
X025701Y017220D01*
X025732Y017143D02*
X024669Y017143D01*
X024691Y017143D02*
X024093Y017143D01*
X024286Y017066D02*
X024622Y017066D01*
X024669Y017066D02*
X025764Y017066D01*
X025795Y016989D02*
X024669Y016989D01*
X024669Y016911D02*
X025826Y016911D01*
X025858Y016834D02*
X024669Y016834D01*
X024669Y016757D02*
X025889Y016757D01*
X025906Y016679D02*
X024669Y016679D01*
X024753Y017298D02*
X023835Y017298D01*
X023789Y017369D02*
X023874Y017437D01*
X024550Y018071D02*
X025342Y018071D01*
X025292Y018148D02*
X024527Y018148D01*
X024504Y018225D02*
X025243Y018225D01*
X025193Y018302D02*
X024481Y018302D01*
X024452Y018380D02*
X025143Y018380D01*
X024604Y018302D02*
X019586Y018302D01*
X019432Y018380D02*
X024576Y018380D01*
X024548Y018457D02*
X019277Y018457D01*
X019217Y018487D02*
X019340Y018413D01*
X018200Y020006D02*
X018266Y020052D01*
X018335Y020096D01*
X018405Y020136D01*
X018477Y020174D01*
X016900Y018689D02*
X016167Y018689D01*
X016120Y018611D02*
X016865Y018611D01*
X016906Y018568D02*
X016828Y018372D01*
X016758Y018380D02*
X015979Y018380D01*
X016026Y018457D02*
X016793Y018457D01*
X016829Y018534D02*
X016073Y018534D01*
X015932Y018302D02*
X016722Y018302D01*
X016703Y018225D02*
X015885Y018225D01*
X015838Y018148D02*
X016686Y018148D01*
X016669Y018071D02*
X015791Y018071D01*
X015745Y017993D02*
X016653Y017993D01*
X016636Y017916D02*
X015698Y017916D01*
X015651Y017839D02*
X016620Y017839D01*
X016603Y017761D02*
X015608Y017761D01*
X015580Y017684D02*
X016598Y017684D01*
X016657Y017719D02*
X016638Y017542D01*
X016638Y017385D01*
X016874Y017700D01*
X016895Y017726D01*
X017015Y017684D02*
X016332Y017684D01*
X016316Y017607D02*
X016960Y017607D01*
X016906Y017530D02*
X016299Y017530D01*
X016282Y017452D02*
X016852Y017452D01*
X016798Y017375D02*
X016266Y017375D01*
X016249Y017298D02*
X016744Y017298D01*
X016690Y017220D02*
X016233Y017220D01*
X016216Y017143D02*
X016636Y017143D01*
X016598Y017375D02*
X015469Y017375D01*
X015497Y017452D02*
X016598Y017452D01*
X016598Y017530D02*
X015525Y017530D01*
X015552Y017607D02*
X016598Y017607D01*
X016349Y017761D02*
X017069Y017761D01*
X017123Y017839D02*
X016365Y017839D01*
X016382Y017916D02*
X017177Y017916D01*
X017231Y017993D02*
X016398Y017993D01*
X016415Y018071D02*
X017285Y018071D01*
X017406Y018148D02*
X016431Y018148D01*
X016448Y018225D02*
X017529Y018225D01*
X017399Y018159D02*
X017726Y018323D01*
X017653Y018302D02*
X016465Y018302D01*
X016481Y018380D02*
X017777Y018380D01*
X017916Y018405D02*
X018081Y018467D01*
X018319Y018516D01*
X018494Y018525D01*
X018024Y018534D02*
X016567Y018534D01*
X016498Y018457D02*
X017900Y018457D01*
X018151Y017864D02*
X018288Y017933D01*
X018343Y017951D01*
X018469Y017973D01*
X018503Y017975D01*
X019028Y017975D01*
X019105Y017968D01*
X019179Y017953D01*
X019253Y017931D01*
X019315Y017905D01*
X019383Y017869D01*
X019446Y017826D01*
X019506Y017777D01*
X019623Y017700D01*
X019458Y017657D02*
X019315Y017739D01*
X019286Y017751D01*
X018941Y017853D02*
X018921Y017857D01*
X017470Y019393D02*
X017415Y019340D01*
X017362Y019285D01*
X017311Y019227D01*
X016799Y018766D02*
X024379Y018766D01*
X024450Y018689D02*
X016721Y018689D01*
X016644Y018611D02*
X024492Y018611D01*
X024520Y018534D02*
X019123Y018534D01*
X017991Y019854D02*
X017930Y019807D01*
X017870Y019759D01*
X017813Y019708D01*
X018618Y020245D02*
X018690Y020279D01*
X018763Y020310D01*
X018837Y020338D01*
X022293Y020382D02*
X022359Y020359D01*
X022424Y020333D01*
X022488Y020305D01*
X022551Y020275D01*
X022818Y020142D02*
X022896Y020101D01*
X022972Y020056D01*
X023046Y020008D01*
X023118Y019956D01*
X023338Y019792D02*
X023393Y019749D01*
X023446Y019704D01*
X023498Y019658D01*
X023548Y019609D01*
X024000Y019103D02*
X024046Y019045D01*
X024090Y018986D01*
X024132Y018925D01*
X024171Y018862D01*
X024208Y018798D01*
X024529Y018003D02*
X024552Y017927D01*
X024573Y017851D01*
X024590Y017773D01*
X024605Y017695D01*
X024616Y017617D01*
X024624Y017538D01*
X024628Y017459D01*
X024630Y017380D01*
X021668Y017479D02*
X021622Y017427D01*
X021577Y017373D01*
X021535Y017317D01*
X021656Y016874D02*
X022078Y017001D01*
X021845Y017587D02*
X021895Y017610D01*
X021947Y017630D01*
X021999Y017648D01*
X022053Y017662D01*
X022107Y017673D01*
X021027Y017220D02*
X020674Y017220D01*
X020766Y017143D02*
X020911Y017143D01*
X021395Y016716D02*
X021628Y016862D01*
X021642Y016869D01*
X021656Y016874D01*
X021468Y017328D02*
X021495Y017370D01*
X021523Y017410D01*
X021554Y017449D01*
X021586Y017486D01*
X021958Y020746D02*
X021863Y020775D01*
X021767Y020802D01*
X021671Y020827D01*
X017279Y019189D02*
X017229Y019128D01*
X017181Y019065D01*
X017135Y019000D01*
X017093Y018933D01*
X017053Y018864D01*
X016770Y018206D02*
X016728Y018068D01*
X017465Y017385D02*
X018047Y017801D01*
X018151Y017864D01*
X018009Y017708D02*
X017819Y017582D01*
X017793Y017561D01*
X017398Y018159D02*
X017347Y018132D01*
X017297Y018102D01*
X017248Y018069D01*
X017202Y018033D01*
X017466Y017298D02*
X015441Y017298D01*
X015413Y017220D02*
X017404Y017220D01*
X017465Y017227D02*
X017407Y017151D01*
X017343Y017143D02*
X015385Y017143D01*
X015358Y017066D02*
X017298Y017066D01*
X017294Y016983D02*
X017228Y016873D01*
X017153Y016722D01*
X017118Y016757D02*
X015253Y016757D01*
X015240Y016679D02*
X017073Y016679D01*
X017049Y016602D02*
X015226Y016602D01*
X015212Y016525D02*
X017026Y016525D01*
X017004Y016448D02*
X015199Y016448D01*
X015185Y016370D02*
X016981Y016370D01*
X017021Y016382D02*
X016992Y016283D01*
X016945Y016024D01*
X016890Y016061D02*
X015136Y016061D01*
X015130Y015984D02*
X016874Y015984D01*
X016874Y015907D02*
X015123Y015907D01*
X015116Y015829D02*
X016874Y015829D01*
X016874Y015752D02*
X015110Y015752D01*
X015103Y015675D02*
X016874Y015675D01*
X016913Y015672D02*
X016913Y015508D01*
X016874Y015520D02*
X015090Y015520D01*
X015083Y015443D02*
X016874Y015443D01*
X016879Y015366D02*
X015077Y015366D01*
X015070Y015288D02*
X016887Y015288D01*
X016931Y015247D02*
X016960Y015030D01*
X016910Y015056D02*
X015050Y015056D01*
X015044Y014979D02*
X016927Y014979D01*
X016952Y014902D02*
X015037Y014902D01*
X015030Y014825D02*
X016976Y014825D01*
X017000Y014747D02*
X015024Y014747D01*
X015005Y014670D02*
X017025Y014670D01*
X017049Y014593D02*
X014986Y014593D01*
X014968Y014515D02*
X017074Y014515D01*
X017103Y014509D02*
X017083Y014559D01*
X017098Y014438D02*
X014949Y014438D01*
X014930Y014361D02*
X017122Y014361D01*
X017147Y014284D02*
X014912Y014284D01*
X014893Y014206D02*
X017202Y014206D01*
X017213Y014279D02*
X017210Y014284D01*
X017262Y014129D02*
X014874Y014129D01*
X014856Y014052D02*
X017321Y014052D01*
X017381Y013974D02*
X014837Y013974D01*
X014819Y013897D02*
X017440Y013897D01*
X017499Y013820D02*
X014800Y013820D01*
X014781Y013743D02*
X017570Y013743D01*
X017541Y013843D02*
X017701Y013684D01*
X017898Y013527D01*
X018213Y013369D01*
X018449Y013290D01*
X018606Y013251D01*
X018882Y013251D01*
X018685Y013094D02*
X018331Y013212D01*
X017976Y013369D01*
X017780Y013448D01*
X017622Y013409D01*
X017189Y012975D01*
X016888Y012644D01*
X016862Y012661D02*
X014394Y012661D01*
X014381Y012626D02*
X014433Y012818D01*
X014157Y012464D01*
X013940Y012192D01*
X014115Y012058D02*
X014018Y011942D01*
X014015Y011888D02*
X016332Y011888D01*
X016378Y011965D02*
X014092Y011965D01*
X014146Y012042D02*
X016424Y012042D01*
X016471Y012120D02*
X014188Y012120D01*
X014230Y012197D02*
X016517Y012197D01*
X016564Y012274D02*
X014273Y012274D01*
X014315Y012352D02*
X016610Y012352D01*
X016656Y012429D02*
X014355Y012429D01*
X014368Y012506D02*
X016717Y012506D01*
X016718Y012429D02*
X016280Y011786D01*
X016285Y011811D02*
X013937Y011811D01*
X013897Y011810D02*
X013488Y011401D01*
X013005Y010955D01*
X013010Y010883D02*
X015774Y010883D01*
X015815Y010876D02*
X015563Y010213D01*
X015539Y010265D02*
X012392Y010265D01*
X012469Y010342D02*
X015568Y010342D01*
X015598Y010419D02*
X012546Y010419D01*
X012624Y010497D02*
X015627Y010497D01*
X015656Y010574D02*
X012701Y010574D01*
X012778Y010651D02*
X015686Y010651D01*
X015715Y010729D02*
X012856Y010729D01*
X012933Y010806D02*
X015744Y010806D01*
X015803Y010960D02*
X013087Y010960D01*
X013165Y011038D02*
X015832Y011038D01*
X015894Y011055D02*
X016145Y011557D01*
X016146Y011579D02*
X013706Y011579D01*
X013783Y011656D02*
X016193Y011656D01*
X016239Y011733D02*
X013860Y011733D01*
X013644Y011890D02*
X013727Y011965D01*
X013567Y011823D02*
X012425Y010889D01*
X012071Y010574D01*
X011843Y010346D01*
X011681Y010162D02*
X011480Y009905D01*
X011283Y009629D01*
X011263Y009593D01*
X011464Y009337D02*
X012527Y009337D01*
X012407Y009260D02*
X011387Y009260D01*
X011310Y009183D02*
X012277Y009183D01*
X011263Y009593D02*
X011235Y009540D01*
X011209Y009486D01*
X011188Y009430D01*
X011169Y009373D01*
X011154Y009315D01*
X011142Y009257D01*
X011133Y009197D01*
X011128Y009138D01*
X011126Y009078D01*
X012949Y010900D01*
X013242Y011115D02*
X015868Y011115D01*
X015914Y011192D02*
X013319Y011192D01*
X013396Y011270D02*
X015961Y011270D01*
X016007Y011347D02*
X013474Y011347D01*
X013551Y011424D02*
X016053Y011424D01*
X016100Y011501D02*
X013628Y011501D01*
X014114Y012058D02*
X014142Y012093D01*
X014167Y012129D01*
X014190Y012167D01*
X014381Y012583D02*
X016789Y012583D01*
X016934Y012738D02*
X014407Y012738D01*
X014420Y012815D02*
X017007Y012815D01*
X017079Y012893D02*
X014432Y012893D01*
X014466Y012970D02*
X017152Y012970D01*
X017224Y013047D02*
X014500Y013047D01*
X014534Y013124D02*
X017299Y013124D01*
X017376Y013202D02*
X014569Y013202D01*
X014603Y013279D02*
X017453Y013279D01*
X017530Y013356D02*
X014637Y013356D01*
X014672Y013434D02*
X017608Y013434D01*
X017685Y013511D02*
X014706Y013511D01*
X014740Y013588D02*
X017701Y013588D01*
X017673Y013665D02*
X014763Y013665D01*
X014019Y011941D02*
X013980Y011896D01*
X013940Y011852D01*
X013898Y011810D01*
X014192Y012167D02*
X014231Y012240D01*
X014268Y012315D01*
X014301Y012390D01*
X014331Y012468D01*
X014358Y012546D01*
X014382Y012626D01*
X013940Y012192D02*
X013890Y012132D01*
X013838Y012074D01*
X013783Y012018D01*
X013727Y011965D01*
X013645Y011889D02*
X013606Y011855D01*
X013567Y011822D01*
X012315Y010188D02*
X015510Y010188D01*
X015480Y010110D02*
X012237Y010110D01*
X012160Y010033D02*
X015451Y010033D01*
X015514Y010067D02*
X015339Y009471D01*
X015283Y009194D01*
X015235Y009183D02*
X013955Y009183D01*
X013950Y009260D02*
X015253Y009260D01*
X015272Y009337D02*
X013946Y009337D01*
X013942Y009415D02*
X015290Y009415D01*
X015309Y009492D02*
X013938Y009492D01*
X013933Y009569D02*
X015327Y009569D01*
X015346Y009647D02*
X013929Y009647D01*
X013925Y009724D02*
X015364Y009724D01*
X015383Y009801D02*
X013916Y009801D01*
X013891Y009878D02*
X015402Y009878D01*
X015422Y009956D02*
X012083Y009956D01*
X012005Y009878D02*
X013637Y009878D01*
X013380Y009801D02*
X011928Y009801D01*
X011851Y009724D02*
X013206Y009724D01*
X013051Y009647D02*
X011774Y009647D01*
X011696Y009569D02*
X012896Y009569D01*
X012768Y009492D02*
X011619Y009492D01*
X011542Y009415D02*
X012648Y009415D01*
X012101Y009106D02*
X011233Y009106D01*
X011172Y009028D02*
X011924Y009028D01*
X011747Y008951D02*
X011224Y008951D01*
X011681Y010163D02*
X011732Y010226D01*
X011786Y010287D01*
X011843Y010346D01*
X013959Y009106D02*
X015216Y009106D01*
X015198Y009028D02*
X013970Y009028D01*
X013984Y008951D02*
X015181Y008951D01*
X015251Y008959D02*
X015220Y008566D01*
X015220Y007482D01*
X015211Y007483D02*
X014324Y007483D01*
X014291Y007560D02*
X015206Y007560D01*
X015201Y007637D02*
X014257Y007637D01*
X014224Y007715D02*
X015196Y007715D01*
X015191Y007792D02*
X014194Y007792D01*
X014180Y007869D02*
X015186Y007869D01*
X015181Y007946D02*
X014166Y007946D01*
X014152Y008024D02*
X015181Y008024D01*
X015181Y008101D02*
X014138Y008101D01*
X014124Y008178D02*
X015181Y008178D01*
X015181Y008256D02*
X014110Y008256D01*
X014096Y008333D02*
X015181Y008333D01*
X015181Y008410D02*
X014082Y008410D01*
X014068Y008487D02*
X015181Y008487D01*
X015181Y008565D02*
X014054Y008565D01*
X014040Y008642D02*
X015181Y008642D01*
X015181Y008719D02*
X014026Y008719D01*
X014012Y008796D02*
X015181Y008796D01*
X015181Y008874D02*
X013998Y008874D01*
X012949Y010900D02*
X013005Y010954D01*
X015282Y009194D02*
X015268Y009116D01*
X015257Y009038D01*
X015250Y008959D01*
X015514Y010067D02*
X015537Y010140D01*
X015563Y010213D01*
X015816Y010876D02*
X015840Y010936D01*
X015866Y010996D01*
X015895Y011055D01*
X016145Y011558D02*
X016186Y011636D01*
X016231Y011712D01*
X016279Y011786D01*
X016717Y012429D02*
X016757Y012485D01*
X016798Y012540D01*
X016842Y012593D01*
X016887Y012645D01*
X018685Y013094D02*
X018961Y012936D01*
X019236Y012660D01*
X019591Y012188D01*
X019827Y011912D01*
X020102Y011676D01*
X020339Y011519D01*
X020496Y011479D01*
X020614Y011479D01*
X020811Y011519D01*
X021008Y011637D01*
X021205Y011834D01*
X021402Y012070D01*
X021559Y012346D01*
X021677Y012582D01*
X022346Y013487D02*
X022370Y013511D01*
X022307Y013763D02*
X022622Y013802D01*
X022722Y013816D01*
X022607Y013661D02*
X022605Y013660D01*
X022307Y013763D02*
X022305Y013765D01*
X021869Y014094D02*
X021865Y014096D01*
X021008Y014432D02*
X020929Y014550D01*
X020772Y014905D01*
X020693Y015101D01*
X020575Y015230D02*
X020575Y015725D01*
X020654Y015574D02*
X020693Y015849D01*
X020743Y015965D01*
X020516Y016203D02*
X020496Y016283D01*
X020397Y016530D01*
X020257Y016811D02*
X020193Y016919D01*
X019986Y017202D02*
X019929Y017268D01*
X019217Y018487D02*
X019138Y018505D01*
X019058Y018519D01*
X018978Y018530D01*
X018898Y018538D01*
X018817Y018542D01*
X018736Y018543D01*
X018655Y018540D01*
X018574Y018534D01*
X018494Y018524D01*
X017013Y018793D02*
X016974Y018720D01*
X016938Y018645D01*
X016906Y018568D01*
X017485Y017253D02*
X017465Y017227D01*
X017253Y016989D02*
X015330Y016989D01*
X015302Y016911D02*
X017208Y016911D01*
X017163Y016834D02*
X015274Y016834D01*
X015171Y016293D02*
X016958Y016293D01*
X016935Y016216D02*
X015158Y016216D01*
X015144Y016138D02*
X016913Y016138D01*
X016874Y015597D02*
X015097Y015597D01*
X015063Y015211D02*
X016895Y015211D01*
X016902Y015134D02*
X015057Y015134D01*
X019708Y017484D02*
X019766Y017433D01*
X019823Y017380D01*
X019877Y017325D01*
X019929Y017268D01*
X016828Y018372D02*
X016797Y018290D01*
X016770Y018206D01*
X016729Y018067D02*
X016710Y017999D01*
X016693Y017930D01*
X016679Y017860D01*
X016667Y017790D01*
X016658Y017719D01*
X018231Y017826D02*
X018290Y017847D01*
X018351Y017865D01*
X018413Y017879D01*
X018475Y017889D01*
X018538Y017895D01*
X018601Y017897D01*
X018231Y017825D02*
X018173Y017800D01*
X018117Y017772D01*
X018062Y017741D01*
X018009Y017708D01*
X018601Y017897D02*
X018666Y017895D01*
X018730Y017891D01*
X018794Y017883D01*
X018858Y017872D01*
X018921Y017858D01*
X019340Y018413D02*
X019423Y018384D01*
X019503Y018351D01*
X019583Y018314D01*
X019660Y018274D01*
X019736Y018230D01*
X019810Y018183D01*
X019932Y018102D02*
X020003Y018053D01*
X020071Y018001D01*
X020137Y017946D01*
X017916Y018405D02*
X017852Y018379D01*
X017789Y018352D01*
X017727Y018322D01*
X017203Y018033D02*
X017136Y017977D01*
X017072Y017918D01*
X017010Y017856D01*
X016951Y017792D01*
X016895Y017725D01*
X020285Y017815D02*
X020349Y017756D01*
X020411Y017695D01*
X020470Y017630D01*
X020526Y017563D01*
X017793Y017562D02*
X017726Y017506D01*
X017662Y017447D01*
X017600Y017385D01*
X017541Y017321D01*
X017485Y017254D01*
X019458Y017657D02*
X019523Y017618D01*
X019587Y017576D01*
X019648Y017531D01*
X019708Y017484D01*
X017408Y017151D02*
X017368Y017096D01*
X017330Y017040D01*
X017294Y016982D01*
X019986Y017202D02*
X020042Y017135D01*
X020096Y017065D01*
X020146Y016993D01*
X020193Y016918D01*
X017153Y016721D02*
X017121Y016655D01*
X017092Y016588D01*
X017066Y016520D01*
X017042Y016451D01*
X017021Y016382D01*
X018941Y017854D02*
X019012Y017838D01*
X019081Y017820D01*
X019151Y017800D01*
X019219Y017777D01*
X019286Y017751D01*
X020257Y016812D02*
X020297Y016744D01*
X020333Y016674D01*
X020366Y016603D01*
X020397Y016530D01*
X020654Y015574D02*
X020654Y015421D01*
X021188Y017348D02*
X021259Y017347D01*
X021329Y017343D01*
X021399Y017337D01*
X021469Y017328D01*
X023587Y017453D02*
X023626Y017420D01*
X023663Y017384D01*
X023700Y017348D01*
X023202Y017703D02*
X023127Y017724D01*
X023051Y017742D01*
X022974Y017757D01*
X022896Y017768D01*
X022819Y017775D01*
X022740Y017779D01*
X023384Y017578D02*
X023454Y017540D01*
X023522Y017498D01*
X023588Y017454D01*
X023790Y017370D02*
X023729Y017417D01*
X023666Y017462D01*
X023601Y017505D01*
X023534Y017544D01*
X023466Y017580D01*
X023396Y017614D01*
X023873Y017437D02*
X023931Y017401D01*
X023987Y017363D01*
X024042Y017324D01*
X022430Y017739D02*
X022348Y017727D01*
X022267Y017712D01*
X022186Y017694D01*
X022107Y017673D01*
X021994Y017719D02*
X022072Y017737D01*
X022151Y017752D01*
X022231Y017763D01*
X022310Y017771D01*
X022391Y017776D01*
X022471Y017778D01*
X023066Y013898D02*
X022981Y013872D01*
X022895Y013850D01*
X022809Y013831D01*
X022721Y013817D01*
X022606Y013660D02*
X022575Y013651D01*
X022546Y013639D01*
X022517Y013625D01*
X022490Y013609D01*
X022798Y013684D02*
X022838Y013682D01*
X022878Y013677D01*
X022917Y013669D01*
X023503Y013356D02*
X026501Y013356D01*
X026536Y013279D02*
X023593Y013279D01*
X023684Y013202D02*
X026571Y013202D01*
X026606Y013124D02*
X023774Y013124D01*
X022490Y013609D02*
X022448Y013579D01*
X022408Y013546D01*
X022370Y013510D01*
X022917Y013670D02*
X022965Y013656D01*
X023013Y013638D01*
X023059Y013617D01*
X023103Y013593D01*
X022798Y013685D02*
X022750Y013684D01*
X022702Y013679D01*
X022654Y013672D01*
X022607Y013661D01*
X023313Y013466D02*
X023352Y013441D01*
X023390Y013413D01*
X023426Y013383D01*
X023783Y013071D02*
X023821Y013036D01*
X024433Y012429D02*
X026743Y012429D01*
X026776Y012352D02*
X024498Y012352D01*
X024629Y012197D02*
X026894Y012197D01*
X026963Y012120D02*
X024685Y012120D01*
X024661Y012099D02*
X024827Y011834D01*
X025132Y011257D01*
X025154Y011270D02*
X027755Y011270D01*
X027682Y011347D02*
X025112Y011347D01*
X025069Y011424D02*
X027609Y011424D01*
X027536Y011501D02*
X025026Y011501D01*
X024984Y011579D02*
X027464Y011579D01*
X027391Y011656D02*
X024941Y011656D01*
X024898Y011733D02*
X027318Y011733D01*
X027246Y011811D02*
X024856Y011811D01*
X024813Y011888D02*
X027173Y011888D01*
X027102Y011965D02*
X024771Y011965D01*
X024728Y012042D02*
X027033Y012042D01*
X027051Y012286D02*
X027529Y011808D01*
X027640Y011706D02*
X028134Y011283D01*
X028685Y010849D01*
X028951Y010617D01*
X029046Y010528D02*
X029238Y010336D01*
X029383Y010174D02*
X029630Y009865D01*
X029827Y009550D01*
X029857Y009490D01*
X029561Y009492D02*
X028280Y009492D01*
X028142Y009569D02*
X029480Y009569D01*
X029399Y009647D02*
X028004Y009647D01*
X027866Y009724D02*
X029319Y009724D01*
X029238Y009801D02*
X027728Y009801D01*
X027590Y009878D02*
X029157Y009878D01*
X029077Y009956D02*
X025638Y009956D01*
X025613Y010033D02*
X028996Y010033D01*
X028915Y010110D02*
X025588Y010110D01*
X025564Y010188D02*
X028835Y010188D01*
X028758Y010265D02*
X025539Y010265D01*
X025514Y010342D02*
X028681Y010342D01*
X028603Y010419D02*
X025489Y010419D01*
X025464Y010497D02*
X028526Y010497D01*
X028449Y010574D02*
X025439Y010574D01*
X025417Y010574D02*
X025654Y009786D01*
X025793Y009161D01*
X025822Y009183D02*
X027150Y009183D01*
X027150Y009260D02*
X025806Y009260D01*
X025789Y009337D02*
X027150Y009337D01*
X027150Y009415D02*
X025773Y009415D01*
X025756Y009492D02*
X027150Y009492D01*
X027150Y009569D02*
X025739Y009569D01*
X025723Y009647D02*
X027150Y009647D01*
X027154Y009724D02*
X025706Y009724D01*
X025688Y009801D02*
X027173Y009801D01*
X027216Y009878D02*
X025663Y009878D01*
X025417Y010574D02*
X025220Y011067D01*
X025240Y011115D02*
X027908Y011115D01*
X027985Y011038D02*
X025282Y011038D01*
X025314Y010960D02*
X028062Y010960D01*
X028140Y010883D02*
X025339Y010883D01*
X025364Y010806D02*
X028217Y010806D01*
X028294Y010729D02*
X025389Y010729D01*
X025414Y010651D02*
X028371Y010651D01*
X027830Y011192D02*
X025197Y011192D01*
X024661Y012098D02*
X024640Y012131D01*
X024616Y012163D01*
X024591Y012193D01*
X024135Y012719D02*
X024100Y012757D01*
X026808Y012345D02*
X026836Y012307D01*
X026866Y012271D01*
X026808Y012346D02*
X026781Y012390D01*
X026757Y012435D01*
X026736Y012481D01*
X026718Y012529D01*
X026703Y012577D01*
X026692Y012627D01*
X026684Y012677D01*
X026679Y012728D01*
X026677Y012779D01*
X026805Y012586D02*
X026849Y012522D01*
X026896Y012460D01*
X026945Y012400D01*
X026997Y012342D01*
X027051Y012286D01*
X027529Y011808D02*
X027583Y011755D01*
X027640Y011705D01*
X025219Y011067D02*
X025192Y011131D01*
X025163Y011194D01*
X025131Y011257D01*
X022268Y010023D02*
X021874Y009432D01*
X022071Y009038D01*
X022661Y008881D01*
X022661Y008290D01*
X022071Y008133D01*
X021953Y007660D01*
X022228Y007109D01*
X021835Y006716D01*
X021402Y007070D01*
X021205Y006912D01*
X020850Y007936D01*
X020936Y007993D01*
X020996Y008042D01*
X021041Y008088D01*
X021115Y008190D01*
X021153Y008265D01*
X021187Y008256D02*
X022344Y008256D01*
X022622Y008330D02*
X022031Y008172D01*
X021913Y007621D01*
X022189Y007109D01*
X021874Y006755D01*
X021402Y007149D01*
X021244Y006991D01*
X020890Y007936D01*
X021087Y008054D01*
X021244Y008369D01*
X021244Y008802D01*
X021047Y009157D01*
X020693Y009314D01*
X020339Y009275D01*
X020063Y009117D01*
X019866Y008763D01*
X019866Y008448D01*
X020024Y008094D01*
X020260Y007936D01*
X020260Y007857D01*
X019906Y006952D01*
X019709Y007109D01*
X019315Y006794D01*
X018882Y007188D01*
X019236Y007621D01*
X019000Y008172D01*
X018488Y008330D01*
X018488Y008842D01*
X019118Y009078D01*
X019197Y009629D01*
X018921Y010023D01*
X019315Y010416D01*
X019748Y010023D01*
X020260Y010259D01*
X020339Y010849D01*
X020811Y010849D01*
X020929Y010259D01*
X021402Y010023D01*
X021874Y010377D01*
X022228Y010023D01*
X021795Y009432D01*
X022031Y008999D01*
X022622Y008842D01*
X022622Y008330D01*
X022622Y008333D02*
X021226Y008333D01*
X021185Y008348D02*
X021174Y008317D01*
X021244Y008410D02*
X022622Y008410D01*
X022622Y008487D02*
X021244Y008487D01*
X021205Y008472D02*
X021205Y008660D01*
X021244Y008642D02*
X022622Y008642D01*
X022622Y008719D02*
X021244Y008719D01*
X021244Y008796D02*
X022622Y008796D01*
X022501Y008874D02*
X021204Y008874D01*
X021156Y008870D02*
X021110Y008964D01*
X021052Y009052D01*
X021076Y009106D02*
X021973Y009106D01*
X021931Y009183D02*
X020988Y009183D01*
X020942Y009161D02*
X020933Y009167D01*
X020839Y009213D02*
X020795Y009228D01*
X020814Y009260D02*
X021889Y009260D01*
X021847Y009337D02*
X019155Y009337D01*
X019144Y009260D02*
X020313Y009260D01*
X020320Y009216D02*
X020355Y009228D01*
X020402Y009240D01*
X020498Y009259D01*
X020652Y009259D02*
X020748Y009240D01*
X021118Y009028D02*
X022016Y009028D01*
X022211Y008951D02*
X021161Y008951D01*
X021156Y008870D02*
X021185Y008784D01*
X021244Y008565D02*
X022622Y008565D01*
X022054Y008178D02*
X021149Y008178D01*
X021110Y008101D02*
X022016Y008101D01*
X022000Y008024D02*
X021036Y008024D01*
X020907Y007946D02*
X021983Y007946D01*
X021967Y007869D02*
X020915Y007869D01*
X020944Y007792D02*
X021950Y007792D01*
X021933Y007715D02*
X020973Y007715D01*
X021002Y007637D02*
X021917Y007637D01*
X021946Y007560D02*
X021031Y007560D01*
X021060Y007483D02*
X021988Y007483D01*
X022030Y007405D02*
X021089Y007405D01*
X021118Y007328D02*
X022071Y007328D01*
X022113Y007251D02*
X021147Y007251D01*
X021176Y007174D02*
X022154Y007174D01*
X022177Y007096D02*
X021464Y007096D01*
X021349Y007096D02*
X021205Y007096D01*
X021234Y007019D02*
X021272Y007019D01*
X021557Y007019D02*
X022109Y007019D01*
X022040Y006942D02*
X021650Y006942D01*
X021743Y006864D02*
X021971Y006864D01*
X021903Y006787D02*
X021835Y006787D01*
X020113Y007483D02*
X019123Y007483D01*
X019186Y007560D02*
X020144Y007560D01*
X020174Y007637D02*
X019229Y007637D01*
X019197Y007621D02*
X019000Y008133D01*
X018449Y008290D01*
X018449Y008881D01*
X019079Y009078D01*
X019157Y009590D01*
X018882Y010023D01*
X019315Y010456D01*
X019748Y010101D01*
X019866Y010141D01*
X020220Y010298D01*
X020299Y010889D01*
X020850Y010889D01*
X020969Y010298D01*
X021402Y010101D01*
X021874Y010456D01*
X022268Y010023D01*
X022218Y010033D02*
X021415Y010033D01*
X021381Y010033D02*
X019770Y010033D01*
X019737Y010033D02*
X018932Y010033D01*
X018968Y009956D02*
X022179Y009956D01*
X022123Y009878D02*
X019022Y009878D01*
X019076Y009801D02*
X022066Y009801D01*
X022009Y009724D02*
X019130Y009724D01*
X019185Y009647D02*
X021953Y009647D01*
X021896Y009569D02*
X019188Y009569D01*
X019177Y009492D02*
X021839Y009492D01*
X021805Y009415D02*
X019166Y009415D01*
X019133Y009183D02*
X020178Y009183D01*
X020209Y009158D02*
X020147Y009112D01*
X020057Y009106D02*
X019122Y009106D01*
X018986Y009028D02*
X020014Y009028D01*
X020069Y009033D02*
X020016Y008962D01*
X019971Y008951D02*
X018780Y008951D01*
X018574Y008874D02*
X019928Y008874D01*
X019965Y008872D02*
X019934Y008794D01*
X019885Y008796D02*
X018488Y008796D01*
X018488Y008719D02*
X019866Y008719D01*
X019866Y008642D02*
X018488Y008642D01*
X018488Y008565D02*
X019866Y008565D01*
X019906Y008575D02*
X019906Y008648D01*
X019866Y008487D02*
X018488Y008487D01*
X018488Y008410D02*
X019883Y008410D01*
X019931Y008426D02*
X019917Y008480D01*
X019917Y008333D02*
X018488Y008333D01*
X018730Y008256D02*
X019952Y008256D01*
X019975Y008319D02*
X020038Y008214D01*
X019986Y008178D02*
X018981Y008178D01*
X019031Y008101D02*
X020020Y008101D01*
X020097Y008138D02*
X020181Y008054D01*
X020339Y007936D01*
X019945Y006912D01*
X019709Y007070D01*
X019315Y006716D01*
X018843Y007149D01*
X019197Y007621D01*
X019196Y007715D02*
X020204Y007715D01*
X020234Y007792D02*
X019163Y007792D01*
X019130Y007869D02*
X020260Y007869D01*
X020244Y007946D02*
X019097Y007946D01*
X019064Y008024D02*
X020128Y008024D01*
X020097Y008137D02*
X020076Y008161D01*
X020056Y008186D01*
X020038Y008213D01*
X019975Y008318D02*
X019957Y008352D01*
X019942Y008388D01*
X019931Y008425D01*
X019917Y008479D02*
X019910Y008511D01*
X019906Y008543D01*
X019905Y008575D01*
X019905Y008648D02*
X019907Y008685D01*
X019912Y008722D01*
X019921Y008759D01*
X019933Y008794D01*
X019964Y008872D02*
X019978Y008904D01*
X019995Y008934D01*
X020015Y008962D01*
X020069Y009033D02*
X020093Y009062D01*
X020119Y009088D01*
X020148Y009112D01*
X020209Y009158D02*
X020235Y009176D01*
X020262Y009192D01*
X020291Y009206D01*
X020320Y009217D01*
X020498Y009259D02*
X020536Y009265D01*
X020575Y009267D01*
X020614Y009265D01*
X020652Y009259D01*
X020747Y009240D02*
X020771Y009235D01*
X020795Y009228D01*
X020839Y009213D02*
X020872Y009200D01*
X020903Y009185D01*
X020933Y009167D01*
X020943Y009161D02*
X020974Y009138D01*
X021003Y009112D01*
X021029Y009083D01*
X021052Y009052D01*
X021185Y008785D02*
X021194Y008754D01*
X021200Y008723D01*
X021204Y008692D01*
X021205Y008660D01*
X021205Y008472D02*
X021204Y008440D01*
X021200Y008409D01*
X021194Y008378D01*
X021185Y008347D01*
X021175Y008316D02*
X021165Y008290D01*
X021153Y008265D01*
X020083Y007405D02*
X019060Y007405D01*
X018996Y007328D02*
X020053Y007328D01*
X020023Y007251D02*
X018933Y007251D01*
X018898Y007174D02*
X019992Y007174D01*
X019962Y007096D02*
X019725Y007096D01*
X019692Y007096D02*
X018983Y007096D01*
X019068Y007019D02*
X019596Y007019D01*
X019499Y006942D02*
X019153Y006942D01*
X019238Y006864D02*
X019403Y006864D01*
X019822Y007019D02*
X019932Y007019D01*
X015223Y007367D02*
X015221Y007424D01*
X015220Y007482D01*
X015216Y007405D02*
X014357Y007405D01*
X014390Y007328D02*
X015222Y007328D01*
X015224Y007367D02*
X015260Y006755D01*
X014787Y006755D01*
X015024Y006361D01*
X015496Y005653D01*
X015417Y005613D02*
X015058Y005464D01*
X014838Y005356D02*
X014515Y005171D01*
X014283Y005016D02*
X014188Y004942D01*
X013915Y004684D02*
X013894Y004659D01*
X013666Y004340D02*
X013606Y004235D01*
X013488Y003999D01*
X013449Y003756D02*
X013449Y003627D01*
X013449Y003756D02*
X013451Y003805D01*
X013455Y003854D01*
X013463Y003903D01*
X013474Y003951D01*
X013488Y003999D01*
X013960Y002700D02*
X014005Y002679D01*
X014051Y002662D01*
X014099Y002647D01*
X014147Y002636D01*
X014195Y002628D01*
X014245Y002623D01*
X014294Y002621D01*
X013666Y004339D02*
X013707Y004407D01*
X013750Y004473D01*
X013795Y004537D01*
X013843Y004599D01*
X013894Y004659D01*
X013449Y003666D02*
X013451Y003583D01*
X013456Y003500D01*
X013466Y003417D01*
X013479Y003335D01*
X013495Y003254D01*
X013516Y003173D01*
X013540Y003093D01*
X013567Y003015D01*
X013606Y002896D02*
X013577Y002956D01*
X013551Y003017D01*
X013530Y003079D01*
X013512Y003142D01*
X013498Y003207D01*
X013488Y003272D01*
X013915Y004685D02*
X013966Y004740D01*
X014018Y004794D01*
X014073Y004845D01*
X014130Y004895D01*
X014188Y004942D01*
X014838Y005355D02*
X014910Y005394D01*
X014983Y005430D01*
X015057Y005463D01*
X015258Y006787D02*
X014650Y006787D01*
X014604Y006864D02*
X015253Y006864D01*
X015247Y006942D02*
X014557Y006942D01*
X014522Y007019D02*
X015242Y007019D01*
X015237Y007096D02*
X014489Y007096D01*
X014456Y007174D02*
X015232Y007174D01*
X015227Y007251D02*
X014423Y007251D01*
X019009Y010110D02*
X019652Y010110D01*
X019567Y010188D02*
X019086Y010188D01*
X019163Y010265D02*
X019482Y010265D01*
X019397Y010342D02*
X019241Y010342D01*
X019938Y010110D02*
X021226Y010110D01*
X021072Y010188D02*
X020105Y010188D01*
X020261Y010265D02*
X020928Y010265D01*
X020912Y010342D02*
X020271Y010342D01*
X020281Y010419D02*
X020897Y010419D01*
X020882Y010497D02*
X020292Y010497D01*
X020302Y010574D02*
X020866Y010574D01*
X020851Y010651D02*
X020312Y010651D01*
X020322Y010729D02*
X020835Y010729D01*
X020820Y010806D02*
X020333Y010806D01*
X021518Y010110D02*
X022141Y010110D01*
X022063Y010188D02*
X021621Y010188D01*
X021724Y010265D02*
X021986Y010265D01*
X021909Y010342D02*
X021828Y010342D01*
X025792Y009161D02*
X025809Y009078D01*
X025822Y008994D01*
X025839Y009106D02*
X027150Y009106D01*
X028951Y010617D02*
X028999Y010573D01*
X029046Y010528D01*
X029238Y010336D02*
X029288Y010283D01*
X029336Y010229D01*
X029383Y010173D01*
X025868Y008652D02*
X025877Y008570D01*
X025883Y008488D01*
X025885Y008405D01*
X025884Y008322D01*
X025851Y007416D02*
X025848Y007355D01*
X027623Y003532D02*
X027621Y003451D01*
X027616Y003370D01*
X027608Y003289D01*
X027596Y003208D01*
X027415Y004352D02*
X027378Y004417D01*
X027338Y004480D01*
X027297Y004542D01*
X027253Y004602D01*
X027206Y004661D01*
X027158Y004717D01*
X027134Y004746D02*
X027076Y004808D01*
X027016Y004868D01*
X026953Y004925D01*
X026888Y004979D01*
X026820Y005030D01*
X026691Y005124D02*
X026624Y005171D01*
X026556Y005214D01*
X026486Y005255D01*
X026414Y005293D01*
X014515Y005172D02*
X014455Y005136D01*
X014396Y005098D01*
X014339Y005058D01*
X014283Y005016D01*
X020339Y014432D02*
X020346Y014444D01*
X020525Y014834D02*
X020534Y014866D01*
X020542Y014898D01*
X020907Y016270D02*
X020939Y016314D01*
X020973Y016358D01*
X021008Y016399D01*
X021046Y016439D01*
X023805Y014355D02*
X023860Y014411D01*
X023911Y014470D01*
X023961Y014530D01*
X024008Y014593D01*
X024053Y014657D01*
X024095Y014723D01*
X024134Y014791D01*
X024135Y014791D02*
X024158Y014837D01*
X024179Y014884D01*
X024198Y014932D01*
X024213Y014981D01*
X024226Y015031D01*
X024237Y015826D02*
X024222Y015886D01*
X024204Y015944D01*
X024182Y016001D01*
X024158Y016057D01*
X024130Y016112D01*
X024099Y016164D01*
X024058Y016226D01*
X024014Y016286D01*
X023968Y016344D01*
X023920Y016400D01*
X023868Y016453D01*
X023704Y014257D02*
X023640Y014204D01*
X023573Y014154D01*
X023505Y014108D01*
X023434Y014064D01*
X023362Y014023D01*
X023287Y013985D01*
X023211Y013951D01*
X023134Y013920D01*
X023194Y017641D02*
X023096Y017670D01*
X022997Y017697D01*
X022898Y017720D01*
X022797Y017739D01*
X022546Y017070D02*
X022612Y017068D01*
X022678Y017064D01*
X022744Y017056D01*
X022809Y017046D01*
X022874Y017032D01*
X022938Y017016D01*
X023001Y016996D01*
X024237Y015826D02*
X024251Y015757D01*
X024262Y015687D01*
X024270Y015616D01*
X024274Y015546D01*
X024276Y015475D01*
X022546Y017069D02*
X022467Y017067D01*
X022388Y017061D01*
X022310Y017052D01*
X022232Y017038D01*
X022155Y017021D01*
X022079Y017000D01*
X024276Y015475D02*
X024274Y015389D01*
X024268Y015303D01*
X024259Y015217D01*
X024246Y015132D01*
X024229Y015048D01*
X020907Y016270D02*
X020861Y016196D01*
X020818Y016121D01*
X020778Y016044D01*
X020742Y015965D01*
X020653Y015421D02*
X020655Y015356D01*
X020659Y015292D01*
X020667Y015228D01*
X020678Y015164D01*
X020692Y015101D01*
X023001Y016996D02*
X023067Y016973D01*
X023132Y016947D01*
X023196Y016919D01*
X023259Y016889D01*
X023291Y016874D02*
X023369Y016833D01*
X023445Y016788D01*
X023519Y016740D01*
X023591Y016688D01*
X021394Y016717D02*
X021332Y016676D01*
X021271Y016633D01*
X021212Y016588D01*
X021155Y016540D01*
X021099Y016491D01*
X021046Y016439D01*
X016945Y016024D02*
X016931Y015937D01*
X016921Y015849D01*
X016915Y015761D01*
X016913Y015672D01*
X020516Y016203D02*
X020534Y016124D01*
X020549Y016045D01*
X020560Y015966D01*
X020568Y015886D01*
X020573Y015805D01*
X020575Y015725D01*
X016913Y015508D02*
X016915Y015421D01*
X016921Y015334D01*
X016930Y015248D01*
X020346Y014443D02*
X020389Y014518D01*
X020428Y014594D01*
X020464Y014673D01*
X020497Y014752D01*
X020526Y014833D01*
X017541Y013843D02*
X017486Y013899D01*
X017435Y013958D01*
X017385Y014018D01*
X017338Y014081D01*
X017293Y014145D01*
X017251Y014211D01*
X017212Y014279D01*
X020542Y014898D02*
X020554Y014963D01*
X020563Y015030D01*
X020570Y015096D01*
X020574Y015163D01*
X020575Y015230D01*
X017210Y014284D02*
X017171Y014357D01*
X017135Y014432D01*
X017103Y014509D01*
X017084Y014559D02*
X017055Y014635D01*
X017030Y014713D01*
X017007Y014791D01*
X016988Y014870D01*
X016973Y014950D01*
X016960Y015030D01*
D14*
X018925Y013845D02*
X018999Y013919D01*
X018924Y013845D02*
X018904Y013822D01*
X018887Y013798D01*
X018873Y013772D01*
X018862Y013744D01*
X018843Y013620D02*
X018843Y013433D01*
X018863Y013309D02*
X018882Y013251D01*
X019276Y012857D01*
X019551Y012503D01*
X019748Y012227D01*
X019945Y012031D01*
X020260Y011755D01*
X020496Y011637D01*
X020654Y011637D01*
X020811Y011716D01*
X021087Y011952D01*
X021362Y012227D01*
X021677Y012582D01*
X021874Y012818D01*
X022071Y013094D01*
X022228Y013290D01*
X022346Y013487D01*
X022346Y013596D01*
X022386Y013645D02*
X022465Y013704D01*
X022720Y013743D01*
X022957Y013763D01*
X022347Y013596D02*
X022345Y013631D01*
X022341Y013665D01*
X022333Y013698D01*
X022322Y013731D01*
X022308Y013763D01*
X021640Y014203D02*
X021416Y014293D01*
X021307Y014332D02*
X021008Y014432D01*
X020339Y014432D01*
X020065Y014377D01*
X019829Y014315D02*
X019591Y014235D01*
X019488Y014197D01*
X018862Y013745D02*
X018853Y013714D01*
X018847Y013683D01*
X018843Y013652D01*
X018842Y013620D01*
X018842Y013433D02*
X018843Y013401D01*
X018847Y013370D01*
X018853Y013339D01*
X018862Y013308D01*
X018783Y013172D02*
X018665Y013172D01*
X018331Y013271D01*
X017661Y013566D01*
X018783Y013172D02*
X018921Y013074D01*
X019098Y012916D01*
X019374Y012621D01*
X019709Y012188D01*
X019945Y011932D01*
X020201Y011716D01*
X020398Y011578D01*
X020614Y011558D01*
X020811Y011617D01*
X021087Y011814D01*
X021323Y012090D01*
X021461Y012267D01*
X022305Y013765D02*
X022249Y013820D01*
X022190Y013871D01*
X022130Y013921D01*
X022067Y013968D01*
X022003Y014013D01*
X021937Y014055D01*
X021869Y014094D01*
X020870Y014491D02*
X020850Y014511D01*
X020870Y014491D02*
X020654Y014964D01*
X020634Y014944D02*
X020535Y014688D01*
X020417Y014471D01*
X020535Y014491D02*
X020594Y014767D01*
X020614Y014727D02*
X020614Y014491D01*
X020752Y014491D02*
X020614Y014826D01*
X020634Y014944D02*
X020614Y015397D01*
X020614Y015613D02*
X020634Y015987D01*
X020634Y016007D02*
X020516Y016440D01*
X020102Y017208D01*
X019571Y017700D01*
X019374Y017818D01*
X019118Y017877D02*
X018921Y017897D01*
X018783Y017936D01*
X018665Y017936D01*
X019118Y017877D02*
X019906Y017562D01*
X020161Y017857D01*
X020083Y017936D02*
X020004Y017936D01*
X019927Y018026D01*
X019720Y018197D01*
X019545Y018297D01*
X019053Y018478D01*
X018781Y018527D01*
X018469Y018527D01*
X018213Y018507D01*
X017827Y018387D01*
X017638Y018276D01*
X017564Y018226D01*
X017457Y018146D01*
X016795Y017523D01*
X016717Y017385D02*
X017465Y017385D01*
X017445Y017365D01*
X017465Y017385D02*
X017504Y017385D01*
X017110Y017877D02*
X016717Y017385D01*
X019669Y017680D02*
X020358Y017641D01*
X019846Y017542D01*
X020457Y017562D01*
X019945Y017405D01*
X020535Y017444D01*
X020122Y017306D01*
X020654Y017306D01*
X020220Y017149D01*
X024000Y017208D01*
X024020Y016991D01*
X022661Y017129D01*
X021815Y017109D01*
X020161Y017090D01*
X020713Y016086D01*
X021008Y016578D01*
X021500Y016853D01*
X021972Y017011D01*
X022031Y017070D01*
X021953Y017090D01*
X021520Y017031D01*
X021343Y016912D01*
X021087Y016834D01*
X021303Y017011D01*
X020260Y016971D01*
X020752Y016322D01*
X020417Y016952D01*
X020850Y016420D01*
X020535Y016971D01*
X020929Y016538D01*
X020732Y016991D01*
X021028Y016637D01*
X020909Y016991D01*
X021185Y016696D01*
X021205Y016775D01*
X020516Y017385D01*
X020260Y017759D02*
X019669Y017680D01*
X021165Y017247D02*
X023783Y017247D01*
X023803Y017286D02*
X023862Y017346D01*
X023980Y017286D01*
X023803Y017286D02*
X023843Y017405D01*
X023587Y017739D01*
X023075Y017779D01*
X022563Y017798D01*
X022189Y017779D01*
X021815Y017720D01*
X021618Y017601D01*
X021244Y017267D01*
X021224Y017267D01*
X021106Y016578D02*
X020988Y016479D01*
X023035Y017050D02*
X023429Y016932D01*
X023508Y016853D01*
X023783Y016696D01*
X024630Y016696D01*
X024630Y017188D01*
X023567Y017188D01*
X023567Y016893D01*
X023744Y016794D01*
X023744Y017090D01*
X023685Y017090D01*
X023685Y016814D01*
X024571Y016814D01*
X024571Y016952D01*
X023783Y016952D01*
X023783Y017070D01*
X024571Y017070D01*
X019087Y013991D02*
X019057Y013969D01*
X019027Y013945D01*
X018999Y013919D01*
X019087Y013992D02*
X019150Y014033D01*
X019215Y014071D01*
X019281Y014106D01*
X019349Y014139D01*
X019418Y014170D01*
X019488Y014198D01*
X019829Y014314D02*
X019907Y014338D01*
X019986Y014359D01*
X020065Y014377D01*
X021307Y014333D02*
X021362Y014314D01*
X021416Y014293D01*
X021640Y014202D02*
X021716Y014170D01*
X021791Y014134D01*
X021865Y014095D01*
X026618Y012916D02*
X026736Y012818D01*
X026992Y012444D01*
X027543Y011873D01*
X028429Y011145D01*
X029000Y010672D01*
X029276Y010397D01*
X029689Y009905D01*
X029906Y009609D01*
X029984Y009373D01*
X029984Y009117D01*
X026402Y006775D02*
X026343Y006657D01*
X025949Y006046D01*
X025713Y005672D01*
X025732Y005613D02*
X025575Y005653D01*
X025417Y005692D01*
X025220Y005731D01*
X025083Y005751D01*
X024805Y005771D02*
X023880Y005771D01*
X023494Y005732D02*
X023291Y005692D01*
X022740Y005547D01*
X022361Y005404D02*
X022071Y005259D01*
X021874Y005141D01*
X021677Y005023D01*
X021244Y004708D01*
X020732Y004353D01*
X020627Y004275D01*
X020627Y004274D02*
X020606Y004261D01*
X020583Y004250D01*
X020559Y004241D01*
X020534Y004237D01*
X020509Y004235D01*
X020477Y004235D02*
X020454Y004236D01*
X020431Y004240D01*
X020409Y004247D01*
X020388Y004256D01*
X020368Y004268D01*
X020299Y004314D02*
X020102Y004471D01*
X019472Y004944D01*
X019630Y004747D01*
X019687Y004661D01*
X019472Y004944D02*
X019039Y005220D01*
X018724Y005377D01*
X018331Y005534D01*
X018123Y005604D01*
X017824Y005678D02*
X017584Y005718D01*
X017423Y005738D02*
X017113Y005764D01*
X016950Y005771D02*
X016136Y005771D01*
X015664Y005701D02*
X015496Y005653D01*
X015417Y005653D01*
X015398Y005692D02*
X014709Y006755D01*
X015882Y005750D02*
X015945Y005759D01*
X016008Y005766D01*
X016072Y005770D01*
X016136Y005771D01*
X015881Y005750D02*
X015808Y005737D01*
X015736Y005720D01*
X015664Y005701D01*
X016949Y005770D02*
X017031Y005768D01*
X017113Y005763D01*
X017423Y005738D02*
X017503Y005730D01*
X017583Y005718D01*
X017824Y005677D02*
X017899Y005663D01*
X017974Y005646D01*
X018049Y005626D01*
X018122Y005603D01*
X019687Y004661D02*
X019726Y004600D01*
X019763Y004538D01*
X019797Y004475D01*
X019829Y004410D01*
X019859Y004345D01*
X022361Y005403D02*
X022434Y005438D01*
X022509Y005470D01*
X022585Y005498D01*
X022662Y005524D01*
X022740Y005546D01*
X023494Y005733D02*
X023570Y005746D01*
X023647Y005757D01*
X023725Y005765D01*
X023802Y005769D01*
X023880Y005771D01*
X024805Y005771D02*
X024875Y005770D01*
X024945Y005766D01*
X025014Y005760D01*
X025084Y005751D01*
X014413Y012916D02*
X014118Y012562D01*
X013094Y011558D02*
X012465Y011027D01*
X012169Y010731D01*
X011795Y010377D01*
X011559Y010121D01*
X011323Y009786D01*
X011185Y009570D01*
X011126Y009353D01*
D15*
X013094Y011558D02*
X013606Y011991D01*
X013941Y012346D01*
X014118Y012562D01*
D16*
X018272Y017877D02*
X018547Y017936D01*
D17*
X018455Y006434D02*
X018893Y006434D01*
X019216Y006325D02*
X019216Y005886D01*
X019326Y005777D01*
X019545Y005777D01*
X019655Y005886D01*
X019655Y006325D01*
X019545Y006434D01*
X019326Y006434D01*
X019216Y006325D01*
X018674Y006106D02*
X018455Y006106D01*
X018455Y006434D02*
X018455Y005777D01*
X019978Y005886D02*
X020087Y005777D01*
X020306Y005777D01*
X020416Y005886D01*
X020416Y005996D01*
X020306Y006106D01*
X020087Y006106D01*
X019978Y006215D01*
X019978Y006325D01*
X020087Y006434D01*
X020306Y006434D01*
X020416Y006325D01*
X020739Y006434D02*
X021068Y006434D01*
X021177Y006325D01*
X021177Y005886D01*
X021068Y005777D01*
X020739Y005777D01*
X020739Y006434D01*
X021500Y006434D02*
X021500Y005777D01*
X021938Y005777D01*
X022261Y005777D02*
X022261Y006434D01*
X022480Y006215D01*
X022700Y006434D01*
X022700Y005777D01*
X021719Y006106D02*
X021500Y006106D01*
X021500Y006434D02*
X021938Y006434D01*
M02*
