G75*
G70*
%OFA0B0*%
%FSLAX24Y24*%
%IPPOS*%
%LPD*%
%AMOC8*
5,1,8,0,0,1.08239X$1,22.5*
%
%ADD10C,0.0079*%
%ADD11C,0.0000*%
D10*
X013669Y002749D02*
X013528Y002975D01*
X013669Y002748D02*
X013697Y002705D01*
X013729Y002663D01*
X013762Y002624D01*
X013798Y002586D01*
X014643Y002227D02*
X018821Y002227D01*
X019099Y002247D02*
X019236Y002267D01*
X019510Y002321D01*
X019746Y002384D02*
X019984Y002464D01*
X020064Y002493D01*
X021126Y002464D02*
X021480Y002346D01*
X021835Y002267D01*
X022028Y002243D01*
X022272Y002227D02*
X026285Y002227D01*
X026671Y002266D02*
X026697Y002271D01*
X027036Y002387D02*
X027072Y002407D01*
X027107Y002430D01*
X027139Y002456D01*
X027169Y002484D01*
X027415Y002783D02*
X027465Y002857D01*
X027584Y003066D01*
X027584Y003067D02*
X027601Y003100D01*
X027615Y003135D01*
X027626Y003172D01*
X027634Y003209D01*
X027661Y003532D02*
X027661Y003591D01*
X027035Y002386D02*
X026970Y002356D01*
X026904Y002329D01*
X026836Y002306D01*
X026767Y002286D01*
X026697Y002270D01*
X027661Y003591D02*
X027659Y003657D01*
X027654Y003723D01*
X027646Y003789D01*
X027635Y003854D01*
X026671Y002266D02*
X026595Y002252D01*
X026518Y002242D01*
X026440Y002234D01*
X026363Y002230D01*
X026285Y002228D01*
X027454Y004352D02*
X027417Y004417D01*
X027377Y004480D01*
X027336Y004542D01*
X027292Y004602D01*
X027245Y004661D01*
X027197Y004717D01*
X027197Y004718D02*
X027173Y004746D01*
X026859Y005030D02*
X026730Y005124D01*
X026453Y005292D02*
X026306Y005366D01*
X026098Y005455D02*
X025772Y005574D01*
X026175Y006198D01*
X026232Y006290D02*
X026599Y006933D01*
X026733Y007218D02*
X026971Y007855D01*
X027063Y008183D02*
X027150Y008645D01*
X027189Y009038D01*
X027189Y009729D01*
X027242Y009838D02*
X027263Y009851D01*
X027287Y009860D01*
X027311Y009865D01*
X027337Y009867D01*
X027362Y009865D01*
X027486Y009845D02*
X027517Y009835D01*
X027568Y009813D02*
X027858Y009668D01*
X028291Y009432D01*
X028646Y009235D01*
X029197Y008960D01*
X029323Y008909D01*
X029470Y008881D02*
X029724Y008881D01*
X029887Y008901D02*
X029892Y008903D01*
X029919Y008923D01*
X029944Y008946D01*
X029965Y008971D01*
X029984Y008999D01*
X030063Y009275D02*
X030063Y009341D01*
X029887Y008902D02*
X029847Y008892D01*
X029806Y008885D01*
X029765Y008881D01*
X029723Y008881D01*
X029984Y008999D02*
X030006Y009035D01*
X030024Y009072D01*
X030039Y009111D01*
X030051Y009151D01*
X030059Y009192D01*
X030062Y009233D01*
X030063Y009275D01*
X030063Y009342D02*
X030060Y009385D01*
X030053Y009428D01*
X030043Y009471D01*
X030030Y009512D01*
X030014Y009553D01*
X029939Y009697D02*
X029709Y009983D01*
X029394Y010377D01*
X029157Y010613D01*
X028764Y010968D01*
X028331Y011283D01*
X027819Y011716D01*
X027481Y012023D01*
X027303Y012208D02*
X027014Y012548D01*
X026899Y012699D02*
X026729Y012944D01*
X026515Y013347D02*
X026290Y013921D01*
X026214Y014161D02*
X026121Y014529D01*
X026072Y014811D02*
X026057Y014964D01*
X026047Y015160D02*
X026047Y016025D01*
X025981Y016532D02*
X025890Y016873D01*
X025729Y017356D01*
X025645Y017566D02*
X025473Y017934D01*
X025346Y018166D02*
X025160Y018454D01*
X024940Y018736D02*
X024558Y019144D01*
X024376Y019315D02*
X023706Y019868D01*
X023409Y020071D02*
X022858Y020377D01*
X022622Y020495D01*
X022577Y020523D01*
X022531Y020549D01*
X022484Y020573D01*
X022435Y020594D01*
X022386Y020613D01*
X022329Y020636D01*
X022273Y020664D01*
X022219Y020694D01*
X022168Y020728D01*
X022118Y020766D01*
X022071Y020806D01*
X022027Y020849D01*
X021985Y020895D01*
X021947Y020944D01*
X021912Y020995D01*
X021880Y021048D01*
X021851Y021103D01*
X021826Y021159D01*
X021805Y021218D01*
X021787Y021277D01*
X021774Y021337D01*
X021764Y021398D01*
X021758Y021460D01*
X021756Y021522D01*
X021756Y022031D01*
X021754Y022100D01*
X021748Y022168D01*
X021738Y022236D01*
X021724Y022303D01*
X021706Y022370D01*
X021685Y022435D01*
X021659Y022499D01*
X021630Y022561D01*
X021598Y022621D01*
X021562Y022680D01*
X021522Y022736D01*
X021480Y022790D01*
X021434Y022841D01*
X021385Y022890D01*
X021334Y022936D01*
X021280Y022978D01*
X021224Y023018D01*
X021166Y023054D01*
X021105Y023086D01*
X021043Y023115D01*
X020979Y023141D01*
X020914Y023162D01*
X020847Y023180D01*
X020780Y023194D01*
X020712Y023204D01*
X020644Y023210D01*
X020575Y023212D01*
X020506Y023210D01*
X020438Y023204D01*
X020370Y023194D01*
X020303Y023180D01*
X020236Y023162D01*
X020171Y023141D01*
X020107Y023115D01*
X020045Y023086D01*
X019985Y023054D01*
X019926Y023018D01*
X019870Y022978D01*
X019816Y022936D01*
X019765Y022890D01*
X019716Y022841D01*
X019670Y022790D01*
X019628Y022736D01*
X019588Y022680D01*
X019552Y022622D01*
X019520Y022561D01*
X019491Y022499D01*
X019465Y022435D01*
X019444Y022370D01*
X019426Y022303D01*
X019412Y022236D01*
X019402Y022168D01*
X019396Y022100D01*
X019394Y022031D01*
X019394Y021562D01*
X019392Y021499D01*
X019387Y021437D01*
X019377Y021375D01*
X019364Y021314D01*
X019348Y021253D01*
X019328Y021194D01*
X019304Y021136D01*
X019277Y021080D01*
X019247Y021025D01*
X019213Y020972D01*
X019177Y020921D01*
X019137Y020873D01*
X019095Y020826D01*
X019050Y020783D01*
X019002Y020742D01*
X018953Y020704D01*
X018901Y020669D01*
X018847Y020638D01*
X018791Y020609D01*
X018733Y020584D01*
X018412Y020457D02*
X017780Y020141D01*
X017124Y019692D01*
X016947Y019555D02*
X016600Y019255D01*
X016315Y018949D02*
X016155Y018736D01*
X016029Y018547D02*
X015815Y018180D01*
X015807Y018165D02*
X015579Y017767D01*
X015439Y017463D02*
X015339Y017188D01*
X015197Y016708D01*
X015125Y016323D02*
X015063Y015613D01*
X014986Y014810D01*
X014979Y014763D02*
X014793Y013906D01*
X014779Y013857D02*
X014604Y013366D01*
X014571Y013296D02*
X014376Y012972D01*
X014325Y012905D02*
X013724Y012267D01*
X011965Y010663D01*
X011942Y010641D02*
X011617Y010318D01*
X011346Y009961D02*
X011283Y009865D01*
X011182Y009683D01*
X011087Y009323D02*
X011087Y009166D01*
X011296Y008852D02*
X011313Y008845D01*
X011330Y008841D01*
X011349Y008840D01*
X011367Y008842D01*
X011543Y008842D01*
X011651Y008857D02*
X011839Y008910D01*
X011907Y008937D02*
X012189Y009078D01*
X012543Y009275D01*
X012818Y009467D01*
X013067Y009615D02*
X013227Y009695D01*
X013279Y009717D02*
X013583Y009818D01*
X013630Y009831D02*
X013765Y009858D01*
X013842Y009865D02*
X013854Y009863D01*
X013866Y009857D01*
X013874Y009849D01*
X013880Y009837D01*
X013882Y009825D01*
X013882Y009294D01*
X013884Y009255D02*
X013919Y008900D01*
X013925Y008862D02*
X014111Y007932D01*
X014132Y007863D02*
X014433Y007109D01*
X014827Y006401D01*
X015378Y005613D01*
X015019Y005464D01*
X014799Y005356D02*
X014476Y005171D01*
X014244Y005016D02*
X014149Y004942D01*
X013876Y004684D02*
X013854Y004659D01*
X013627Y004340D02*
X013567Y004235D01*
X013449Y003999D01*
X013409Y003756D02*
X013409Y003627D01*
X013410Y003756D02*
X013412Y003805D01*
X013416Y003854D01*
X013424Y003903D01*
X013435Y003951D01*
X013449Y003999D01*
X014158Y002307D02*
X014225Y002286D01*
X014294Y002268D01*
X014363Y002254D01*
X014432Y002243D01*
X014502Y002234D01*
X014573Y002230D01*
X014643Y002228D01*
X013627Y004339D02*
X013668Y004407D01*
X013711Y004473D01*
X013756Y004537D01*
X013804Y004599D01*
X013855Y004659D01*
X013798Y002586D02*
X013853Y002534D01*
X013910Y002483D01*
X013969Y002435D01*
X014030Y002389D01*
X014093Y002346D01*
X014157Y002306D01*
X013875Y004685D02*
X013926Y004740D01*
X013978Y004794D01*
X014033Y004845D01*
X014090Y004895D01*
X014148Y004942D01*
X013409Y003627D02*
X013411Y003544D01*
X013416Y003461D01*
X013426Y003378D01*
X013439Y003296D01*
X013455Y003215D01*
X013476Y003134D01*
X013500Y003054D01*
X013527Y002976D01*
X014243Y005016D02*
X014299Y005058D01*
X014356Y005098D01*
X014415Y005136D01*
X014475Y005172D01*
X014799Y005355D02*
X014871Y005394D01*
X014944Y005430D01*
X015018Y005463D01*
X018821Y002227D02*
X018891Y002228D01*
X018961Y002232D01*
X019030Y002238D01*
X019100Y002247D01*
X020064Y002494D02*
X020131Y002517D01*
X020200Y002537D01*
X020269Y002553D01*
X020339Y002566D01*
X020409Y002575D01*
X020480Y002580D01*
X020551Y002582D01*
X020625Y002580D01*
X020699Y002575D01*
X020772Y002565D01*
X020845Y002552D01*
X020917Y002535D01*
X020988Y002515D01*
X021058Y002491D01*
X021127Y002464D01*
X022028Y002242D02*
X022109Y002234D01*
X022190Y002229D01*
X022272Y002227D01*
X026099Y005455D02*
X026169Y005428D01*
X026239Y005399D01*
X026307Y005366D01*
X027415Y002783D02*
X027371Y002719D01*
X027324Y002657D01*
X027275Y002597D01*
X027223Y002539D01*
X027169Y002483D01*
X027635Y003854D02*
X027618Y003928D01*
X027598Y004002D01*
X027576Y004075D01*
X027550Y004146D01*
X027521Y004217D01*
X027488Y004286D01*
X027453Y004353D01*
X027662Y003532D02*
X027660Y003451D01*
X027655Y003370D01*
X027647Y003289D01*
X027635Y003208D01*
X027174Y004746D02*
X027116Y004808D01*
X027056Y004868D01*
X026993Y004925D01*
X026928Y004979D01*
X026860Y005030D01*
X026730Y005124D02*
X026663Y005171D01*
X026595Y005214D01*
X026525Y005255D01*
X026453Y005293D01*
X026175Y006198D02*
X026204Y006244D01*
X026232Y006291D01*
X026599Y006933D02*
X026636Y007002D01*
X026671Y007073D01*
X026704Y007145D01*
X026733Y007218D01*
X026972Y007855D02*
X027000Y007935D01*
X027025Y008017D01*
X027046Y008100D01*
X027063Y008183D01*
X029939Y009697D02*
X029967Y009651D01*
X029993Y009603D01*
X030015Y009553D01*
X029469Y008881D02*
X029432Y008883D01*
X029395Y008888D01*
X029358Y008897D01*
X029323Y008909D01*
X027568Y009813D02*
X027543Y009825D01*
X027517Y009835D01*
X027241Y009838D02*
X027224Y009820D01*
X027210Y009800D01*
X027199Y009778D01*
X027192Y009754D01*
X027189Y009729D01*
X027361Y009866D02*
X027393Y009865D01*
X027424Y009861D01*
X027455Y009855D01*
X027486Y009846D01*
X027481Y012022D02*
X027418Y012081D01*
X027359Y012143D01*
X027302Y012207D01*
X027015Y012549D02*
X026974Y012598D01*
X026936Y012648D01*
X026899Y012700D01*
X026729Y012943D02*
X026687Y013007D01*
X026647Y013072D01*
X026610Y013139D01*
X026575Y013207D01*
X026544Y013276D01*
X026514Y013346D01*
X026289Y013920D02*
X026260Y013999D01*
X026235Y014079D01*
X026213Y014160D01*
X026121Y014529D02*
X026105Y014599D01*
X026091Y014669D01*
X026080Y014740D01*
X026072Y014811D01*
X026057Y014964D02*
X026051Y015029D01*
X026048Y015095D01*
X026047Y015160D01*
X026048Y016025D02*
X026046Y016110D01*
X026041Y016196D01*
X026031Y016281D01*
X026018Y016365D01*
X026002Y016449D01*
X025982Y016532D01*
X025729Y017357D02*
X025704Y017428D01*
X025676Y017498D01*
X025645Y017567D01*
X025474Y017934D02*
X025435Y018013D01*
X025392Y018090D01*
X025346Y018166D01*
X025159Y018454D02*
X025120Y018514D01*
X025078Y018572D01*
X025034Y018628D01*
X024988Y018683D01*
X024940Y018736D01*
X024558Y019144D02*
X024499Y019204D01*
X024439Y019261D01*
X024375Y019315D01*
X023706Y019867D02*
X023650Y019912D01*
X023592Y019955D01*
X023532Y019996D01*
X023471Y020034D01*
X023409Y020070D01*
X018733Y020583D02*
X018651Y020557D01*
X018570Y020527D01*
X018490Y020493D01*
X018412Y020456D01*
X017125Y019692D02*
X017064Y019649D01*
X017005Y019603D01*
X016947Y019555D01*
X016599Y019256D02*
X016537Y019200D01*
X016477Y019141D01*
X016420Y019079D01*
X016366Y019015D01*
X016314Y018949D01*
X016155Y018736D02*
X016111Y018675D01*
X016069Y018612D01*
X016029Y018547D01*
X015816Y018180D02*
X015807Y018165D01*
X015579Y017767D02*
X015539Y017693D01*
X015502Y017618D01*
X015469Y017541D01*
X015439Y017463D01*
X015197Y016708D02*
X015176Y016632D01*
X015159Y016555D01*
X015144Y016478D01*
X015133Y016401D01*
X015124Y016323D01*
X014987Y014810D02*
X014984Y014786D01*
X014980Y014763D01*
X014793Y013905D02*
X014787Y013881D01*
X014779Y013857D01*
X014604Y013366D02*
X014589Y013331D01*
X014571Y013296D01*
X014377Y012972D02*
X014361Y012949D01*
X014344Y012926D01*
X014326Y012905D01*
X011965Y010663D02*
X011942Y010641D01*
X013583Y009819D02*
X013607Y009826D01*
X013631Y009831D01*
X013765Y009857D02*
X013803Y009863D01*
X013842Y009865D01*
X013278Y009717D02*
X013252Y009707D01*
X013227Y009695D01*
X013882Y009294D02*
X013884Y009255D01*
X013919Y008900D02*
X013925Y008862D01*
X011617Y010318D02*
X011544Y010233D01*
X011475Y010144D01*
X011409Y010054D01*
X011346Y009961D01*
X011099Y009070D02*
X011115Y009036D01*
X011133Y009004D01*
X011155Y008973D01*
X011179Y008944D01*
X011205Y008918D01*
X011233Y008893D01*
X011264Y008872D01*
X011296Y008852D01*
X011098Y009070D02*
X011091Y009102D01*
X011087Y009134D01*
X011086Y009166D01*
X011543Y008841D02*
X011580Y008843D01*
X011616Y008848D01*
X011651Y008856D01*
X011839Y008910D02*
X011874Y008922D01*
X011907Y008937D01*
X011086Y009323D02*
X011087Y009370D01*
X011091Y009417D01*
X011099Y009464D01*
X011109Y009510D01*
X011123Y009555D01*
X011140Y009599D01*
X011159Y009642D01*
X011182Y009684D01*
X012818Y009467D02*
X012878Y009507D01*
X012939Y009546D01*
X013002Y009581D01*
X013066Y009615D01*
X014111Y007932D02*
X014119Y007897D01*
X014131Y007863D01*
X019510Y002322D02*
X019589Y002340D01*
X019668Y002361D01*
X019746Y002385D01*
D11*
X019984Y022031D02*
X019986Y022085D01*
X019994Y022138D01*
X020006Y022190D01*
X020023Y022242D01*
X020044Y022291D01*
X020070Y022338D01*
X020100Y022383D01*
X020134Y022424D01*
X020172Y022463D01*
X020213Y022498D01*
X020257Y022529D01*
X020303Y022556D01*
X020352Y022578D01*
X020403Y022596D01*
X020455Y022610D01*
X020508Y022618D01*
X020562Y022622D01*
X020615Y022621D01*
X020669Y022615D01*
X020721Y022604D01*
X020773Y022588D01*
X020823Y022568D01*
X020870Y022543D01*
X020916Y022514D01*
X020958Y022481D01*
X020998Y022444D01*
X021033Y022404D01*
X021065Y022361D01*
X021093Y022315D01*
X021117Y022266D01*
X021136Y022216D01*
X021151Y022164D01*
X021160Y022111D01*
X021165Y022058D01*
X021165Y022004D01*
X021160Y021951D01*
X021151Y021898D01*
X021136Y021846D01*
X021117Y021796D01*
X021093Y021747D01*
X021065Y021701D01*
X021033Y021658D01*
X020998Y021618D01*
X020958Y021581D01*
X020916Y021548D01*
X020871Y021519D01*
X020823Y021494D01*
X020773Y021474D01*
X020721Y021458D01*
X020669Y021447D01*
X020615Y021441D01*
X020562Y021440D01*
X020508Y021444D01*
X020455Y021452D01*
X020403Y021466D01*
X020352Y021484D01*
X020303Y021506D01*
X020257Y021533D01*
X020213Y021564D01*
X020172Y021599D01*
X020134Y021638D01*
X020100Y021679D01*
X020070Y021724D01*
X020044Y021771D01*
X020023Y021820D01*
X020006Y021872D01*
X019994Y021924D01*
X019986Y021977D01*
X019984Y022031D01*
M02*
