G75*
G70*
%OFA0B0*%
%FSLAX24Y24*%
%IPPOS*%
%LPD*%
%AMOC8*
5,1,8,0,0,1.08239X$1,22.5*
%
%ADD10C,0.0140*%
%ADD11C,0.0600*%
%ADD12C,0.0700*%
%ADD13R,0.0700X0.0700*%
%ADD14R,0.0600X0.0600*%
%ADD15R,0.0520X0.0520*%
%ADD16C,0.0520*%
%ADD17C,0.0515*%
%ADD18C,0.1575*%
%ADD19R,0.0554X0.0554*%
%ADD20C,0.0554*%
%ADD21C,0.0100*%
%ADD22C,0.0500*%
%ADD23C,0.0400*%
%ADD24C,0.0531*%
D10*
X000407Y000547D02*
X000687Y000547D01*
X000780Y000641D01*
X000780Y001014D01*
X000687Y001108D01*
X000407Y001108D01*
X000407Y000547D01*
X001051Y000641D02*
X001145Y000734D01*
X001425Y000734D01*
X001425Y000828D02*
X001425Y000547D01*
X001145Y000547D01*
X001051Y000641D01*
X001145Y000921D02*
X001331Y000921D01*
X001425Y000828D01*
X002340Y000828D02*
X002434Y000921D01*
X002714Y000921D01*
X002620Y000734D02*
X002434Y000734D01*
X002340Y000828D01*
X002340Y000547D02*
X002620Y000547D01*
X002714Y000641D01*
X002620Y000734D01*
X002985Y000734D02*
X003358Y000734D01*
X003358Y000828D01*
X003265Y000921D01*
X003078Y000921D01*
X002985Y000828D01*
X002985Y000641D01*
X003078Y000547D01*
X003265Y000547D01*
X004274Y000828D02*
X004461Y000828D01*
X004367Y001014D02*
X004367Y000547D01*
X004703Y000547D02*
X004890Y000547D01*
X004797Y000547D02*
X004797Y000921D01*
X004703Y000921D01*
X004797Y001108D02*
X004797Y001201D01*
X004461Y001108D02*
X004367Y001014D01*
X005133Y000921D02*
X005507Y000547D01*
X005778Y000547D02*
X005778Y000921D01*
X006058Y000921D01*
X006151Y000828D01*
X006151Y000547D01*
X006422Y000641D02*
X006422Y000828D01*
X006516Y000921D01*
X006702Y000921D01*
X006796Y000828D01*
X006796Y000734D01*
X006422Y000734D01*
X006422Y000641D02*
X006516Y000547D01*
X006702Y000547D01*
X007711Y001108D02*
X008085Y001108D01*
X007898Y001108D02*
X007898Y000547D01*
X008356Y000641D02*
X008356Y000828D01*
X008449Y000921D01*
X008636Y000921D01*
X008729Y000828D01*
X008729Y000641D01*
X008636Y000547D01*
X008449Y000547D01*
X008356Y000641D01*
X009000Y000547D02*
X009281Y000547D01*
X009374Y000641D01*
X009374Y000828D01*
X009281Y000921D01*
X009000Y000921D01*
X009000Y000361D01*
X009645Y000641D02*
X009645Y000734D01*
X009832Y000921D01*
X009832Y001014D01*
X009738Y001108D01*
X009645Y001014D01*
X009645Y000921D01*
X010018Y000547D01*
X009832Y000547D02*
X010018Y000734D01*
X009832Y000547D02*
X009738Y000547D01*
X009645Y000641D01*
X010289Y000547D02*
X010570Y000547D01*
X010663Y000641D01*
X010663Y000734D01*
X010570Y000828D01*
X010289Y000828D01*
X010289Y001108D02*
X010289Y000547D01*
X010570Y000828D02*
X010663Y000921D01*
X010663Y001014D01*
X010570Y001108D01*
X010289Y001108D01*
X010934Y000828D02*
X010934Y000641D01*
X011027Y000547D01*
X011214Y000547D01*
X011308Y000641D01*
X011308Y000828D01*
X011214Y000921D01*
X011027Y000921D01*
X010934Y000828D01*
X011578Y000921D02*
X011765Y000921D01*
X011672Y001014D02*
X011672Y000641D01*
X011765Y000547D01*
X012653Y000547D02*
X012933Y000547D01*
X013026Y000641D01*
X012933Y000734D01*
X012746Y000734D01*
X012653Y000828D01*
X012746Y000921D01*
X013026Y000921D01*
X013297Y000921D02*
X013391Y000921D01*
X013391Y000547D01*
X013484Y000547D02*
X013297Y000547D01*
X013727Y000547D02*
X013914Y000547D01*
X013820Y000547D02*
X013820Y001108D01*
X013727Y001108D01*
X013391Y001108D02*
X013391Y001201D01*
X014157Y001108D02*
X014157Y000547D01*
X014157Y000734D02*
X014437Y000547D01*
X014694Y000641D02*
X014787Y000734D01*
X015067Y000734D01*
X015067Y000828D02*
X015067Y000547D01*
X014787Y000547D01*
X014694Y000641D01*
X014787Y000921D02*
X014974Y000921D01*
X015067Y000828D01*
X014437Y000921D02*
X014157Y000734D01*
X015983Y000734D02*
X016263Y000921D01*
X015983Y000734D02*
X016263Y000547D01*
X016520Y000641D02*
X016613Y000734D01*
X016893Y000734D01*
X016893Y000828D02*
X016893Y000547D01*
X016613Y000547D01*
X016520Y000641D01*
X016613Y000921D02*
X016800Y000921D01*
X016893Y000828D01*
X017164Y000921D02*
X017351Y000921D01*
X017258Y001014D02*
X017258Y000641D01*
X017351Y000547D01*
X017594Y000641D02*
X017687Y000547D01*
X017874Y000547D01*
X017968Y000641D01*
X017968Y000828D01*
X017874Y000921D01*
X017687Y000921D01*
X017594Y000828D01*
X017594Y000641D01*
X018883Y000547D02*
X019163Y000547D01*
X019257Y000641D01*
X019163Y000734D01*
X018976Y000734D01*
X018883Y000828D01*
X018976Y000921D01*
X019257Y000921D01*
X019528Y000828D02*
X019528Y000641D01*
X019621Y000547D01*
X019808Y000547D01*
X019901Y000734D02*
X019528Y000734D01*
X019528Y000828D02*
X019621Y000921D01*
X019808Y000921D01*
X019901Y000828D01*
X019901Y000734D01*
X020817Y000547D02*
X021003Y000547D01*
X020910Y000547D02*
X020910Y000921D01*
X020817Y000921D01*
X020910Y001108D02*
X020910Y001201D01*
X021246Y000921D02*
X021620Y000921D01*
X021246Y000547D01*
X021620Y000547D01*
X021891Y000547D02*
X022171Y000547D01*
X022264Y000641D01*
X022264Y000828D01*
X022171Y000921D01*
X021891Y000921D01*
X021891Y000361D01*
X022535Y000641D02*
X022629Y000547D01*
X022816Y000547D01*
X022909Y000641D01*
X022909Y000828D01*
X022816Y000921D01*
X022629Y000921D01*
X022535Y000828D01*
X022535Y000641D01*
X023180Y000547D02*
X023367Y000547D01*
X023273Y000547D02*
X023273Y001108D01*
X023180Y001108D01*
X023610Y000921D02*
X023983Y000921D01*
X023610Y000547D01*
X023983Y000547D01*
X024441Y000547D02*
X024254Y000921D01*
X024628Y000921D02*
X024441Y000547D01*
X024899Y000641D02*
X024992Y000734D01*
X025272Y000734D01*
X025272Y000828D02*
X025272Y000547D01*
X024992Y000547D01*
X024899Y000641D01*
X024992Y000921D02*
X025179Y000921D01*
X025272Y000828D01*
X025543Y000921D02*
X025730Y000921D01*
X025637Y001014D02*
X025637Y000641D01*
X025730Y000547D01*
X026617Y000547D02*
X026617Y000921D01*
X026711Y000921D01*
X026804Y000828D01*
X026898Y000921D01*
X026991Y000828D01*
X026991Y000547D01*
X026804Y000547D02*
X026804Y000828D01*
X027262Y000641D02*
X027355Y000734D01*
X027636Y000734D01*
X027636Y000828D02*
X027636Y000547D01*
X027355Y000547D01*
X027262Y000641D01*
X027355Y000921D02*
X027542Y000921D01*
X027636Y000828D01*
X027906Y000828D02*
X028000Y000921D01*
X028280Y000921D01*
X028187Y000734D02*
X028000Y000734D01*
X027906Y000828D01*
X027906Y000547D02*
X028187Y000547D01*
X028280Y000641D01*
X028187Y000734D01*
X028551Y000734D02*
X028831Y000547D01*
X029088Y000547D02*
X029275Y000547D01*
X029181Y000547D02*
X029181Y000921D01*
X029088Y000921D01*
X029181Y001108D02*
X029181Y001201D01*
X029518Y000921D02*
X029705Y000921D01*
X029611Y001014D02*
X029611Y000641D01*
X029705Y000547D01*
X029947Y000641D02*
X029947Y000828D01*
X030041Y000921D01*
X030228Y000921D01*
X030321Y000828D01*
X030321Y000734D01*
X029947Y000734D01*
X029947Y000641D02*
X030041Y000547D01*
X030228Y000547D01*
X031236Y000547D02*
X031610Y000547D01*
X031881Y000641D02*
X031974Y000734D01*
X032255Y000734D01*
X032255Y000828D02*
X032255Y000547D01*
X031974Y000547D01*
X031881Y000641D01*
X031974Y000921D02*
X032161Y000921D01*
X032255Y000828D01*
X031610Y000921D02*
X031236Y000547D01*
X031236Y000921D02*
X031610Y000921D01*
X033170Y000828D02*
X033170Y000641D01*
X033263Y000547D01*
X033450Y000547D01*
X033544Y000641D01*
X033544Y000828D01*
X033450Y000921D01*
X033263Y000921D01*
X033170Y000828D01*
X033815Y000921D02*
X034095Y000921D01*
X034188Y000828D01*
X034188Y000641D01*
X034095Y000547D01*
X033815Y000547D01*
X033815Y000361D02*
X033815Y000921D01*
X034459Y000828D02*
X034459Y000641D01*
X034552Y000547D01*
X034739Y000547D01*
X034833Y000641D01*
X034833Y000828D01*
X034739Y000921D01*
X034552Y000921D01*
X034459Y000828D01*
X035104Y000921D02*
X035104Y000547D01*
X035104Y000734D02*
X035290Y000921D01*
X035384Y000921D01*
X035641Y000921D02*
X035641Y000547D01*
X036014Y000547D02*
X036014Y000828D01*
X035921Y000921D01*
X035641Y000921D01*
X036285Y000921D02*
X036379Y000921D01*
X036379Y000547D01*
X036472Y000547D02*
X036285Y000547D01*
X036379Y001108D02*
X036379Y001201D01*
X037359Y000828D02*
X037453Y000921D01*
X037733Y000921D01*
X037640Y000734D02*
X037453Y000734D01*
X037359Y000828D01*
X037359Y000547D02*
X037640Y000547D01*
X037733Y000641D01*
X037640Y000734D01*
X038004Y000547D02*
X038191Y000547D01*
X038097Y000547D02*
X038097Y001108D01*
X038004Y001108D01*
X038434Y000828D02*
X038434Y000641D01*
X038527Y000547D01*
X038714Y000547D01*
X038807Y000641D01*
X038807Y000828D01*
X038714Y000921D01*
X038527Y000921D01*
X038434Y000828D01*
X039078Y000828D02*
X039078Y000641D01*
X039172Y000547D01*
X039358Y000547D01*
X039452Y000734D02*
X039078Y000734D01*
X039078Y000828D02*
X039172Y000921D01*
X039358Y000921D01*
X039452Y000828D01*
X039452Y000734D01*
X039723Y000921D02*
X039910Y000547D01*
X040096Y000921D01*
X040367Y000828D02*
X040461Y000921D01*
X040647Y000921D01*
X040741Y000828D01*
X040741Y000734D01*
X040367Y000734D01*
X040367Y000641D02*
X040367Y000828D01*
X040367Y000641D02*
X040461Y000547D01*
X040647Y000547D01*
X028831Y000921D02*
X028551Y000734D01*
X028551Y000547D02*
X028551Y001108D01*
X015983Y001108D02*
X015983Y000547D01*
X005507Y000921D02*
X005133Y000547D01*
D11*
X015687Y007077D03*
X017687Y006177D03*
X016687Y009077D03*
X019087Y010477D03*
X019087Y011477D03*
X019087Y012477D03*
X018137Y012377D03*
X017137Y012377D03*
X019087Y013477D03*
X018087Y014427D03*
X018087Y016427D03*
X023337Y016427D03*
X023337Y014427D03*
X022987Y012477D03*
X023787Y012477D03*
X022087Y012477D03*
X022087Y011477D03*
X022087Y010477D03*
X022987Y010477D03*
X023787Y010477D03*
X023487Y009477D03*
X023487Y008677D03*
X025487Y008677D03*
X025487Y009477D03*
D12*
X022587Y015477D03*
X018837Y015477D03*
D13*
X019837Y015477D03*
X021587Y015477D03*
X024087Y003477D03*
X025087Y003477D03*
X026087Y003477D03*
X027087Y003477D03*
X017087Y003477D03*
X016087Y003477D03*
X015087Y003477D03*
X014087Y003477D03*
D14*
X015687Y006177D03*
X016687Y007077D03*
X015687Y009077D03*
X022087Y013477D03*
D15*
X017937Y010777D03*
D16*
X017137Y010777D03*
D17*
X020094Y009036D03*
X020094Y008249D03*
X021079Y008249D03*
X021079Y009036D03*
D18*
X022987Y007277D03*
X018187Y007277D03*
D19*
X024637Y007321D03*
D20*
X024637Y006534D03*
D21*
X024598Y006563D02*
X023740Y006563D01*
X023838Y006662D02*
X024119Y006662D01*
X024109Y006639D02*
X024109Y006572D01*
X024598Y006572D01*
X024598Y006495D01*
X024109Y006495D01*
X024109Y006429D01*
X024190Y006235D01*
X024337Y006087D01*
X018427Y006087D01*
X018274Y006240D01*
X018393Y006240D01*
X018774Y006398D01*
X019066Y006690D01*
X019224Y007071D01*
X019224Y007227D01*
X018237Y007227D01*
X018237Y007327D01*
X019224Y007327D01*
X019224Y007484D01*
X019066Y007865D01*
X018774Y008157D01*
X018393Y008315D01*
X018237Y008315D01*
X018237Y007328D01*
X018137Y007328D01*
X018137Y008315D01*
X017980Y008315D01*
X017599Y008157D01*
X017307Y007865D01*
X017157Y007504D01*
X017074Y007587D01*
X016300Y007587D01*
X016177Y007464D01*
X016177Y007227D01*
X016119Y007366D01*
X015975Y007510D01*
X015788Y007587D01*
X015585Y007587D01*
X015398Y007510D01*
X015254Y007366D01*
X015177Y007179D01*
X015177Y006976D01*
X015254Y006789D01*
X015355Y006687D01*
X015300Y006687D01*
X015177Y006564D01*
X015177Y006336D01*
X015038Y006533D01*
X014659Y007217D01*
X014363Y007956D01*
X014359Y007968D01*
X014356Y007981D01*
X014349Y008012D01*
X014335Y008082D01*
X014190Y008810D01*
X014170Y008911D01*
X014168Y008918D01*
X014167Y008925D01*
X014157Y009028D01*
X014142Y009177D01*
X014142Y009177D01*
X014132Y009280D01*
X014131Y009287D01*
X014131Y009294D01*
X014131Y009722D01*
X014131Y009825D01*
X014131Y009826D01*
X014131Y009929D01*
X014104Y009956D01*
X014103Y009958D01*
X014103Y009958D01*
X014049Y010032D01*
X014049Y010032D01*
X013975Y010086D01*
X013973Y010087D01*
X013945Y010115D01*
X013842Y010115D01*
X013837Y010115D01*
X013739Y010115D01*
X013729Y010105D01*
X013691Y010097D01*
X013683Y010095D01*
X013683Y010095D01*
X013581Y010075D01*
X013543Y010067D01*
X013543Y010067D01*
X013542Y010067D01*
X013507Y010060D01*
X013500Y010053D01*
X013445Y010035D01*
X013298Y009986D01*
X013298Y009986D01*
X013200Y009953D01*
X013184Y009948D01*
X013174Y009945D01*
X013168Y009945D01*
X013156Y009939D01*
X013144Y009934D01*
X013140Y009930D01*
X013115Y009918D01*
X013048Y009884D01*
X013048Y009884D01*
X012955Y009838D01*
X012940Y009830D01*
X012919Y009820D01*
X012882Y009802D01*
X012742Y009718D01*
X012740Y009716D01*
X012411Y009486D01*
X012072Y009298D01*
X011888Y009206D01*
X011888Y009206D01*
X011795Y009160D01*
X011783Y009154D01*
X011771Y009150D01*
X011740Y009141D01*
X011671Y009122D01*
X011671Y009122D01*
X011608Y009104D01*
X011583Y009096D01*
X011573Y009094D01*
X011553Y009091D01*
X011543Y009091D01*
X011445Y009091D01*
X011425Y009105D01*
X011418Y009091D01*
X011386Y009091D01*
X011375Y009100D01*
X011353Y009124D01*
X011337Y009148D01*
X011336Y009157D01*
X011336Y009166D01*
X011336Y009221D01*
X011337Y009223D01*
X011336Y009326D01*
X011337Y009366D01*
X011351Y009446D01*
X011379Y009521D01*
X011396Y009556D01*
X011398Y009559D01*
X011449Y009646D01*
X011449Y009649D01*
X011497Y009736D01*
X011498Y009738D01*
X011499Y009738D01*
X011555Y009824D01*
X011613Y009910D01*
X011738Y010075D01*
X011801Y010149D01*
X012048Y010395D01*
X012054Y010395D01*
X012121Y010468D01*
X012133Y010480D01*
X012209Y010549D01*
X013821Y012017D01*
X013828Y012017D01*
X013903Y012093D01*
X013974Y012163D01*
X013974Y012168D01*
X014444Y012668D01*
X014507Y012734D01*
X014554Y012785D01*
X014575Y012806D01*
X014575Y012818D01*
X014590Y012844D01*
X014643Y012933D01*
X014731Y013079D01*
X014731Y013079D01*
X014749Y013110D01*
X014820Y013227D01*
X014820Y013230D01*
X014835Y013272D01*
X014838Y013283D01*
X014873Y013380D01*
X014979Y013676D01*
X014979Y013677D01*
X015014Y013774D01*
X015021Y013781D01*
X015028Y013812D01*
X015028Y013814D01*
X015028Y013815D01*
X015036Y013853D01*
X015058Y013954D01*
X017897Y013954D01*
X017985Y013917D02*
X017996Y013917D01*
X018604Y013309D01*
X018654Y013189D01*
X018798Y013045D01*
X018961Y012977D01*
X018798Y012910D01*
X018654Y012766D01*
X018613Y012666D01*
X018603Y012689D01*
X018448Y012844D01*
X018246Y012927D01*
X018172Y012927D01*
X018172Y012413D01*
X018102Y012413D01*
X018102Y012927D01*
X018027Y012927D01*
X017825Y012844D01*
X017670Y012689D01*
X017615Y012555D01*
X017569Y012666D01*
X017425Y012810D01*
X017238Y012887D01*
X017035Y012887D01*
X016848Y012810D01*
X016704Y012666D01*
X016627Y012479D01*
X016627Y012276D01*
X016704Y012089D01*
X016848Y011945D01*
X017035Y011867D01*
X017238Y011867D01*
X017425Y011945D01*
X017569Y012089D01*
X017615Y012200D01*
X017670Y012066D01*
X017825Y011911D01*
X018027Y011827D01*
X018102Y011827D01*
X018102Y012342D01*
X018172Y012342D01*
X018172Y011827D01*
X018246Y011827D01*
X018448Y011911D01*
X018603Y012066D01*
X018654Y012189D01*
X018654Y012189D01*
X018798Y012045D01*
X018961Y011977D01*
X018798Y011910D01*
X018654Y011766D01*
X018577Y011579D01*
X018577Y011376D01*
X018654Y011189D01*
X018798Y011045D01*
X018961Y010977D01*
X018798Y010910D01*
X018654Y010766D01*
X018577Y010579D01*
X018577Y010376D01*
X018654Y010189D01*
X018798Y010045D01*
X018985Y009967D01*
X019188Y009967D01*
X019375Y010045D01*
X019519Y010189D01*
X019597Y010376D01*
X019597Y010579D01*
X019519Y010766D01*
X019375Y010910D01*
X019212Y010977D01*
X019375Y011045D01*
X019519Y011189D01*
X019597Y011376D01*
X019597Y011408D01*
X020856Y012667D01*
X021097Y012908D01*
X021097Y013608D01*
X021506Y014017D01*
X023025Y014017D01*
X023048Y013995D01*
X023235Y013917D01*
X023438Y013917D01*
X023625Y013995D01*
X023769Y014139D01*
X023847Y014326D01*
X023847Y014529D01*
X023769Y014716D01*
X023625Y014860D01*
X023438Y014937D01*
X023235Y014937D01*
X023048Y014860D01*
X023025Y014837D01*
X021167Y014837D01*
X020927Y014597D01*
X020277Y013947D01*
X020277Y013608D01*
X020277Y013247D01*
X019597Y012567D01*
X019597Y012579D01*
X019519Y012766D01*
X019375Y012910D01*
X019212Y012977D01*
X019375Y013045D01*
X019519Y013189D01*
X019597Y013376D01*
X019597Y013579D01*
X019519Y013766D01*
X019375Y013910D01*
X019255Y013960D01*
X018534Y014681D01*
X018519Y014716D01*
X018375Y014860D01*
X018340Y014874D01*
X018327Y014887D01*
X018309Y014887D01*
X018188Y014937D01*
X017985Y014937D01*
X017798Y014860D01*
X017654Y014716D01*
X017577Y014529D01*
X017577Y014326D01*
X017654Y014139D01*
X017798Y013995D01*
X017985Y013917D01*
X018058Y013856D02*
X015037Y013856D01*
X015058Y013954D02*
X015058Y013954D01*
X015201Y014609D01*
X015218Y014689D01*
X015226Y014697D01*
X015231Y014748D01*
X015235Y014787D01*
X015238Y014823D01*
X015303Y015500D01*
X015304Y015501D01*
X015311Y015590D01*
X015312Y015601D01*
X015312Y015603D01*
X015364Y016198D01*
X015364Y016198D01*
X015370Y016262D01*
X015373Y016301D01*
X015383Y016386D01*
X015414Y016554D01*
X015436Y016637D01*
X015466Y016736D01*
X015576Y017110D01*
X015638Y017281D01*
X015673Y017378D01*
X015699Y017446D01*
X015761Y017579D01*
X015796Y017643D01*
X015847Y017733D01*
X016009Y018016D01*
X016023Y018041D01*
X016027Y018047D01*
X016027Y018048D01*
X016037Y018066D01*
X016083Y018143D01*
X016083Y018143D01*
X016193Y018332D01*
X016226Y018390D01*
X016245Y018421D01*
X016297Y018505D01*
X016354Y018586D01*
X016514Y018799D01*
X016571Y018871D01*
X016696Y019005D01*
X016763Y019067D01*
X016841Y019134D01*
X016841Y019134D01*
X017032Y019299D01*
X017085Y019346D01*
X017110Y019367D01*
X017186Y019429D01*
X017265Y019487D01*
X017350Y019545D01*
X017906Y019925D01*
X018431Y020188D01*
X018431Y020188D01*
X018523Y020234D01*
X018592Y020266D01*
X018722Y020318D01*
X018730Y020314D01*
X018815Y020348D01*
X018903Y020374D01*
X018909Y020386D01*
X018916Y020389D01*
X019083Y020487D01*
X019083Y020487D01*
X019234Y020609D01*
X019365Y020752D01*
X019474Y020912D01*
X019474Y020912D01*
X019558Y021087D01*
X019614Y021273D01*
X019642Y021457D01*
X019643Y021458D01*
X019643Y021927D01*
X019643Y021944D01*
X019643Y022031D01*
X019645Y022097D01*
X019664Y022229D01*
X019702Y022356D01*
X019757Y022477D01*
X019829Y022589D01*
X019916Y022689D01*
X020016Y022776D01*
X020128Y022848D01*
X020249Y022904D01*
X020377Y022941D01*
X020508Y022960D01*
X020575Y022962D01*
X020641Y022960D01*
X020773Y022941D01*
X020900Y022904D01*
X021021Y022848D01*
X021133Y022776D01*
X021234Y022689D01*
X021321Y022589D01*
X021393Y022477D01*
X021448Y022356D01*
X021485Y022229D01*
X021504Y022097D01*
X021507Y022031D01*
X021507Y021625D01*
X021507Y021522D01*
X021507Y021430D01*
X021507Y021430D01*
X021507Y021419D01*
X021508Y021417D01*
X021534Y021247D01*
X021534Y021246D01*
X021535Y021246D02*
X020773Y021246D01*
X020734Y021230D02*
X021028Y021352D01*
X021253Y021577D01*
X021375Y021871D01*
X021375Y022190D01*
X021253Y022484D01*
X021028Y022709D01*
X020734Y022831D01*
X020416Y022831D01*
X020121Y022709D01*
X019896Y022484D01*
X019774Y022190D01*
X019774Y021871D01*
X019896Y021577D01*
X020121Y021352D01*
X020416Y021230D01*
X020734Y021230D01*
X021011Y021345D02*
X021519Y021345D01*
X021507Y021443D02*
X021120Y021443D01*
X021218Y021542D02*
X021507Y021542D01*
X021507Y021640D02*
X021280Y021640D01*
X021320Y021739D02*
X021507Y021739D01*
X021507Y021838D02*
X021361Y021838D01*
X021375Y021936D02*
X021507Y021936D01*
X021506Y022035D02*
X021375Y022035D01*
X021375Y022133D02*
X021499Y022133D01*
X021484Y022232D02*
X021358Y022232D01*
X021317Y022330D02*
X021455Y022330D01*
X021415Y022429D02*
X021276Y022429D01*
X021210Y022527D02*
X021360Y022527D01*
X021289Y022626D02*
X021112Y022626D01*
X021193Y022724D02*
X020991Y022724D01*
X021061Y022823D02*
X020754Y022823D01*
X020839Y022921D02*
X020310Y022921D01*
X020249Y022904D02*
X020249Y022904D01*
X020396Y022823D02*
X020089Y022823D01*
X020158Y022724D02*
X019956Y022724D01*
X020038Y022626D02*
X019861Y022626D01*
X019789Y022527D02*
X019939Y022527D01*
X019873Y022429D02*
X019735Y022429D01*
X019694Y022330D02*
X019832Y022330D01*
X019792Y022232D02*
X019665Y022232D01*
X019651Y022133D02*
X019774Y022133D01*
X019774Y022035D02*
X019643Y022035D01*
X019643Y021936D02*
X019774Y021936D01*
X019788Y021838D02*
X019643Y021838D01*
X019643Y021739D02*
X019829Y021739D01*
X019870Y021640D02*
X019643Y021640D01*
X019643Y021542D02*
X019931Y021542D01*
X020030Y021443D02*
X019640Y021443D01*
X019625Y021345D02*
X020138Y021345D01*
X020376Y021246D02*
X019606Y021246D01*
X019614Y021273D02*
X019614Y021273D01*
X019576Y021148D02*
X021565Y021148D01*
X021590Y021070D02*
X021590Y021070D01*
X021534Y021246D01*
X021590Y021070D02*
X021671Y020903D01*
X021777Y020751D01*
X021904Y020617D01*
X022050Y020503D01*
X022204Y020417D01*
X022206Y020412D01*
X022301Y020379D01*
X022308Y020376D01*
X022350Y020360D01*
X022440Y020315D01*
X022465Y020299D01*
X022474Y020290D01*
X022496Y020279D01*
X022569Y020230D01*
X022587Y020234D01*
X022742Y020156D01*
X023197Y019903D01*
X023288Y019853D01*
X023356Y019813D01*
X023486Y019725D01*
X023548Y019676D01*
X023627Y019610D01*
X023627Y019610D01*
X024137Y019189D01*
X024217Y019123D01*
X024259Y019087D01*
X024338Y019013D01*
X024376Y018973D01*
X024447Y018898D01*
X024688Y018641D01*
X024758Y018566D01*
X024810Y018507D01*
X024907Y018384D01*
X024950Y018320D01*
X025006Y018233D01*
X025080Y018118D01*
X025080Y018118D01*
X025136Y018031D01*
X025166Y017982D01*
X025222Y017880D01*
X025247Y017828D01*
X025258Y017805D01*
X025375Y017554D01*
X025419Y017461D01*
X025458Y017370D01*
X025492Y017277D01*
X025525Y017179D01*
X025651Y016801D01*
X025713Y016567D01*
X025740Y016467D01*
X025758Y016395D01*
X025783Y016248D01*
X025796Y016099D01*
X025798Y016025D01*
X025798Y015264D01*
X025798Y015196D01*
X025798Y015057D01*
X025798Y015050D01*
X025798Y015050D01*
X025809Y014940D01*
X025814Y014889D01*
X025815Y014878D01*
X025819Y014837D01*
X025819Y014837D01*
X025822Y014811D01*
X025833Y014697D01*
X025834Y014697D01*
X025860Y014547D01*
X025872Y014499D01*
X025872Y014499D01*
X025875Y014487D01*
X025879Y014469D01*
X025904Y014369D01*
X025905Y014369D01*
X025962Y014138D01*
X025972Y014100D01*
X025974Y014090D01*
X025988Y014033D01*
X025988Y014033D01*
X025989Y014031D01*
X026032Y013896D01*
X026058Y013830D01*
X026095Y013734D01*
X026096Y013734D01*
X026245Y013352D01*
X026245Y013352D01*
X026282Y013256D01*
X026329Y013136D01*
X026451Y012908D01*
X026524Y012802D01*
X026583Y012717D01*
X026583Y012717D01*
X026660Y012605D01*
X026693Y012558D01*
X026755Y012469D01*
X026765Y012457D01*
X026765Y012457D01*
X026824Y012387D01*
X026890Y012309D01*
X027046Y012125D01*
X027112Y012047D01*
X027159Y011991D01*
X027260Y011887D01*
X027313Y011838D01*
X027390Y011769D01*
X027647Y011535D01*
X027650Y011532D01*
X027654Y011528D01*
X027722Y011466D01*
X027728Y011466D01*
X028162Y011099D01*
X028168Y011092D01*
X028177Y011086D01*
X028239Y011033D01*
X028250Y011033D01*
X028607Y010774D01*
X028986Y010432D01*
X029208Y010210D01*
X029459Y009896D01*
X029459Y009895D01*
X029511Y009831D01*
X029523Y009817D01*
X029523Y009816D01*
X029736Y009552D01*
X029746Y009535D01*
X029769Y009491D01*
X029785Y009457D01*
X029791Y009440D01*
X029798Y009424D01*
X029810Y009368D01*
X029809Y009367D01*
X029814Y009269D01*
X029814Y009242D01*
X029806Y009199D01*
X029792Y009165D01*
X029773Y009133D01*
X029773Y009132D01*
X029756Y009130D01*
X029728Y009130D01*
X029630Y009134D01*
X029626Y009130D01*
X029573Y009130D01*
X029551Y009130D01*
X029469Y009130D01*
X029456Y009131D01*
X029429Y009136D01*
X029416Y009141D01*
X029320Y009179D01*
X029299Y009187D01*
X028762Y009456D01*
X028443Y009633D01*
X028442Y009634D01*
X028413Y009649D01*
X028356Y009681D01*
X028355Y009681D01*
X028009Y009870D01*
X028006Y009873D01*
X027974Y009889D01*
X027922Y009918D01*
X027917Y009918D01*
X027739Y010007D01*
X027680Y010036D01*
X027665Y010044D01*
X027663Y010049D01*
X027651Y010053D01*
X027639Y010057D01*
X027627Y010063D01*
X027621Y010063D01*
X027576Y010078D01*
X027498Y010104D01*
X027493Y010101D01*
X027413Y010114D01*
X027413Y010114D01*
X027383Y010114D01*
X027351Y010120D01*
X027289Y010115D01*
X027258Y010115D01*
X027255Y010112D01*
X027244Y010111D01*
X027243Y010111D02*
X027189Y010091D01*
X027150Y010093D01*
X027085Y010034D01*
X027013Y009983D01*
X027006Y009945D01*
X026976Y009898D01*
X026976Y009898D01*
X026962Y009855D01*
X026940Y009833D01*
X026940Y009736D01*
X026934Y009639D01*
X026940Y009634D01*
X026940Y009051D01*
X026903Y008680D01*
X026837Y008330D01*
X026818Y008229D01*
X026803Y008156D01*
X026763Y008012D01*
X026738Y007942D01*
X026702Y007845D01*
X026536Y007402D01*
X026535Y007402D01*
X026499Y007306D01*
X026474Y007242D01*
X026415Y007117D01*
X026382Y007056D01*
X025747Y007056D01*
X025747Y006957D02*
X026326Y006957D01*
X026331Y006966D02*
X026066Y006504D01*
X026015Y006414D01*
X025991Y006373D01*
X025966Y006333D01*
X025930Y006278D01*
X025747Y005994D01*
X025747Y006368D01*
X025747Y007268D01*
X025477Y007537D01*
X025233Y007781D01*
X025028Y007781D01*
X025001Y007808D01*
X024272Y007808D01*
X024149Y007685D01*
X024149Y006957D01*
X024232Y006874D01*
X024190Y006832D01*
X024109Y006639D01*
X024160Y006760D02*
X023895Y006760D01*
X023866Y006690D02*
X024024Y007071D01*
X024024Y007227D01*
X023037Y007227D01*
X023037Y007327D01*
X024024Y007327D01*
X024024Y007484D01*
X023866Y007865D01*
X023574Y008157D01*
X023549Y008167D01*
X023588Y008167D01*
X023775Y008245D01*
X023919Y008389D01*
X023997Y008576D01*
X023997Y008779D01*
X023919Y008966D01*
X023808Y009077D01*
X023919Y009189D01*
X023997Y009376D01*
X023997Y009579D01*
X023919Y009766D01*
X023775Y009910D01*
X023588Y009987D01*
X023385Y009987D01*
X023198Y009910D01*
X023054Y009766D01*
X022977Y009579D01*
X022977Y009376D01*
X023054Y009189D01*
X023105Y009137D01*
X022347Y009137D01*
X023177Y009967D01*
X023240Y010030D01*
X023275Y010045D01*
X023387Y010156D01*
X023498Y010045D01*
X023685Y009967D01*
X023888Y009967D01*
X024075Y010045D01*
X024177Y010146D01*
X024177Y009118D01*
X024177Y008737D01*
X024427Y008487D01*
X024696Y008217D01*
X025264Y008217D01*
X025385Y008167D01*
X025588Y008167D01*
X025775Y008245D01*
X025919Y008389D01*
X025997Y008576D01*
X025997Y008779D01*
X025919Y008966D01*
X025808Y009077D01*
X025919Y009189D01*
X025997Y009376D01*
X025997Y009579D01*
X025919Y009766D01*
X025775Y009910D01*
X025588Y009987D01*
X025385Y009987D01*
X025198Y009910D01*
X025097Y009809D01*
X025097Y010918D01*
X024827Y011187D01*
X024327Y011687D01*
X023946Y011687D01*
X022552Y011687D01*
X022519Y011766D01*
X022375Y011910D01*
X022212Y011977D01*
X022375Y012045D01*
X022519Y012189D01*
X022537Y012231D01*
X022554Y012189D01*
X022698Y012045D01*
X022885Y011967D01*
X023088Y011967D01*
X023275Y012045D01*
X023387Y012156D01*
X023498Y012045D01*
X023685Y011967D01*
X023888Y011967D01*
X024009Y012017D01*
X025154Y012017D01*
X025192Y012002D01*
X025381Y012002D01*
X025419Y012017D01*
X025477Y012017D01*
X025518Y012058D01*
X025556Y012074D01*
X025690Y012208D01*
X025706Y012246D01*
X025747Y012287D01*
X025747Y012345D01*
X025762Y012383D01*
X025762Y012572D01*
X025747Y012610D01*
X025747Y012668D01*
X025706Y012709D01*
X025690Y012747D01*
X025556Y012881D01*
X025518Y012896D01*
X025477Y012937D01*
X025419Y012937D01*
X025381Y012953D01*
X025192Y012953D01*
X025154Y012937D01*
X024009Y012937D01*
X023888Y012987D01*
X023685Y012987D01*
X023498Y012910D01*
X023387Y012799D01*
X023275Y012910D01*
X023088Y012987D01*
X022885Y012987D01*
X022698Y012910D01*
X022554Y012766D01*
X022537Y012724D01*
X022519Y012766D01*
X022375Y012910D01*
X022236Y012967D01*
X022474Y012967D01*
X022597Y013090D01*
X022597Y013864D01*
X022474Y013987D01*
X021700Y013987D01*
X021577Y013864D01*
X021577Y013090D01*
X021700Y012967D01*
X021937Y012967D01*
X021798Y012910D01*
X021654Y012766D01*
X021577Y012579D01*
X021577Y012376D01*
X021654Y012189D01*
X021798Y012045D01*
X021961Y011977D01*
X021798Y011910D01*
X021654Y011766D01*
X021577Y011579D01*
X021577Y011376D01*
X021654Y011189D01*
X021798Y011045D01*
X021909Y010999D01*
X021775Y010944D01*
X021620Y010789D01*
X021537Y010587D01*
X021537Y010516D01*
X022048Y010516D01*
X022048Y010439D01*
X021537Y010439D01*
X021537Y010368D01*
X021620Y010166D01*
X021775Y010011D01*
X021877Y009969D01*
X021405Y009496D01*
X021190Y009496D01*
X021172Y009504D01*
X020986Y009504D01*
X020968Y009496D01*
X020888Y009496D01*
X020832Y009440D01*
X020814Y009433D01*
X020682Y009301D01*
X020675Y009283D01*
X020619Y009227D01*
X020619Y009148D01*
X020611Y009129D01*
X020611Y008943D01*
X020619Y008925D01*
X020619Y008846D01*
X020675Y008790D01*
X020682Y008772D01*
X020811Y008643D01*
X020682Y008514D01*
X020675Y008496D01*
X020619Y008440D01*
X020619Y008360D01*
X020611Y008342D01*
X020611Y008156D01*
X020619Y008138D01*
X020619Y008059D01*
X020675Y008002D01*
X020682Y007984D01*
X020814Y007853D01*
X020832Y007845D01*
X020888Y007789D01*
X020968Y007789D01*
X020986Y007782D01*
X021172Y007782D01*
X021190Y007789D01*
X021618Y007789D01*
X021999Y007789D01*
X022427Y008217D01*
X022545Y008217D01*
X022399Y008157D01*
X022107Y007865D01*
X021949Y007484D01*
X021949Y007327D01*
X022936Y007327D01*
X022936Y007227D01*
X021949Y007227D01*
X021949Y007071D01*
X022107Y006690D01*
X022399Y006398D01*
X022780Y006240D01*
X022937Y006240D01*
X022937Y007227D01*
X023037Y007227D01*
X023037Y006240D01*
X023193Y006240D01*
X023574Y006398D01*
X023866Y006690D01*
X023936Y006859D02*
X024216Y006859D01*
X024149Y006957D02*
X023977Y006957D01*
X024018Y007056D02*
X024149Y007056D01*
X024149Y007155D02*
X024024Y007155D01*
X024149Y007253D02*
X023037Y007253D01*
X023037Y007155D02*
X022937Y007155D01*
X022936Y007253D02*
X018237Y007253D01*
X018237Y007352D02*
X018137Y007352D01*
X018137Y007450D02*
X018237Y007450D01*
X018237Y007549D02*
X018137Y007549D01*
X018137Y007647D02*
X018237Y007647D01*
X018237Y007746D02*
X018137Y007746D01*
X018137Y007844D02*
X018237Y007844D01*
X018237Y007943D02*
X018137Y007943D01*
X018137Y008041D02*
X018237Y008041D01*
X018237Y008140D02*
X018137Y008140D01*
X018137Y008239D02*
X018237Y008239D01*
X018577Y008239D02*
X020065Y008239D01*
X020065Y008220D02*
X019587Y008220D01*
X019587Y008148D01*
X019664Y007962D01*
X019807Y007819D01*
X019994Y007742D01*
X020066Y007742D01*
X020066Y008220D01*
X020123Y008220D01*
X020123Y007742D01*
X020195Y007742D01*
X020382Y007819D01*
X020525Y007962D01*
X020602Y008148D01*
X020602Y008220D01*
X020123Y008220D01*
X020123Y008278D01*
X020602Y008278D01*
X020602Y008350D01*
X020525Y008536D01*
X020390Y008671D01*
X020491Y008772D01*
X020498Y008790D01*
X020554Y008846D01*
X020554Y008925D01*
X020562Y008943D01*
X020562Y009129D01*
X020554Y009147D01*
X020554Y009227D01*
X020498Y009283D01*
X020491Y009301D01*
X020359Y009433D01*
X020341Y009440D01*
X020285Y009496D01*
X020206Y009496D01*
X020187Y009504D01*
X020001Y009504D01*
X019983Y009496D01*
X016989Y009496D01*
X016975Y009510D01*
X016788Y009587D01*
X016585Y009587D01*
X016398Y009510D01*
X016254Y009366D01*
X016197Y009227D01*
X016197Y009464D01*
X016074Y009587D01*
X015300Y009587D01*
X015177Y009464D01*
X015177Y008690D01*
X015300Y008567D01*
X016074Y008567D01*
X016197Y008690D01*
X016197Y008928D01*
X016254Y008789D01*
X016398Y008645D01*
X016518Y008595D01*
X016537Y008576D01*
X016563Y008576D01*
X016585Y008567D01*
X016788Y008567D01*
X016810Y008576D01*
X016918Y008576D01*
X019704Y008576D01*
X019664Y008536D01*
X019587Y008350D01*
X019587Y008278D01*
X020065Y008278D01*
X020065Y008220D01*
X020123Y008239D02*
X020611Y008239D01*
X020602Y008337D02*
X020611Y008337D01*
X020619Y008436D02*
X020566Y008436D01*
X020526Y008534D02*
X020703Y008534D01*
X020801Y008633D02*
X020428Y008633D01*
X020450Y008731D02*
X020723Y008731D01*
X020635Y008830D02*
X020538Y008830D01*
X020556Y008928D02*
X020617Y008928D01*
X020611Y009027D02*
X020562Y009027D01*
X020562Y009125D02*
X020611Y009125D01*
X020619Y009224D02*
X020554Y009224D01*
X020469Y009323D02*
X020704Y009323D01*
X020802Y009421D02*
X020371Y009421D01*
X021428Y009520D02*
X016952Y009520D01*
X016422Y009520D02*
X016141Y009520D01*
X016197Y009421D02*
X016309Y009421D01*
X016236Y009323D02*
X016197Y009323D01*
X016197Y008830D02*
X016237Y008830D01*
X016197Y008731D02*
X016311Y008731D01*
X016427Y008633D02*
X016139Y008633D01*
X015234Y008633D02*
X014225Y008633D01*
X014205Y008731D02*
X015177Y008731D01*
X015177Y008830D02*
X014186Y008830D01*
X014190Y008810D02*
X014190Y008810D01*
X014167Y008928D02*
X015177Y008928D01*
X015177Y009027D02*
X014157Y009027D01*
X014157Y009028D02*
X014157Y009028D01*
X014147Y009125D02*
X015177Y009125D01*
X015177Y009224D02*
X014138Y009224D01*
X014131Y009323D02*
X015177Y009323D01*
X015177Y009421D02*
X014131Y009421D01*
X014131Y009520D02*
X015232Y009520D01*
X014131Y009618D02*
X021527Y009618D01*
X021625Y009717D02*
X014131Y009717D01*
X014131Y009815D02*
X021724Y009815D01*
X021823Y009914D02*
X014131Y009914D01*
X014064Y010012D02*
X018877Y010012D01*
X018732Y010111D02*
X013949Y010111D01*
X013975Y010086D02*
X013975Y010086D01*
X014049Y010032D02*
X014049Y010032D01*
X013735Y010111D02*
X011768Y010111D01*
X011691Y010012D02*
X013377Y010012D01*
X013542Y010067D02*
X013542Y010067D01*
X013542Y010067D01*
X013542Y010067D01*
X013107Y009914D02*
X011616Y009914D01*
X011549Y009815D02*
X012909Y009815D01*
X012919Y009820D02*
X012919Y009820D01*
X012740Y009717D02*
X011486Y009717D01*
X011433Y009618D02*
X012599Y009618D01*
X012459Y009520D02*
X011378Y009520D01*
X011347Y009421D02*
X012294Y009421D01*
X012116Y009323D02*
X011336Y009323D01*
X011337Y009224D02*
X011924Y009224D01*
X011684Y009125D02*
X011352Y009125D01*
X012740Y009716D02*
X012740Y009716D01*
X011960Y010308D02*
X017042Y010308D01*
X017043Y010307D02*
X017230Y010307D01*
X017403Y010379D01*
X017432Y010408D01*
X017573Y010267D01*
X017907Y010267D01*
X017907Y010747D01*
X017967Y010747D01*
X017967Y010807D01*
X018447Y010807D01*
X018447Y011141D01*
X018300Y011287D01*
X017967Y011287D01*
X017967Y010808D01*
X017907Y010808D01*
X017907Y011287D01*
X017573Y011287D01*
X017432Y011146D01*
X017403Y011176D01*
X017230Y011247D01*
X017043Y011247D01*
X016870Y011176D01*
X016738Y011044D01*
X016667Y010871D01*
X016667Y010684D01*
X016738Y010511D01*
X016870Y010379D01*
X017043Y010307D01*
X017231Y010308D02*
X017532Y010308D01*
X017434Y010406D02*
X017430Y010406D01*
X017907Y010406D02*
X017967Y010406D01*
X017967Y010308D02*
X017907Y010308D01*
X017967Y010267D02*
X018300Y010267D01*
X018447Y010414D01*
X018447Y010747D01*
X017967Y010747D01*
X017967Y010267D01*
X017967Y010505D02*
X017907Y010505D01*
X017907Y010604D02*
X017967Y010604D01*
X017967Y010702D02*
X017907Y010702D01*
X017967Y010801D02*
X018689Y010801D01*
X018628Y010702D02*
X018447Y010702D01*
X018447Y010604D02*
X018587Y010604D01*
X018577Y010505D02*
X018447Y010505D01*
X018439Y010406D02*
X018577Y010406D01*
X018605Y010308D02*
X018341Y010308D01*
X018646Y010209D02*
X011861Y010209D01*
X012064Y010406D02*
X016843Y010406D01*
X016744Y010505D02*
X012161Y010505D01*
X012209Y010549D02*
X012209Y010549D01*
X012269Y010604D02*
X016700Y010604D01*
X016667Y010702D02*
X012377Y010702D01*
X012485Y010801D02*
X016667Y010801D01*
X016678Y010899D02*
X012594Y010899D01*
X012702Y010998D02*
X016719Y010998D01*
X016791Y011096D02*
X012810Y011096D01*
X012918Y011195D02*
X016916Y011195D01*
X017357Y011195D02*
X017481Y011195D01*
X017907Y011195D02*
X017967Y011195D01*
X017967Y011096D02*
X017907Y011096D01*
X017907Y010998D02*
X017967Y010998D01*
X017967Y010899D02*
X017907Y010899D01*
X018447Y010899D02*
X018787Y010899D01*
X018912Y010998D02*
X018447Y010998D01*
X018447Y011096D02*
X018746Y011096D01*
X018652Y011195D02*
X018393Y011195D01*
X018611Y011293D02*
X013026Y011293D01*
X013134Y011392D02*
X018577Y011392D01*
X018577Y011490D02*
X013243Y011490D01*
X013351Y011589D02*
X018581Y011589D01*
X018622Y011688D02*
X013459Y011688D01*
X013567Y011786D02*
X018674Y011786D01*
X018773Y011885D02*
X018384Y011885D01*
X018520Y011983D02*
X018947Y011983D01*
X018761Y012082D02*
X018609Y012082D01*
X018650Y012180D02*
X018662Y012180D01*
X018172Y012180D02*
X018102Y012180D01*
X018102Y012082D02*
X018172Y012082D01*
X018172Y011983D02*
X018102Y011983D01*
X018102Y011885D02*
X018172Y011885D01*
X017889Y011885D02*
X017280Y011885D01*
X017464Y011983D02*
X017753Y011983D01*
X017664Y012082D02*
X017562Y012082D01*
X017607Y012180D02*
X017623Y012180D01*
X018102Y012279D02*
X018172Y012279D01*
X018172Y012476D02*
X018102Y012476D01*
X018102Y012574D02*
X018172Y012574D01*
X018172Y012673D02*
X018102Y012673D01*
X018102Y012772D02*
X018172Y012772D01*
X018172Y012870D02*
X018102Y012870D01*
X017889Y012870D02*
X017280Y012870D01*
X017464Y012772D02*
X017753Y012772D01*
X017664Y012673D02*
X017562Y012673D01*
X017607Y012574D02*
X017623Y012574D01*
X016993Y012870D02*
X014606Y012870D01*
X014643Y012933D02*
X014643Y012933D01*
X014665Y012969D02*
X018940Y012969D01*
X018776Y013067D02*
X014724Y013067D01*
X014783Y013166D02*
X018677Y013166D01*
X018623Y013264D02*
X014832Y013264D01*
X014867Y013363D02*
X018551Y013363D01*
X018452Y013461D02*
X014902Y013461D01*
X014937Y013560D02*
X018354Y013560D01*
X018255Y013658D02*
X014973Y013658D01*
X015008Y013757D02*
X018156Y013757D01*
X017740Y014053D02*
X015080Y014053D01*
X015101Y014151D02*
X017649Y014151D01*
X017608Y014250D02*
X015123Y014250D01*
X015144Y014348D02*
X017577Y014348D01*
X017577Y014447D02*
X015166Y014447D01*
X015187Y014545D02*
X017583Y014545D01*
X017624Y014644D02*
X015208Y014644D01*
X015201Y014609D02*
X015201Y014609D01*
X015230Y014742D02*
X017680Y014742D01*
X017779Y014841D02*
X015240Y014841D01*
X015231Y014748D02*
X015231Y014748D01*
X015249Y014939D02*
X018672Y014939D01*
X018725Y014917D02*
X018948Y014917D01*
X019154Y015003D01*
X019237Y015085D01*
X019237Y015024D01*
X019383Y014877D01*
X019787Y014877D01*
X019787Y015427D01*
X019887Y015427D01*
X019887Y015527D01*
X020437Y015527D01*
X020437Y015931D01*
X020290Y016077D01*
X019887Y016077D01*
X019887Y015528D01*
X019787Y015528D01*
X019787Y016077D01*
X019383Y016077D01*
X019237Y015931D01*
X019237Y015869D01*
X019154Y015952D01*
X018948Y016037D01*
X018725Y016037D01*
X018519Y015952D01*
X018362Y015795D01*
X018277Y015589D01*
X018277Y015366D01*
X018362Y015160D01*
X018519Y015003D01*
X018725Y014917D01*
X018484Y015038D02*
X015259Y015038D01*
X015268Y015137D02*
X018385Y015137D01*
X018331Y015235D02*
X015277Y015235D01*
X015287Y015334D02*
X018290Y015334D01*
X018277Y015432D02*
X015296Y015432D01*
X015306Y015531D02*
X018277Y015531D01*
X018293Y015629D02*
X015315Y015629D01*
X015323Y015728D02*
X018334Y015728D01*
X018394Y015826D02*
X015332Y015826D01*
X015340Y015925D02*
X017967Y015925D01*
X017985Y015917D02*
X018188Y015917D01*
X018375Y015995D01*
X018519Y016139D01*
X018597Y016326D01*
X018597Y016529D01*
X018519Y016716D01*
X018375Y016860D01*
X018188Y016937D01*
X017985Y016937D01*
X017798Y016860D01*
X017654Y016716D01*
X017577Y016529D01*
X017577Y016326D01*
X017654Y016139D01*
X017798Y015995D01*
X017985Y015917D01*
X018206Y015925D02*
X018492Y015925D01*
X018404Y016023D02*
X018692Y016023D01*
X018502Y016122D02*
X022921Y016122D01*
X022904Y016139D02*
X023048Y015995D01*
X023235Y015917D01*
X023438Y015917D01*
X023625Y015995D01*
X023769Y016139D01*
X023847Y016326D01*
X023847Y016529D01*
X023769Y016716D01*
X023625Y016860D01*
X023438Y016937D01*
X023235Y016937D01*
X023048Y016860D01*
X022904Y016716D01*
X022827Y016529D01*
X022827Y016326D01*
X022904Y016139D01*
X022870Y016221D02*
X018553Y016221D01*
X018594Y016319D02*
X022829Y016319D01*
X022827Y016418D02*
X018597Y016418D01*
X018597Y016516D02*
X022827Y016516D01*
X022862Y016615D02*
X018561Y016615D01*
X018520Y016713D02*
X022903Y016713D01*
X023000Y016812D02*
X018423Y016812D01*
X018253Y016910D02*
X023170Y016910D01*
X023503Y016910D02*
X025614Y016910D01*
X025647Y016812D02*
X023673Y016812D01*
X023770Y016713D02*
X025674Y016713D01*
X025701Y016615D02*
X023811Y016615D01*
X023847Y016516D02*
X025727Y016516D01*
X025713Y016567D02*
X025713Y016567D01*
X025752Y016418D02*
X023847Y016418D01*
X023844Y016319D02*
X025771Y016319D01*
X025786Y016221D02*
X023803Y016221D01*
X023752Y016122D02*
X025794Y016122D01*
X025798Y016023D02*
X023654Y016023D01*
X023456Y015925D02*
X025798Y015925D01*
X025798Y015826D02*
X023030Y015826D01*
X023061Y015795D02*
X022904Y015952D01*
X022698Y016037D01*
X022475Y016037D01*
X022269Y015952D01*
X022187Y015869D01*
X022187Y015931D01*
X022040Y016077D01*
X021637Y016077D01*
X021637Y015528D01*
X021537Y015528D01*
X021537Y016077D01*
X021133Y016077D01*
X020987Y015931D01*
X020987Y015527D01*
X021536Y015527D01*
X021536Y015427D01*
X020987Y015427D01*
X020987Y015024D01*
X021133Y014877D01*
X021537Y014877D01*
X021537Y015427D01*
X021637Y015427D01*
X021637Y014877D01*
X022040Y014877D01*
X022187Y015024D01*
X022187Y015085D01*
X022269Y015003D01*
X022475Y014917D01*
X022698Y014917D01*
X022904Y015003D01*
X023061Y015160D01*
X023147Y015366D01*
X023147Y015589D01*
X023061Y015795D01*
X023089Y015728D02*
X025798Y015728D01*
X025798Y015629D02*
X023130Y015629D01*
X023147Y015531D02*
X025798Y015531D01*
X025798Y015432D02*
X023147Y015432D01*
X023133Y015334D02*
X025798Y015334D01*
X025798Y015235D02*
X023092Y015235D01*
X023038Y015137D02*
X025798Y015137D01*
X025798Y015057D02*
X025798Y015057D01*
X025799Y015038D02*
X022939Y015038D01*
X022751Y014939D02*
X025809Y014939D01*
X025819Y014841D02*
X023644Y014841D01*
X023743Y014742D02*
X025829Y014742D01*
X025843Y014644D02*
X023799Y014644D01*
X023840Y014545D02*
X025860Y014545D01*
X025860Y014547D02*
X025860Y014547D01*
X025885Y014447D02*
X023847Y014447D01*
X023847Y014348D02*
X025910Y014348D01*
X025934Y014250D02*
X023815Y014250D01*
X023774Y014151D02*
X025959Y014151D01*
X025984Y014053D02*
X023683Y014053D01*
X023527Y013954D02*
X026014Y013954D01*
X026032Y013896D02*
X026032Y013896D01*
X026048Y013856D02*
X022597Y013856D01*
X022597Y013757D02*
X026086Y013757D01*
X026125Y013658D02*
X022597Y013658D01*
X022597Y013560D02*
X026164Y013560D01*
X026202Y013461D02*
X022597Y013461D01*
X022597Y013363D02*
X026241Y013363D01*
X026279Y013264D02*
X022597Y013264D01*
X022597Y013166D02*
X026318Y013166D01*
X026366Y013067D02*
X022573Y013067D01*
X022475Y012969D02*
X022840Y012969D01*
X022658Y012870D02*
X022415Y012870D01*
X022514Y012772D02*
X022560Y012772D01*
X022562Y012180D02*
X022511Y012180D01*
X022412Y012082D02*
X022661Y012082D01*
X022847Y011983D02*
X022226Y011983D01*
X022401Y011885D02*
X027262Y011885D01*
X027260Y011887D02*
X027260Y011887D01*
X027167Y011983D02*
X023926Y011983D01*
X023647Y011983D02*
X023126Y011983D01*
X023312Y012082D02*
X023461Y012082D01*
X022552Y011688D02*
X027479Y011688D01*
X027390Y011769D02*
X027390Y011769D01*
X027371Y011786D02*
X022499Y011786D01*
X021947Y011983D02*
X020172Y011983D01*
X020074Y011885D02*
X021773Y011885D01*
X021674Y011786D02*
X019975Y011786D01*
X019877Y011688D02*
X021622Y011688D01*
X021581Y011589D02*
X019778Y011589D01*
X019679Y011490D02*
X021577Y011490D01*
X021577Y011392D02*
X019597Y011392D01*
X019562Y011293D02*
X021611Y011293D01*
X021652Y011195D02*
X019522Y011195D01*
X019427Y011096D02*
X021746Y011096D01*
X021906Y010998D02*
X019261Y010998D01*
X019386Y010899D02*
X021731Y010899D01*
X021632Y010801D02*
X019485Y010801D01*
X019546Y010702D02*
X021584Y010702D01*
X021544Y010604D02*
X019586Y010604D01*
X019597Y010505D02*
X022048Y010505D01*
X021537Y010406D02*
X019597Y010406D01*
X019568Y010308D02*
X021561Y010308D01*
X021602Y010209D02*
X019528Y010209D01*
X019441Y010111D02*
X021675Y010111D01*
X021774Y010012D02*
X019296Y010012D01*
X019663Y008534D02*
X014245Y008534D01*
X014265Y008436D02*
X019622Y008436D01*
X019587Y008337D02*
X014284Y008337D01*
X014304Y008239D02*
X017796Y008239D01*
X017582Y008140D02*
X014324Y008140D01*
X014335Y008082D02*
X014335Y008082D01*
X014343Y008041D02*
X017484Y008041D01*
X017385Y007943D02*
X014368Y007943D01*
X014408Y007844D02*
X017299Y007844D01*
X017258Y007746D02*
X014447Y007746D01*
X014486Y007647D02*
X017217Y007647D01*
X017176Y007549D02*
X017112Y007549D01*
X016261Y007549D02*
X015881Y007549D01*
X016035Y007450D02*
X016177Y007450D01*
X016177Y007352D02*
X016125Y007352D01*
X016166Y007253D02*
X016177Y007253D01*
X016177Y006928D02*
X016177Y006690D01*
X016300Y006567D01*
X017074Y006567D01*
X017197Y006690D01*
X017197Y006957D01*
X017307Y006690D01*
X017392Y006604D01*
X017254Y006466D01*
X017177Y006279D01*
X017177Y006076D01*
X017254Y005889D01*
X017398Y005745D01*
X017518Y005695D01*
X018046Y005167D01*
X018427Y005167D01*
X024927Y005167D01*
X025197Y005437D01*
X025733Y005974D01*
X025577Y005731D01*
X025522Y005677D01*
X025522Y005647D01*
X025522Y005604D01*
X025522Y005471D01*
X025634Y005358D01*
X025668Y005324D01*
X025728Y005324D01*
X026014Y005220D01*
X026105Y005184D01*
X026194Y005143D01*
X026219Y005131D01*
X026287Y005097D01*
X026342Y005069D01*
X026404Y005036D01*
X026525Y004963D01*
X026583Y004922D01*
X026608Y004904D01*
X026667Y004861D01*
X026667Y004861D01*
X026713Y004828D01*
X026786Y004772D01*
X026923Y004647D01*
X026986Y004580D01*
X027011Y004552D01*
X027074Y004478D01*
X027186Y004318D01*
X027235Y004234D01*
X027235Y004233D01*
X027270Y004166D01*
X027324Y004037D01*
X026650Y004037D01*
X026615Y004003D01*
X026540Y004077D01*
X026137Y004077D01*
X026137Y003528D01*
X026037Y003528D01*
X026037Y004077D01*
X025633Y004077D01*
X025558Y004003D01*
X025524Y004037D01*
X024650Y004037D01*
X024587Y003974D01*
X024524Y004037D01*
X023650Y004037D01*
X023527Y003914D01*
X023527Y003040D01*
X023650Y002917D01*
X024524Y002917D01*
X024587Y002980D01*
X024650Y002917D01*
X025524Y002917D01*
X025558Y002952D01*
X025633Y002877D01*
X026037Y002877D01*
X026037Y003427D01*
X026137Y003427D01*
X026137Y002877D01*
X026540Y002877D01*
X026615Y002952D01*
X026650Y002917D01*
X027205Y002917D01*
X026580Y002917D01*
X026137Y002917D02*
X026037Y002917D01*
X026037Y003016D02*
X026137Y003016D01*
X026137Y003114D02*
X026037Y003114D01*
X026037Y003213D02*
X026137Y003213D01*
X026137Y003311D02*
X026037Y003311D01*
X026037Y003410D02*
X026137Y003410D01*
X026137Y003607D02*
X026037Y003607D01*
X026037Y003706D02*
X026137Y003706D01*
X026137Y003804D02*
X026037Y003804D01*
X026037Y003903D02*
X026137Y003903D01*
X026137Y004001D02*
X026037Y004001D01*
X027060Y004494D02*
X014041Y004494D01*
X014041Y004495D02*
X014059Y004514D01*
X014064Y004520D01*
X014119Y004580D01*
X014238Y004693D01*
X014302Y004745D01*
X014365Y004794D01*
X014397Y004819D01*
X014446Y004855D01*
X014547Y004923D01*
X014599Y004954D01*
X014689Y005006D01*
X014833Y005088D01*
X014833Y005088D01*
X014923Y005139D01*
X014970Y005165D01*
X015066Y005212D01*
X015115Y005233D01*
X015170Y005257D01*
X015428Y005364D01*
X015481Y005364D01*
X015627Y005510D01*
X015627Y005667D01*
X016074Y005667D01*
X016197Y005790D01*
X016197Y006564D01*
X016074Y006687D01*
X016018Y006687D01*
X016119Y006789D01*
X016177Y006928D01*
X016177Y006859D02*
X016148Y006859D01*
X016177Y006760D02*
X016091Y006760D01*
X016099Y006662D02*
X016205Y006662D01*
X016197Y006563D02*
X017351Y006563D01*
X017335Y006662D02*
X017168Y006662D01*
X017197Y006760D02*
X017278Y006760D01*
X017237Y006859D02*
X017197Y006859D01*
X017254Y006465D02*
X016197Y006465D01*
X016197Y006366D02*
X017213Y006366D01*
X017177Y006268D02*
X016197Y006268D01*
X016197Y006169D02*
X017177Y006169D01*
X017179Y006071D02*
X016197Y006071D01*
X016197Y005972D02*
X017220Y005972D01*
X017269Y005874D02*
X016197Y005874D01*
X016181Y005775D02*
X017368Y005775D01*
X017537Y005676D02*
X016083Y005676D01*
X015627Y005578D02*
X017636Y005578D01*
X017734Y005479D02*
X015597Y005479D01*
X015498Y005381D02*
X017833Y005381D01*
X017931Y005282D02*
X015232Y005282D01*
X015008Y005184D02*
X018030Y005184D01*
X018345Y006169D02*
X024256Y006169D01*
X024176Y006268D02*
X023260Y006268D01*
X023037Y006268D02*
X022937Y006268D01*
X022937Y006366D02*
X023037Y006366D01*
X023037Y006465D02*
X022937Y006465D01*
X022937Y006563D02*
X023037Y006563D01*
X023037Y006662D02*
X022937Y006662D01*
X022937Y006760D02*
X023037Y006760D01*
X023037Y006859D02*
X022937Y006859D01*
X022937Y006957D02*
X023037Y006957D01*
X023037Y007056D02*
X022937Y007056D01*
X022234Y006563D02*
X018940Y006563D01*
X019038Y006662D02*
X022135Y006662D01*
X022078Y006760D02*
X019095Y006760D01*
X019136Y006859D02*
X022037Y006859D01*
X021996Y006957D02*
X019177Y006957D01*
X019218Y007056D02*
X021955Y007056D01*
X021949Y007155D02*
X019224Y007155D01*
X019224Y007352D02*
X021949Y007352D01*
X021949Y007450D02*
X019224Y007450D01*
X019197Y007549D02*
X021976Y007549D01*
X022017Y007647D02*
X019156Y007647D01*
X019115Y007746D02*
X019983Y007746D01*
X020066Y007746D02*
X020123Y007746D01*
X020206Y007746D02*
X022058Y007746D01*
X022054Y007844D02*
X022099Y007844D01*
X022153Y007943D02*
X022185Y007943D01*
X022251Y008041D02*
X022284Y008041D01*
X022350Y008140D02*
X022382Y008140D01*
X023591Y008140D02*
X026798Y008140D01*
X026820Y008239D02*
X025760Y008239D01*
X025868Y008337D02*
X026838Y008337D01*
X026857Y008436D02*
X025938Y008436D01*
X025979Y008534D02*
X026875Y008534D01*
X026894Y008633D02*
X025997Y008633D01*
X025997Y008731D02*
X026908Y008731D01*
X026918Y008830D02*
X025975Y008830D01*
X025935Y008928D02*
X026927Y008928D01*
X026937Y009027D02*
X025858Y009027D01*
X025856Y009125D02*
X026940Y009125D01*
X026940Y009224D02*
X025934Y009224D01*
X025974Y009323D02*
X026940Y009323D01*
X026940Y009421D02*
X025997Y009421D01*
X025997Y009520D02*
X026940Y009520D01*
X026940Y009618D02*
X025980Y009618D01*
X025939Y009717D02*
X026939Y009717D01*
X026940Y009815D02*
X025870Y009815D01*
X025766Y009914D02*
X026986Y009914D01*
X027055Y010012D02*
X025097Y010012D01*
X025097Y009914D02*
X025208Y009914D01*
X025103Y009815D02*
X025097Y009815D01*
X025097Y010111D02*
X027247Y010111D01*
X027244Y010111D02*
X027243Y010111D01*
X027351Y010120D02*
X027351Y010120D01*
X027435Y010111D02*
X029287Y010111D01*
X029208Y010209D02*
X025097Y010209D01*
X025097Y010308D02*
X029110Y010308D01*
X029012Y010406D02*
X025097Y010406D01*
X025097Y010505D02*
X028905Y010505D01*
X028795Y010604D02*
X025097Y010604D01*
X025097Y010702D02*
X028686Y010702D01*
X028569Y010801D02*
X025097Y010801D01*
X025097Y010899D02*
X028434Y010899D01*
X028298Y010998D02*
X025017Y010998D01*
X024918Y011096D02*
X028164Y011096D01*
X028048Y011195D02*
X024820Y011195D01*
X024721Y011293D02*
X027932Y011293D01*
X027815Y011392D02*
X024623Y011392D01*
X024524Y011490D02*
X027696Y011490D01*
X027587Y011589D02*
X024425Y011589D01*
X025564Y012082D02*
X027082Y012082D01*
X027046Y012125D02*
X027046Y012125D01*
X026999Y012180D02*
X025662Y012180D01*
X025739Y012279D02*
X026916Y012279D01*
X026832Y012377D02*
X025760Y012377D01*
X025762Y012476D02*
X026750Y012476D01*
X026755Y012469D02*
X026755Y012469D01*
X026682Y012574D02*
X025761Y012574D01*
X025741Y012673D02*
X026614Y012673D01*
X026545Y012772D02*
X025665Y012772D01*
X025567Y012870D02*
X026477Y012870D01*
X026419Y012969D02*
X023933Y012969D01*
X023640Y012969D02*
X023133Y012969D01*
X023315Y012870D02*
X023458Y012870D01*
X023147Y013954D02*
X022507Y013954D01*
X021666Y013954D02*
X021443Y013954D01*
X021345Y013856D02*
X021577Y013856D01*
X021577Y013757D02*
X021246Y013757D01*
X021147Y013658D02*
X021577Y013658D01*
X021577Y013560D02*
X021097Y013560D01*
X021097Y013461D02*
X021577Y013461D01*
X021577Y013363D02*
X021097Y013363D01*
X021097Y013264D02*
X021577Y013264D01*
X021577Y013166D02*
X021097Y013166D01*
X021097Y013067D02*
X021600Y013067D01*
X021698Y012969D02*
X021097Y012969D01*
X021059Y012870D02*
X021758Y012870D01*
X021660Y012772D02*
X020961Y012772D01*
X020862Y012673D02*
X021616Y012673D01*
X021577Y012574D02*
X020763Y012574D01*
X020665Y012476D02*
X021577Y012476D01*
X021577Y012377D02*
X020566Y012377D01*
X020468Y012279D02*
X021617Y012279D01*
X021662Y012180D02*
X020369Y012180D01*
X020271Y012082D02*
X021761Y012082D01*
X020277Y013264D02*
X019550Y013264D01*
X019591Y013363D02*
X020277Y013363D01*
X020277Y013461D02*
X019597Y013461D01*
X019597Y013560D02*
X020277Y013560D01*
X020277Y013658D02*
X019564Y013658D01*
X019523Y013757D02*
X020277Y013757D01*
X020277Y013856D02*
X019430Y013856D01*
X019268Y013954D02*
X020283Y013954D01*
X020382Y014053D02*
X019162Y014053D01*
X019063Y014151D02*
X020481Y014151D01*
X020579Y014250D02*
X018965Y014250D01*
X018866Y014348D02*
X020678Y014348D01*
X020776Y014447D02*
X018768Y014447D01*
X018669Y014545D02*
X020875Y014545D01*
X020973Y014644D02*
X018571Y014644D01*
X018493Y014742D02*
X021072Y014742D01*
X021071Y014939D02*
X020352Y014939D01*
X020290Y014877D02*
X020437Y015024D01*
X020437Y015427D01*
X019887Y015427D01*
X019887Y014877D01*
X020290Y014877D01*
X020437Y015038D02*
X020987Y015038D01*
X020987Y015137D02*
X020437Y015137D01*
X020437Y015235D02*
X020987Y015235D01*
X020987Y015334D02*
X020437Y015334D01*
X020437Y015531D02*
X020987Y015531D01*
X020987Y015629D02*
X020437Y015629D01*
X020437Y015728D02*
X020987Y015728D01*
X020987Y015826D02*
X020437Y015826D01*
X020437Y015925D02*
X020987Y015925D01*
X021079Y016023D02*
X020344Y016023D01*
X019887Y016023D02*
X019787Y016023D01*
X019787Y015925D02*
X019887Y015925D01*
X019887Y015826D02*
X019787Y015826D01*
X019787Y015728D02*
X019887Y015728D01*
X019887Y015629D02*
X019787Y015629D01*
X019787Y015531D02*
X019887Y015531D01*
X019887Y015432D02*
X021536Y015432D01*
X021537Y015334D02*
X021637Y015334D01*
X021637Y015235D02*
X021537Y015235D01*
X021537Y015137D02*
X021637Y015137D01*
X021637Y015038D02*
X021537Y015038D01*
X021537Y014939D02*
X021637Y014939D01*
X022102Y014939D02*
X022422Y014939D01*
X022234Y015038D02*
X022187Y015038D01*
X021637Y015531D02*
X021537Y015531D01*
X021537Y015629D02*
X021637Y015629D01*
X021637Y015728D02*
X021537Y015728D01*
X021537Y015826D02*
X021637Y015826D01*
X021637Y015925D02*
X021537Y015925D01*
X021537Y016023D02*
X021637Y016023D01*
X022094Y016023D02*
X022442Y016023D01*
X022242Y015925D02*
X022187Y015925D01*
X022732Y016023D02*
X023019Y016023D01*
X022931Y015925D02*
X023217Y015925D01*
X023029Y014841D02*
X018394Y014841D01*
X019001Y014939D02*
X019321Y014939D01*
X019237Y015038D02*
X019189Y015038D01*
X019787Y015038D02*
X019887Y015038D01*
X019887Y014939D02*
X019787Y014939D01*
X019787Y015137D02*
X019887Y015137D01*
X019887Y015235D02*
X019787Y015235D01*
X019787Y015334D02*
X019887Y015334D01*
X019237Y015925D02*
X019181Y015925D01*
X019329Y016023D02*
X018982Y016023D01*
X017769Y016023D02*
X015349Y016023D01*
X015357Y016122D02*
X017671Y016122D01*
X017620Y016221D02*
X015366Y016221D01*
X015375Y016319D02*
X017579Y016319D01*
X017577Y016418D02*
X015389Y016418D01*
X015407Y016516D02*
X017577Y016516D01*
X017612Y016615D02*
X015430Y016615D01*
X015459Y016713D02*
X017653Y016713D01*
X017750Y016812D02*
X015488Y016812D01*
X015517Y016910D02*
X017920Y016910D01*
X015996Y017994D02*
X025158Y017994D01*
X025214Y017896D02*
X015940Y017896D01*
X015884Y017797D02*
X025262Y017797D01*
X025308Y017699D02*
X015828Y017699D01*
X015847Y017733D02*
X015847Y017733D01*
X015772Y017600D02*
X025354Y017600D01*
X025375Y017554D02*
X025375Y017554D01*
X025400Y017502D02*
X015725Y017502D01*
X015683Y017403D02*
X025444Y017403D01*
X025482Y017305D02*
X015646Y017305D01*
X015638Y017281D02*
X015638Y017281D01*
X015610Y017206D02*
X025516Y017206D01*
X025525Y017179D02*
X025525Y017179D01*
X025549Y017107D02*
X015575Y017107D01*
X015546Y017009D02*
X025582Y017009D01*
X025096Y018093D02*
X016053Y018093D01*
X016111Y018191D02*
X025033Y018191D01*
X025006Y018233D02*
X025006Y018233D01*
X024969Y018290D02*
X016168Y018290D01*
X016193Y018332D02*
X016193Y018332D01*
X016226Y018389D02*
X024903Y018389D01*
X024907Y018384D02*
X024907Y018384D01*
X024826Y018487D02*
X016286Y018487D01*
X016354Y018586D02*
X024740Y018586D01*
X024688Y018641D02*
X024688Y018641D01*
X024647Y018684D02*
X016428Y018684D01*
X016502Y018783D02*
X024555Y018783D01*
X024463Y018881D02*
X016581Y018881D01*
X016672Y018980D02*
X024370Y018980D01*
X024268Y019078D02*
X016777Y019078D01*
X016890Y019177D02*
X024152Y019177D01*
X024137Y019189D02*
X024137Y019189D01*
X024032Y019275D02*
X017004Y019275D01*
X017032Y019299D02*
X017032Y019299D01*
X017118Y019374D02*
X023913Y019374D01*
X023794Y019472D02*
X017246Y019472D01*
X017350Y019545D02*
X017350Y019545D01*
X017388Y019571D02*
X023674Y019571D01*
X023555Y019670D02*
X017532Y019670D01*
X017676Y019768D02*
X023422Y019768D01*
X023263Y019867D02*
X017820Y019867D01*
X017986Y019965D02*
X023086Y019965D01*
X023197Y019903D02*
X023197Y019903D01*
X022909Y020064D02*
X018183Y020064D01*
X018380Y020162D02*
X022730Y020162D01*
X022524Y020261D02*
X018580Y020261D01*
X018854Y020359D02*
X022351Y020359D01*
X022130Y020458D02*
X019034Y020458D01*
X018916Y020389D02*
X018916Y020389D01*
X019170Y020556D02*
X021981Y020556D01*
X022050Y020503D02*
X022050Y020503D01*
X021904Y020617D02*
X021904Y020617D01*
X021867Y020655D02*
X019277Y020655D01*
X019234Y020609D02*
X019234Y020609D01*
X019234Y020609D01*
X019365Y020752D02*
X019365Y020752D01*
X019367Y020754D02*
X021775Y020754D01*
X021777Y020751D02*
X021777Y020751D01*
X021707Y020852D02*
X019433Y020852D01*
X019492Y020951D02*
X021648Y020951D01*
X021671Y020903D02*
X021671Y020903D01*
X021600Y021049D02*
X019539Y021049D01*
X019558Y021087D02*
X019558Y021087D01*
X019496Y013166D02*
X020195Y013166D01*
X020097Y013067D02*
X019398Y013067D01*
X019233Y012969D02*
X019998Y012969D01*
X019900Y012870D02*
X019415Y012870D01*
X019514Y012772D02*
X019801Y012772D01*
X019702Y012673D02*
X019558Y012673D01*
X019597Y012574D02*
X019604Y012574D01*
X018758Y012870D02*
X018384Y012870D01*
X018520Y012772D02*
X018660Y012772D01*
X018616Y012673D02*
X018609Y012673D01*
X016993Y011885D02*
X013675Y011885D01*
X013783Y011983D02*
X016810Y011983D01*
X016711Y012082D02*
X013892Y012082D01*
X013903Y012093D02*
X013903Y012093D01*
X013985Y012180D02*
X016666Y012180D01*
X016627Y012279D02*
X014078Y012279D01*
X014171Y012377D02*
X016627Y012377D01*
X016627Y012476D02*
X014264Y012476D01*
X014356Y012574D02*
X016666Y012574D01*
X016711Y012673D02*
X014449Y012673D01*
X014542Y012772D02*
X016810Y012772D01*
X014554Y012785D02*
X014554Y012785D01*
X014554Y012785D01*
X018791Y008140D02*
X019590Y008140D01*
X019631Y008041D02*
X018890Y008041D01*
X018988Y007943D02*
X019683Y007943D01*
X019781Y007844D02*
X019075Y007844D01*
X020066Y007844D02*
X020123Y007844D01*
X020123Y007943D02*
X020066Y007943D01*
X020066Y008041D02*
X020123Y008041D01*
X020123Y008140D02*
X020066Y008140D01*
X020407Y007844D02*
X020833Y007844D01*
X020724Y007943D02*
X020506Y007943D01*
X020558Y008041D02*
X020636Y008041D01*
X020618Y008140D02*
X020599Y008140D01*
X022434Y009224D02*
X023040Y009224D01*
X022999Y009323D02*
X022532Y009323D01*
X022631Y009421D02*
X022977Y009421D01*
X022977Y009520D02*
X022729Y009520D01*
X022828Y009618D02*
X022993Y009618D01*
X023034Y009717D02*
X022926Y009717D01*
X023025Y009815D02*
X023103Y009815D01*
X023123Y009914D02*
X023208Y009914D01*
X023222Y010012D02*
X023577Y010012D01*
X023432Y010111D02*
X023341Y010111D01*
X023766Y009914D02*
X024177Y009914D01*
X024177Y010012D02*
X023996Y010012D01*
X024141Y010111D02*
X024177Y010111D01*
X024177Y009815D02*
X023870Y009815D01*
X023939Y009717D02*
X024177Y009717D01*
X024177Y009618D02*
X023980Y009618D01*
X023997Y009520D02*
X024177Y009520D01*
X024177Y009421D02*
X023997Y009421D01*
X023974Y009323D02*
X024177Y009323D01*
X024177Y009224D02*
X023934Y009224D01*
X023856Y009125D02*
X024177Y009125D01*
X024177Y009027D02*
X023858Y009027D01*
X023935Y008928D02*
X024177Y008928D01*
X024177Y008830D02*
X023975Y008830D01*
X023997Y008731D02*
X024182Y008731D01*
X024281Y008633D02*
X023997Y008633D01*
X023979Y008534D02*
X024379Y008534D01*
X024478Y008436D02*
X023938Y008436D01*
X023868Y008337D02*
X024576Y008337D01*
X024675Y008239D02*
X023760Y008239D01*
X023690Y008041D02*
X026771Y008041D01*
X026738Y007943D02*
X023788Y007943D01*
X023875Y007844D02*
X026701Y007844D01*
X026664Y007746D02*
X025269Y007746D01*
X025367Y007647D02*
X026627Y007647D01*
X026590Y007549D02*
X025466Y007549D01*
X025564Y007450D02*
X026553Y007450D01*
X026516Y007352D02*
X025663Y007352D01*
X025747Y007253D02*
X026478Y007253D01*
X026433Y007155D02*
X025747Y007155D01*
X025747Y006859D02*
X026269Y006859D01*
X026213Y006760D02*
X025747Y006760D01*
X025747Y006662D02*
X026157Y006662D01*
X026101Y006563D02*
X025747Y006563D01*
X025747Y006465D02*
X026044Y006465D01*
X026066Y006504D02*
X026066Y006504D01*
X025987Y006366D02*
X025747Y006366D01*
X025747Y006268D02*
X025924Y006268D01*
X025860Y006169D02*
X025747Y006169D01*
X025747Y006071D02*
X025796Y006071D01*
X025732Y005972D02*
X025732Y005972D01*
X025669Y005874D02*
X025633Y005874D01*
X025605Y005775D02*
X025535Y005775D01*
X025522Y005676D02*
X025436Y005676D01*
X025522Y005578D02*
X025338Y005578D01*
X025239Y005479D02*
X025522Y005479D01*
X025612Y005381D02*
X025141Y005381D01*
X025042Y005282D02*
X025844Y005282D01*
X026106Y005184D02*
X024943Y005184D01*
X026287Y005097D02*
X026287Y005097D01*
X026310Y005085D02*
X014828Y005085D01*
X014689Y005006D02*
X014689Y005006D01*
X014656Y004987D02*
X026486Y004987D01*
X026630Y004888D02*
X014495Y004888D01*
X014359Y004790D02*
X026763Y004790D01*
X026875Y004691D02*
X014236Y004691D01*
X014302Y004745D02*
X014302Y004745D01*
X014132Y004592D02*
X026975Y004592D01*
X027131Y004395D02*
X013963Y004395D01*
X013987Y004429D02*
X014041Y004495D01*
X013987Y004429D02*
X013887Y004289D01*
X013843Y004216D01*
X013792Y004126D01*
X013792Y004126D01*
X013787Y004118D01*
X013747Y004037D01*
X014524Y004037D01*
X014587Y003974D01*
X014650Y004037D01*
X015524Y004037D01*
X015587Y003974D01*
X015650Y004037D01*
X016524Y004037D01*
X016587Y003974D01*
X016650Y004037D01*
X017524Y004037D01*
X017647Y003914D01*
X017647Y003040D01*
X017524Y002917D01*
X016650Y002917D01*
X016587Y002980D01*
X016524Y002917D01*
X015650Y002917D01*
X015587Y002980D01*
X015524Y002917D01*
X014650Y002917D01*
X014587Y002980D01*
X014524Y002917D01*
X013858Y002917D01*
X025593Y002917D01*
X026286Y002477D02*
X022375Y002477D01*
X022362Y002477D01*
X022272Y002477D01*
X022219Y002478D01*
X022112Y002484D01*
X022059Y002490D01*
X022028Y002494D01*
X021877Y002513D01*
X021547Y002586D01*
X021215Y002697D01*
X021118Y002738D01*
X020895Y002800D01*
X020666Y002831D01*
X020654Y002831D01*
X020551Y002831D01*
X020453Y002831D01*
X020453Y002831D01*
X020447Y002831D01*
X020447Y002830D01*
X020258Y002808D01*
X020068Y002761D01*
X019976Y002727D01*
X019901Y002699D01*
X019667Y002621D01*
X019616Y002605D01*
X019513Y002577D01*
X019461Y002566D01*
X019440Y002562D01*
X019360Y002546D01*
X019360Y002546D01*
X019194Y002513D01*
X019166Y002509D01*
X019132Y002504D01*
X019063Y002494D01*
X019003Y002486D01*
X018882Y002478D01*
X018821Y002477D01*
X014746Y002477D01*
X014732Y002477D01*
X014643Y002477D01*
X014574Y002479D01*
X014437Y002493D01*
X014302Y002523D01*
X014263Y002535D01*
X014203Y002573D01*
X014047Y002695D01*
X013975Y002763D01*
X013949Y002790D01*
X013901Y002850D01*
X013880Y002881D01*
X013858Y002917D01*
X013926Y002819D02*
X020350Y002819D01*
X020258Y002808D02*
X020258Y002808D01*
X020068Y002761D02*
X020068Y002761D01*
X019958Y002720D02*
X014020Y002720D01*
X014047Y002695D02*
X014047Y002695D01*
X014141Y002622D02*
X019670Y002622D01*
X019246Y002523D02*
X014301Y002523D01*
X014560Y004001D02*
X014613Y004001D01*
X013893Y004297D02*
X027198Y004297D01*
X027253Y004198D02*
X013833Y004198D01*
X013778Y004100D02*
X027298Y004100D01*
X027205Y002917D02*
X027159Y002852D01*
X027051Y002721D01*
X026993Y002660D01*
X026977Y002645D01*
X026943Y002620D01*
X026924Y002610D01*
X026858Y002579D01*
X026719Y002532D01*
X026648Y002515D01*
X026623Y002510D01*
X026539Y002496D01*
X026370Y002479D01*
X026286Y002477D01*
X026681Y002523D02*
X021831Y002523D01*
X021441Y002622D02*
X026945Y002622D01*
X027051Y002720D02*
X021160Y002720D01*
X021118Y002738D02*
X021118Y002738D01*
X020757Y002819D02*
X027131Y002819D01*
X024613Y004001D02*
X024560Y004001D01*
X023613Y004001D02*
X017560Y004001D01*
X017647Y003903D02*
X023527Y003903D01*
X023527Y003804D02*
X017647Y003804D01*
X017647Y003706D02*
X023527Y003706D01*
X023527Y003607D02*
X017647Y003607D01*
X017647Y003508D02*
X023527Y003508D01*
X023527Y003410D02*
X017647Y003410D01*
X017647Y003311D02*
X023527Y003311D01*
X023527Y003213D02*
X017647Y003213D01*
X017647Y003114D02*
X023527Y003114D01*
X023551Y003016D02*
X017622Y003016D01*
X016613Y004001D02*
X016560Y004001D01*
X015613Y004001D02*
X015560Y004001D01*
X018460Y006268D02*
X022713Y006268D01*
X022475Y006366D02*
X018698Y006366D01*
X018841Y006465D02*
X022332Y006465D01*
X023498Y006366D02*
X024135Y006366D01*
X024109Y006465D02*
X023641Y006465D01*
X024024Y007352D02*
X024149Y007352D01*
X024149Y007450D02*
X024024Y007450D01*
X023997Y007549D02*
X024149Y007549D01*
X024149Y007647D02*
X023956Y007647D01*
X023915Y007746D02*
X024210Y007746D01*
X026331Y006967D02*
X026331Y006966D01*
X026331Y006967D02*
X026382Y007056D01*
X029029Y009323D02*
X029811Y009323D01*
X029814Y009242D02*
X029814Y009242D01*
X029811Y009224D02*
X029226Y009224D01*
X028832Y009421D02*
X029798Y009421D01*
X029754Y009520D02*
X028647Y009520D01*
X028470Y009618D02*
X029682Y009618D01*
X029603Y009717D02*
X028290Y009717D01*
X028110Y009815D02*
X029524Y009815D01*
X029445Y009914D02*
X027929Y009914D01*
X027728Y010012D02*
X029366Y010012D01*
X027651Y010053D02*
X027651Y010053D01*
X027159Y011991D02*
X027159Y011991D01*
X015492Y007549D02*
X014526Y007549D01*
X014565Y007450D02*
X015338Y007450D01*
X015248Y007352D02*
X014605Y007352D01*
X014644Y007253D02*
X015207Y007253D01*
X015177Y007155D02*
X014693Y007155D01*
X014748Y007056D02*
X015177Y007056D01*
X015184Y006957D02*
X014803Y006957D01*
X014857Y006859D02*
X015225Y006859D01*
X015282Y006760D02*
X014912Y006760D01*
X014967Y006662D02*
X015274Y006662D01*
X015177Y006563D02*
X015022Y006563D01*
X015086Y006465D02*
X015177Y006465D01*
X015177Y006366D02*
X015155Y006366D01*
D22*
X017687Y006177D02*
X018237Y005627D01*
X024737Y005627D01*
X025287Y006177D01*
X025287Y007077D01*
X025043Y007321D01*
X024637Y007321D01*
X024637Y006534D02*
X024637Y006527D01*
X023737Y006527D01*
X022987Y007277D01*
X020087Y007277D01*
X020087Y008249D01*
X020094Y009036D02*
X016728Y009036D01*
X016687Y009077D01*
X017937Y010477D02*
X018687Y009727D01*
X021337Y009727D01*
X022087Y010477D01*
X022987Y010477D02*
X022987Y010427D01*
X021596Y009036D01*
X021079Y009036D01*
X021808Y008249D02*
X022237Y008677D01*
X023487Y008677D01*
X024637Y008927D02*
X024887Y008677D01*
X025487Y008677D01*
X024637Y008927D02*
X024637Y010727D01*
X024137Y011227D01*
X022337Y011227D01*
X022087Y011477D01*
X023787Y012477D02*
X025287Y012477D01*
X019087Y013477D02*
X018137Y014427D01*
X018087Y014427D01*
X017937Y010777D02*
X017937Y010477D01*
X021079Y008249D02*
X021808Y008249D01*
X020087Y007277D02*
X018187Y007277D01*
D23*
X020087Y008249D02*
X020094Y008249D01*
X019087Y011477D02*
X020687Y013077D01*
X020687Y013777D01*
X021337Y014427D01*
X023337Y014427D01*
D24*
X025287Y012477D03*
X015887Y012477D03*
X019837Y020477D03*
X021337Y020477D03*
M02*
