G75*
G70*
%OFA0B0*%
%FSLAX24Y24*%
%IPPOS*%
%LPD*%
%AMOC8*
5,1,8,0,0,1.08239X$1,22.5*
%
%ADD10C,0.0600*%
%ADD11C,0.0700*%
%ADD12R,0.0700X0.0700*%
%ADD13R,0.0600X0.0600*%
%ADD14R,0.0520X0.0520*%
%ADD15C,0.0520*%
%ADD16C,0.0515*%
%ADD17C,0.1575*%
%ADD18R,0.0554X0.0554*%
%ADD19C,0.0554*%
%ADD20C,0.0100*%
%ADD21C,0.0500*%
%ADD22C,0.0531*%
%ADD23C,0.0200*%
%ADD24C,0.0300*%
D10*
X015687Y007077D03*
X017687Y006177D03*
X016687Y009077D03*
X019087Y010477D03*
X019087Y011477D03*
X019087Y012477D03*
X018137Y012377D03*
X017137Y012377D03*
X019087Y013477D03*
X018087Y014427D03*
X018087Y016427D03*
X023337Y016427D03*
X023337Y014427D03*
X022987Y012477D03*
X023787Y012477D03*
X022087Y012477D03*
X022087Y011477D03*
X022087Y010477D03*
X022987Y010477D03*
X023787Y010477D03*
X023487Y009477D03*
X023487Y008677D03*
X025487Y008677D03*
X025487Y009477D03*
D11*
X022587Y015477D03*
X018837Y015477D03*
D12*
X019837Y015477D03*
X021587Y015477D03*
X024087Y003477D03*
X025087Y003477D03*
X026087Y003477D03*
X027087Y003477D03*
X017087Y003477D03*
X016087Y003477D03*
X015087Y003477D03*
X014087Y003477D03*
D13*
X015687Y006177D03*
X016687Y007077D03*
X015687Y009077D03*
X022087Y013477D03*
D14*
X017937Y010777D03*
D15*
X017137Y010777D03*
D16*
X020094Y009036D03*
X020094Y008249D03*
X021079Y008249D03*
X021079Y009036D03*
D17*
X022987Y007277D03*
X018187Y007277D03*
D18*
X024637Y007321D03*
D19*
X024637Y006534D03*
D20*
X013880Y002881D02*
X013858Y002917D01*
X025593Y002917D01*
X025558Y002952D02*
X025633Y002877D01*
X026037Y002877D01*
X026037Y003427D01*
X026137Y003427D01*
X026137Y002877D01*
X026540Y002877D01*
X026615Y002952D01*
X026650Y002917D01*
X027205Y002917D01*
X026580Y002917D01*
X026137Y002917D02*
X026037Y002917D01*
X026037Y003016D02*
X026137Y003016D01*
X026137Y003114D02*
X026037Y003114D01*
X026037Y003213D02*
X026137Y003213D01*
X026137Y003311D02*
X026037Y003311D01*
X026037Y003410D02*
X026137Y003410D01*
X026137Y003528D02*
X026137Y003977D01*
X026037Y004077D01*
X026037Y003528D01*
X026137Y003528D01*
X026137Y003607D02*
X026037Y003607D01*
X026037Y003706D02*
X026137Y003706D01*
X026137Y003804D02*
X026037Y003804D01*
X026037Y003903D02*
X026137Y003903D01*
X026112Y004001D02*
X026037Y004001D01*
X026036Y004077D02*
X025633Y004077D01*
X025558Y004003D01*
X025547Y004014D01*
X025547Y004128D01*
X025277Y004397D01*
X025276Y004397D01*
X025136Y004537D01*
X025136Y004537D01*
X024447Y005226D01*
X024447Y006042D01*
X024532Y006007D01*
X024598Y006007D01*
X024598Y006495D01*
X024675Y006495D01*
X024675Y006007D01*
X024741Y006007D01*
X024877Y006063D01*
X024877Y005618D01*
X024877Y005237D01*
X026036Y004077D01*
X026014Y004100D02*
X025547Y004100D01*
X025476Y004198D02*
X025915Y004198D01*
X025817Y004297D02*
X025378Y004297D01*
X025279Y004395D02*
X025718Y004395D01*
X025620Y004494D02*
X025179Y004494D01*
X025081Y004592D02*
X025521Y004592D01*
X025422Y004691D02*
X024982Y004691D01*
X024884Y004790D02*
X025324Y004790D01*
X025225Y004888D02*
X024785Y004888D01*
X024686Y004987D02*
X025127Y004987D01*
X025028Y005085D02*
X024588Y005085D01*
X024489Y005184D02*
X024930Y005184D01*
X024877Y005282D02*
X024447Y005282D01*
X024447Y005381D02*
X024877Y005381D01*
X024877Y005479D02*
X024447Y005479D01*
X024447Y005578D02*
X024877Y005578D01*
X024877Y005676D02*
X024447Y005676D01*
X024447Y005775D02*
X024877Y005775D01*
X024877Y005874D02*
X024447Y005874D01*
X024447Y005972D02*
X024877Y005972D01*
X024675Y006071D02*
X024598Y006071D01*
X024598Y006169D02*
X024675Y006169D01*
X024675Y006268D02*
X024598Y006268D01*
X024598Y006366D02*
X024675Y006366D01*
X024675Y006465D02*
X024598Y006465D01*
X023727Y006465D02*
X023641Y006465D01*
X023574Y006398D02*
X023727Y006550D01*
X023727Y005326D01*
X022812Y006240D01*
X022937Y006240D01*
X022937Y007227D01*
X023037Y007227D01*
X023037Y006240D01*
X023193Y006240D01*
X023574Y006398D01*
X023498Y006366D02*
X023727Y006366D01*
X023727Y006268D02*
X023260Y006268D01*
X023037Y006268D02*
X022937Y006268D01*
X022937Y006366D02*
X023037Y006366D01*
X023037Y006465D02*
X022937Y006465D01*
X022937Y006563D02*
X023037Y006563D01*
X023037Y006662D02*
X022937Y006662D01*
X022937Y006760D02*
X023037Y006760D01*
X023037Y006859D02*
X022937Y006859D01*
X022937Y006957D02*
X023037Y006957D01*
X023037Y007056D02*
X022937Y007056D01*
X022937Y007155D02*
X023037Y007155D01*
X023037Y007328D02*
X022937Y007328D01*
X022937Y008315D01*
X022780Y008315D01*
X022399Y008157D01*
X022147Y007904D01*
X022147Y009606D01*
X021965Y009787D01*
X021797Y009956D01*
X021797Y010002D01*
X021977Y009927D01*
X022048Y009927D01*
X022048Y010439D01*
X022125Y010439D01*
X022125Y009927D01*
X022196Y009927D01*
X022398Y010011D01*
X022553Y010166D01*
X022560Y010183D01*
X022698Y010045D01*
X022885Y009967D01*
X023088Y009967D01*
X023209Y010017D01*
X023564Y010017D01*
X023685Y009967D01*
X023888Y009967D01*
X024075Y010045D01*
X024219Y010189D01*
X024297Y010376D01*
X024297Y010579D01*
X024219Y010766D01*
X024075Y010910D01*
X023888Y010987D01*
X023685Y010987D01*
X023564Y010937D01*
X023209Y010937D01*
X023088Y010987D01*
X022885Y010987D01*
X022698Y010910D01*
X022560Y010772D01*
X022553Y010789D01*
X022398Y010944D01*
X022264Y010999D01*
X022375Y011045D01*
X022519Y011189D01*
X022597Y011376D01*
X022597Y011579D01*
X022519Y011766D01*
X022375Y011910D01*
X022230Y011970D01*
X022255Y011995D01*
X022309Y012017D01*
X022764Y012017D01*
X022885Y011967D01*
X023088Y011967D01*
X023275Y012045D01*
X023387Y012156D01*
X023498Y012045D01*
X023685Y011967D01*
X023888Y011967D01*
X024075Y012045D01*
X024219Y012189D01*
X024297Y012376D01*
X024297Y012408D01*
X024377Y012328D01*
X024377Y009937D01*
X023709Y009937D01*
X023588Y009987D01*
X023385Y009987D01*
X023198Y009910D01*
X023054Y009766D01*
X022977Y009579D01*
X022977Y009376D01*
X023054Y009189D01*
X023165Y009077D01*
X023054Y008966D01*
X022977Y008779D01*
X022977Y008576D01*
X023054Y008389D01*
X023128Y008315D01*
X023037Y008315D01*
X023037Y007328D01*
X023037Y007352D02*
X022937Y007352D01*
X022937Y007450D02*
X023037Y007450D01*
X023037Y007549D02*
X022937Y007549D01*
X022937Y007647D02*
X023037Y007647D01*
X023037Y007746D02*
X022937Y007746D01*
X022937Y007844D02*
X023037Y007844D01*
X023037Y007943D02*
X022937Y007943D01*
X022937Y008041D02*
X023037Y008041D01*
X023037Y008140D02*
X022937Y008140D01*
X022937Y008239D02*
X023037Y008239D01*
X023106Y008337D02*
X022147Y008337D01*
X022147Y008239D02*
X022596Y008239D01*
X022382Y008140D02*
X022147Y008140D01*
X022147Y008041D02*
X022284Y008041D01*
X022185Y007943D02*
X022147Y007943D01*
X022147Y008436D02*
X023035Y008436D01*
X022994Y008534D02*
X022147Y008534D01*
X022147Y008633D02*
X022977Y008633D01*
X022977Y008731D02*
X022147Y008731D01*
X022147Y008830D02*
X022998Y008830D01*
X023039Y008928D02*
X022147Y008928D01*
X022147Y009027D02*
X023115Y009027D01*
X023117Y009125D02*
X022147Y009125D01*
X022147Y009224D02*
X023040Y009224D01*
X022999Y009323D02*
X022147Y009323D01*
X022147Y009421D02*
X022977Y009421D01*
X022977Y009520D02*
X022147Y009520D01*
X022134Y009618D02*
X022993Y009618D01*
X023034Y009717D02*
X022036Y009717D01*
X021965Y009787D02*
X021965Y009787D01*
X021937Y009815D02*
X023103Y009815D01*
X023208Y009914D02*
X021839Y009914D01*
X022048Y010012D02*
X022125Y010012D01*
X022125Y010111D02*
X022048Y010111D01*
X022048Y010209D02*
X022125Y010209D01*
X022125Y010308D02*
X022048Y010308D01*
X022048Y010406D02*
X022125Y010406D01*
X022541Y010801D02*
X022589Y010801D01*
X022687Y010899D02*
X022443Y010899D01*
X022427Y011096D02*
X024377Y011096D01*
X024377Y010998D02*
X022267Y010998D01*
X022522Y011195D02*
X024377Y011195D01*
X024377Y011293D02*
X022562Y011293D01*
X022597Y011392D02*
X024377Y011392D01*
X024377Y011490D02*
X022597Y011490D01*
X022592Y011589D02*
X024377Y011589D01*
X024377Y011688D02*
X022552Y011688D01*
X022499Y011786D02*
X024377Y011786D01*
X024377Y011885D02*
X022401Y011885D01*
X022243Y011983D02*
X022847Y011983D01*
X023126Y011983D02*
X023647Y011983D01*
X023461Y012082D02*
X023312Y012082D01*
X023926Y011983D02*
X024377Y011983D01*
X024377Y012082D02*
X024112Y012082D01*
X024211Y012180D02*
X024377Y012180D01*
X024377Y012279D02*
X024256Y012279D01*
X024297Y012377D02*
X024328Y012377D01*
X024827Y012896D02*
X024247Y013476D01*
X024247Y013618D01*
X023977Y013887D01*
X022574Y013887D01*
X022474Y013987D01*
X021700Y013987D01*
X021577Y013864D01*
X021577Y013090D01*
X021700Y012967D01*
X021937Y012967D01*
X021798Y012910D01*
X021654Y012766D01*
X021604Y012646D01*
X020877Y011918D01*
X020877Y011856D01*
X020877Y011599D01*
X020877Y011496D01*
X020877Y011239D01*
X020877Y009499D01*
X020905Y009471D01*
X020818Y009434D01*
X020197Y010056D01*
X020197Y011339D01*
X020197Y011596D01*
X020197Y011637D01*
X020197Y012018D01*
X019569Y012646D01*
X019519Y012766D01*
X019375Y012910D01*
X019212Y012977D01*
X019375Y013045D01*
X019519Y013189D01*
X019597Y013376D01*
X019597Y013579D01*
X019519Y013766D01*
X019375Y013910D01*
X019188Y013987D01*
X018985Y013987D01*
X018798Y013910D01*
X018654Y013766D01*
X018577Y013579D01*
X018577Y013376D01*
X018654Y013189D01*
X018798Y013045D01*
X018961Y012977D01*
X018798Y012910D01*
X018654Y012766D01*
X018613Y012666D01*
X018603Y012689D01*
X018448Y012844D01*
X018246Y012927D01*
X018172Y012927D01*
X018172Y012413D01*
X018102Y012413D01*
X018102Y012927D01*
X018027Y012927D01*
X017825Y012844D01*
X017670Y012689D01*
X017615Y012555D01*
X017569Y012666D01*
X017547Y012689D01*
X017547Y013967D01*
X017864Y013967D01*
X017985Y013917D01*
X018188Y013917D01*
X018375Y013995D01*
X018519Y014139D01*
X018597Y014326D01*
X018597Y014529D01*
X018519Y014716D01*
X018375Y014860D01*
X018188Y014937D01*
X017985Y014937D01*
X017864Y014887D01*
X017547Y014887D01*
X017547Y016837D01*
X017777Y017067D01*
X023446Y017067D01*
X024827Y015687D01*
X024827Y012896D01*
X024827Y012969D02*
X024754Y012969D01*
X024827Y013067D02*
X024656Y013067D01*
X024557Y013166D02*
X024827Y013166D01*
X024827Y013264D02*
X024459Y013264D01*
X024360Y013363D02*
X024827Y013363D01*
X024827Y013461D02*
X024262Y013461D01*
X024247Y013560D02*
X024827Y013560D01*
X024827Y013658D02*
X024206Y013658D01*
X024108Y013757D02*
X024827Y013757D01*
X024827Y013856D02*
X024009Y013856D01*
X023769Y014139D02*
X023847Y014326D01*
X023847Y014529D01*
X023769Y014716D01*
X023625Y014860D01*
X023438Y014937D01*
X023235Y014937D01*
X023048Y014860D01*
X022904Y014716D01*
X022827Y014529D01*
X022827Y014326D01*
X022904Y014139D01*
X023048Y013995D01*
X023235Y013917D01*
X023438Y013917D01*
X023625Y013995D01*
X023769Y014139D01*
X023774Y014151D02*
X024827Y014151D01*
X024827Y014053D02*
X023683Y014053D01*
X023527Y013954D02*
X024827Y013954D01*
X024827Y014250D02*
X023815Y014250D01*
X023847Y014348D02*
X024827Y014348D01*
X024827Y014447D02*
X023847Y014447D01*
X023840Y014545D02*
X024827Y014545D01*
X024827Y014644D02*
X023799Y014644D01*
X023743Y014742D02*
X024827Y014742D01*
X024827Y014841D02*
X023644Y014841D01*
X023029Y014841D02*
X018394Y014841D01*
X018493Y014742D02*
X022930Y014742D01*
X022874Y014644D02*
X018549Y014644D01*
X018590Y014545D02*
X022833Y014545D01*
X022827Y014447D02*
X018597Y014447D01*
X018597Y014348D02*
X022827Y014348D01*
X022858Y014250D02*
X018565Y014250D01*
X018524Y014151D02*
X022899Y014151D01*
X022990Y014053D02*
X018433Y014053D01*
X018277Y013954D02*
X018905Y013954D01*
X018744Y013856D02*
X017547Y013856D01*
X017547Y013954D02*
X017897Y013954D01*
X017547Y013757D02*
X018650Y013757D01*
X018610Y013658D02*
X017547Y013658D01*
X017547Y013560D02*
X018577Y013560D01*
X018577Y013461D02*
X017547Y013461D01*
X017547Y013363D02*
X018582Y013363D01*
X018623Y013264D02*
X017547Y013264D01*
X017547Y013166D02*
X018677Y013166D01*
X018776Y013067D02*
X017547Y013067D01*
X017547Y012969D02*
X018940Y012969D01*
X018758Y012870D02*
X018384Y012870D01*
X018520Y012772D02*
X018660Y012772D01*
X018616Y012673D02*
X018609Y012673D01*
X018172Y012673D02*
X018102Y012673D01*
X018102Y012772D02*
X018172Y012772D01*
X018172Y012870D02*
X018102Y012870D01*
X017889Y012870D02*
X017547Y012870D01*
X017547Y012772D02*
X017753Y012772D01*
X017664Y012673D02*
X017562Y012673D01*
X017607Y012574D02*
X017623Y012574D01*
X018102Y012574D02*
X018172Y012574D01*
X018172Y012476D02*
X018102Y012476D01*
X018102Y012342D02*
X018172Y012342D01*
X018172Y011827D01*
X018246Y011827D01*
X018448Y011911D01*
X018603Y012066D01*
X018654Y012189D01*
X018654Y012189D01*
X018798Y012045D01*
X018918Y011995D01*
X018943Y011970D01*
X018798Y011910D01*
X018654Y011766D01*
X018577Y011579D01*
X018577Y011376D01*
X018654Y011189D01*
X018798Y011045D01*
X018918Y010995D01*
X018943Y010970D01*
X018798Y010910D01*
X018654Y010766D01*
X018577Y010579D01*
X018577Y010376D01*
X018627Y010255D01*
X018627Y009287D01*
X018896Y009017D01*
X018898Y009017D01*
X018927Y008989D01*
X018927Y008004D01*
X018774Y008157D01*
X018393Y008315D01*
X018237Y008315D01*
X018237Y007328D01*
X018137Y007328D01*
X018137Y008315D01*
X017980Y008315D01*
X017599Y008157D01*
X017307Y007865D01*
X017157Y007504D01*
X017074Y007587D01*
X016300Y007587D01*
X016250Y007537D01*
X015909Y007537D01*
X015788Y007587D01*
X015585Y007587D01*
X015497Y007551D01*
X015497Y008237D01*
X015827Y008567D01*
X016074Y008567D01*
X016197Y008690D01*
X016197Y008928D01*
X016254Y008789D01*
X016398Y008645D01*
X016585Y008567D01*
X016788Y008567D01*
X016975Y008645D01*
X017119Y008789D01*
X017197Y008976D01*
X017197Y009179D01*
X017119Y009366D01*
X016975Y009510D01*
X016830Y009570D01*
X017327Y010067D01*
X017550Y010290D01*
X017573Y010267D01*
X017907Y010267D01*
X017907Y010747D01*
X017967Y010747D01*
X017967Y010807D01*
X018447Y010807D01*
X018447Y011141D01*
X018300Y011287D01*
X017967Y011287D01*
X017967Y010808D01*
X017907Y010808D01*
X017907Y011287D01*
X017597Y011287D01*
X017597Y012155D01*
X017615Y012200D01*
X017670Y012066D01*
X017825Y011911D01*
X018027Y011827D01*
X018102Y011827D01*
X018102Y012342D01*
X018102Y012279D02*
X018172Y012279D01*
X018172Y012180D02*
X018102Y012180D01*
X018102Y012082D02*
X018172Y012082D01*
X018172Y011983D02*
X018102Y011983D01*
X018102Y011885D02*
X018172Y011885D01*
X018384Y011885D02*
X018773Y011885D01*
X018674Y011786D02*
X017597Y011786D01*
X017597Y011688D02*
X018622Y011688D01*
X018581Y011589D02*
X017597Y011589D01*
X017597Y011490D02*
X018577Y011490D01*
X018577Y011392D02*
X017597Y011392D01*
X017597Y011293D02*
X018611Y011293D01*
X018652Y011195D02*
X018393Y011195D01*
X018447Y011096D02*
X018746Y011096D01*
X018912Y010998D02*
X018447Y010998D01*
X018447Y010899D02*
X018787Y010899D01*
X018689Y010801D02*
X017967Y010801D01*
X017967Y010747D02*
X018447Y010747D01*
X018447Y010414D01*
X018300Y010267D01*
X017967Y010267D01*
X017967Y010747D01*
X017967Y010702D02*
X017907Y010702D01*
X017907Y010604D02*
X017967Y010604D01*
X017967Y010505D02*
X017907Y010505D01*
X017907Y010406D02*
X017967Y010406D01*
X017967Y010308D02*
X017907Y010308D01*
X018341Y010308D02*
X018605Y010308D01*
X018627Y010209D02*
X017469Y010209D01*
X017371Y010111D02*
X018627Y010111D01*
X018627Y010012D02*
X017272Y010012D01*
X017173Y009914D02*
X018627Y009914D01*
X018627Y009815D02*
X017075Y009815D01*
X016976Y009717D02*
X018627Y009717D01*
X018627Y009618D02*
X016878Y009618D01*
X016952Y009520D02*
X018627Y009520D01*
X018627Y009421D02*
X017064Y009421D01*
X017137Y009323D02*
X018627Y009323D01*
X018689Y009224D02*
X017178Y009224D01*
X017197Y009125D02*
X018788Y009125D01*
X018887Y009027D02*
X017197Y009027D01*
X017177Y008928D02*
X018927Y008928D01*
X018927Y008830D02*
X017136Y008830D01*
X017062Y008731D02*
X018927Y008731D01*
X018927Y008633D02*
X016946Y008633D01*
X016427Y008633D02*
X016139Y008633D01*
X016197Y008731D02*
X016311Y008731D01*
X016237Y008830D02*
X016197Y008830D01*
X015794Y008534D02*
X018927Y008534D01*
X018927Y008436D02*
X015695Y008436D01*
X015597Y008337D02*
X018927Y008337D01*
X018927Y008239D02*
X018577Y008239D01*
X018791Y008140D02*
X018927Y008140D01*
X018927Y008041D02*
X018890Y008041D01*
X018237Y008041D02*
X018137Y008041D01*
X018137Y007943D02*
X018237Y007943D01*
X018237Y007844D02*
X018137Y007844D01*
X018137Y007746D02*
X018237Y007746D01*
X018237Y007647D02*
X018137Y007647D01*
X018137Y007549D02*
X018237Y007549D01*
X018237Y007450D02*
X018137Y007450D01*
X018137Y007352D02*
X018237Y007352D01*
X018237Y007227D02*
X018137Y007227D01*
X018137Y006424D01*
X018197Y006279D01*
X018197Y006076D01*
X018119Y005889D01*
X017975Y005745D01*
X017788Y005667D01*
X017585Y005667D01*
X017398Y005745D01*
X017254Y005889D01*
X017177Y006076D01*
X017177Y006279D01*
X017254Y006466D01*
X017392Y006604D01*
X017307Y006690D01*
X017197Y006957D01*
X017197Y006690D01*
X017074Y006567D01*
X016300Y006567D01*
X016250Y006617D01*
X016144Y006617D01*
X016197Y006564D01*
X016197Y005790D01*
X016074Y005667D01*
X015627Y005667D01*
X015627Y005510D01*
X015519Y005402D01*
X015519Y005402D01*
X015481Y005364D01*
X015428Y005364D01*
X015169Y005256D01*
X015115Y005233D01*
X015066Y005212D01*
X014970Y005165D01*
X014923Y005139D01*
X014833Y005088D01*
X014833Y005088D01*
X014832Y005087D01*
X014858Y005087D01*
X015218Y005087D01*
X015475Y005087D01*
X018708Y005087D01*
X018927Y005306D01*
X018927Y006550D01*
X018774Y006398D01*
X018393Y006240D01*
X018237Y006240D01*
X018237Y007227D01*
X018237Y007155D02*
X018137Y007155D01*
X018137Y007056D02*
X018237Y007056D01*
X018237Y006957D02*
X018137Y006957D01*
X018137Y006859D02*
X018237Y006859D01*
X018237Y006760D02*
X018137Y006760D01*
X018137Y006662D02*
X018237Y006662D01*
X018237Y006563D02*
X018137Y006563D01*
X018137Y006465D02*
X018237Y006465D01*
X018237Y006366D02*
X018160Y006366D01*
X018197Y006268D02*
X018237Y006268D01*
X018197Y006169D02*
X018927Y006169D01*
X018927Y006071D02*
X018194Y006071D01*
X018154Y005972D02*
X018927Y005972D01*
X018927Y005874D02*
X018104Y005874D01*
X018005Y005775D02*
X018927Y005775D01*
X018927Y005676D02*
X017810Y005676D01*
X017563Y005676D02*
X016083Y005676D01*
X016181Y005775D02*
X017368Y005775D01*
X017269Y005874D02*
X016197Y005874D01*
X016197Y005972D02*
X017220Y005972D01*
X017179Y006071D02*
X016197Y006071D01*
X016197Y006169D02*
X017177Y006169D01*
X017177Y006268D02*
X016197Y006268D01*
X016197Y006366D02*
X017213Y006366D01*
X017254Y006465D02*
X016197Y006465D01*
X016197Y006563D02*
X017351Y006563D01*
X017335Y006662D02*
X017168Y006662D01*
X017197Y006760D02*
X017278Y006760D01*
X017237Y006859D02*
X017197Y006859D01*
X017176Y007549D02*
X017112Y007549D01*
X017217Y007647D02*
X015497Y007647D01*
X015497Y007746D02*
X017258Y007746D01*
X017299Y007844D02*
X015497Y007844D01*
X015497Y007943D02*
X017385Y007943D01*
X017484Y008041D02*
X015497Y008041D01*
X015497Y008140D02*
X017582Y008140D01*
X017796Y008239D02*
X015498Y008239D01*
X014846Y008887D02*
X014846Y008887D01*
X014577Y008618D01*
X014577Y007422D01*
X014363Y007956D01*
X014359Y007968D01*
X014356Y007981D01*
X014349Y008015D01*
X014335Y008082D01*
X014190Y008810D01*
X014170Y008911D01*
X014168Y008918D01*
X014167Y008925D01*
X014157Y009028D01*
X014142Y009177D01*
X014142Y009177D01*
X014132Y009280D01*
X014131Y009287D01*
X014131Y009294D01*
X014131Y009722D01*
X014131Y009823D01*
X014131Y009929D01*
X014104Y009956D01*
X014103Y009958D01*
X014103Y009958D01*
X014049Y010032D01*
X014049Y010032D01*
X013975Y010086D01*
X013973Y010087D01*
X013945Y010115D01*
X013851Y010115D01*
X013842Y010115D01*
X013739Y010115D01*
X013729Y010105D01*
X013716Y010102D01*
X013683Y010095D01*
X013683Y010095D01*
X013625Y010084D01*
X013615Y010082D01*
X013581Y010075D01*
X013543Y010067D01*
X013543Y010067D01*
X013542Y010067D01*
X013507Y010060D01*
X013500Y010053D01*
X013439Y010033D01*
X013298Y009986D01*
X013298Y009986D01*
X013200Y009953D01*
X013174Y009945D01*
X013168Y009945D01*
X013156Y009939D01*
X013144Y009934D01*
X013140Y009930D01*
X013115Y009918D01*
X013067Y009894D01*
X013048Y009884D01*
X013048Y009884D01*
X012955Y009838D01*
X012943Y009832D01*
X012919Y009820D01*
X012882Y009802D01*
X012742Y009718D01*
X012740Y009716D01*
X012411Y009486D01*
X012072Y009298D01*
X011888Y009206D01*
X011888Y009206D01*
X011797Y009160D01*
X011795Y009160D01*
X011783Y009154D01*
X011771Y009150D01*
X011737Y009141D01*
X011671Y009122D01*
X011671Y009122D01*
X011619Y009107D01*
X011583Y009096D01*
X011573Y009094D01*
X011553Y009091D01*
X011543Y009091D01*
X011445Y009091D01*
X011425Y009105D01*
X011418Y009091D01*
X011386Y009091D01*
X011375Y009100D01*
X011353Y009124D01*
X011337Y009148D01*
X011336Y009157D01*
X011336Y009166D01*
X011336Y009221D01*
X011337Y009223D01*
X011336Y009326D01*
X011337Y009366D01*
X011351Y009446D01*
X011379Y009521D01*
X011396Y009556D01*
X011398Y009559D01*
X011449Y009646D01*
X011449Y009649D01*
X011497Y009736D01*
X011498Y009738D01*
X011499Y009738D01*
X011555Y009824D01*
X011613Y009910D01*
X011738Y010075D01*
X011801Y010149D01*
X012048Y010395D01*
X012054Y010395D01*
X012121Y010468D01*
X012133Y010480D01*
X012209Y010549D01*
X013821Y012017D01*
X013828Y012017D01*
X013903Y012093D01*
X013974Y012163D01*
X013974Y012168D01*
X014528Y012757D01*
X014554Y012785D01*
X014575Y012806D01*
X014575Y012819D01*
X014590Y012844D01*
X014643Y012933D01*
X014731Y013079D01*
X014731Y013079D01*
X014751Y013113D01*
X014820Y013227D01*
X014820Y013230D01*
X014834Y013270D01*
X014838Y013283D01*
X014873Y013380D01*
X014979Y013676D01*
X015008Y013756D01*
X015014Y013774D01*
X015021Y013781D01*
X015028Y013812D01*
X015028Y013814D01*
X015028Y013815D01*
X015044Y013889D01*
X015058Y013954D01*
X016627Y013954D01*
X016627Y013856D02*
X015037Y013856D01*
X015058Y013954D02*
X015201Y014609D01*
X015218Y014689D01*
X015226Y014697D01*
X015231Y014748D01*
X015231Y014748D01*
X015231Y014748D01*
X015235Y014787D01*
X015238Y014822D01*
X015303Y015500D01*
X015304Y015501D01*
X015311Y015590D01*
X015312Y015601D01*
X015312Y015603D01*
X015364Y016198D01*
X015369Y016254D01*
X015373Y016301D01*
X015383Y016386D01*
X015414Y016554D01*
X015436Y016637D01*
X015466Y016736D01*
X015576Y017110D01*
X015638Y017281D01*
X015673Y017378D01*
X015699Y017446D01*
X015761Y017579D01*
X015796Y017643D01*
X015847Y017733D01*
X016010Y018017D01*
X016023Y018041D01*
X016027Y018048D01*
X016028Y018050D01*
X016036Y018063D01*
X016083Y018143D01*
X016083Y018143D01*
X016193Y018332D01*
X016230Y018396D01*
X016245Y018421D01*
X016297Y018505D01*
X016354Y018586D01*
X016514Y018799D01*
X016571Y018871D01*
X016696Y019005D01*
X016763Y019067D01*
X016841Y019134D01*
X016841Y019134D01*
X017032Y019299D01*
X017075Y019337D01*
X017110Y019367D01*
X017186Y019429D01*
X017265Y019487D01*
X017350Y019545D01*
X017906Y019925D01*
X018431Y020188D01*
X018431Y020188D01*
X018523Y020234D01*
X018592Y020266D01*
X018722Y020317D01*
X018730Y020314D01*
X018815Y020348D01*
X018903Y020374D01*
X018909Y020386D01*
X018916Y020389D01*
X019083Y020487D01*
X019083Y020487D01*
X019234Y020609D01*
X019365Y020752D01*
X019474Y020912D01*
X019474Y020912D01*
X019558Y021087D01*
X019614Y021273D01*
X019642Y021457D01*
X019643Y021458D01*
X019643Y021542D01*
X019643Y021562D01*
X019643Y021665D01*
X019643Y021927D01*
X019643Y022031D01*
X019645Y022097D01*
X019664Y022229D01*
X019702Y022356D01*
X019757Y022477D01*
X019829Y022589D01*
X019916Y022689D01*
X020016Y022776D01*
X020128Y022848D01*
X020249Y022904D01*
X020377Y022941D01*
X020508Y022960D01*
X020575Y022962D01*
X020641Y022960D01*
X020773Y022941D01*
X020900Y022904D01*
X021021Y022848D01*
X021133Y022776D01*
X021234Y022689D01*
X021321Y022589D01*
X021393Y022477D01*
X021448Y022356D01*
X021485Y022229D01*
X021504Y022097D01*
X021507Y022031D01*
X021507Y021419D01*
X021508Y021417D01*
X021534Y021246D01*
X021535Y021246D02*
X020773Y021246D01*
X020734Y021230D02*
X021028Y021352D01*
X021253Y021577D01*
X021375Y021871D01*
X021375Y022190D01*
X021253Y022484D01*
X021028Y022709D01*
X020734Y022831D01*
X020416Y022831D01*
X020121Y022709D01*
X019896Y022484D01*
X019774Y022190D01*
X019774Y021871D01*
X019896Y021577D01*
X020121Y021352D01*
X020416Y021230D01*
X020734Y021230D01*
X021011Y021345D02*
X021519Y021345D01*
X021507Y021443D02*
X021120Y021443D01*
X021218Y021542D02*
X021507Y021542D01*
X021507Y021640D02*
X021280Y021640D01*
X021320Y021739D02*
X021507Y021739D01*
X021507Y021838D02*
X021361Y021838D01*
X021375Y021936D02*
X021507Y021936D01*
X021506Y022035D02*
X021375Y022035D01*
X021375Y022133D02*
X021499Y022133D01*
X021484Y022232D02*
X021358Y022232D01*
X021317Y022330D02*
X021455Y022330D01*
X021415Y022429D02*
X021276Y022429D01*
X021210Y022527D02*
X021360Y022527D01*
X021289Y022626D02*
X021112Y022626D01*
X021193Y022724D02*
X020991Y022724D01*
X021061Y022823D02*
X020754Y022823D01*
X020839Y022921D02*
X020310Y022921D01*
X020396Y022823D02*
X020089Y022823D01*
X020158Y022724D02*
X019956Y022724D01*
X020038Y022626D02*
X019861Y022626D01*
X019789Y022527D02*
X019939Y022527D01*
X019873Y022429D02*
X019735Y022429D01*
X019694Y022330D02*
X019832Y022330D01*
X019792Y022232D02*
X019665Y022232D01*
X019651Y022133D02*
X019774Y022133D01*
X019774Y022035D02*
X019643Y022035D01*
X019643Y021936D02*
X019774Y021936D01*
X019788Y021838D02*
X019643Y021838D01*
X019643Y021739D02*
X019829Y021739D01*
X019870Y021640D02*
X019643Y021640D01*
X019643Y021542D02*
X019931Y021542D01*
X020030Y021443D02*
X019640Y021443D01*
X019625Y021345D02*
X020138Y021345D01*
X020376Y021246D02*
X019606Y021246D01*
X019614Y021273D02*
X019614Y021273D01*
X019576Y021148D02*
X021565Y021148D01*
X021590Y021070D02*
X021671Y020903D01*
X021777Y020751D01*
X021904Y020617D01*
X022050Y020503D01*
X022204Y020417D01*
X022206Y020412D01*
X022301Y020379D01*
X022308Y020376D01*
X022350Y020360D01*
X022440Y020315D01*
X022465Y020299D01*
X022474Y020290D01*
X022496Y020279D01*
X022569Y020230D01*
X022587Y020234D01*
X022742Y020156D01*
X023197Y019903D01*
X023288Y019853D01*
X023356Y019813D01*
X023486Y019725D01*
X023548Y019676D01*
X023627Y019610D01*
X023627Y019610D01*
X024137Y019189D01*
X024217Y019123D01*
X024217Y019123D01*
X024259Y019087D01*
X024338Y019013D01*
X024376Y018973D01*
X024447Y018898D01*
X024688Y018641D01*
X024758Y018566D01*
X024810Y018508D01*
X024907Y018384D01*
X024950Y018320D01*
X025006Y018233D01*
X025080Y018118D01*
X025080Y018118D01*
X025136Y018031D01*
X025166Y017982D01*
X025222Y017880D01*
X025247Y017828D01*
X025256Y017811D01*
X025375Y017554D01*
X025419Y017461D01*
X025458Y017370D01*
X025492Y017277D01*
X025525Y017179D01*
X025651Y016801D01*
X025713Y016567D01*
X025740Y016467D01*
X025758Y016395D01*
X025783Y016248D01*
X025796Y016099D01*
X025798Y016025D01*
X025798Y015057D01*
X025798Y015050D01*
X025798Y015050D01*
X025809Y014940D01*
X025819Y014837D01*
X025819Y014837D01*
X025822Y014804D01*
X025833Y014697D01*
X025834Y014697D01*
X025860Y014547D01*
X025879Y014469D01*
X025904Y014369D01*
X025905Y014369D01*
X025947Y014201D01*
X025972Y014100D01*
X025983Y014055D01*
X025988Y014033D01*
X025988Y014033D01*
X025989Y014031D01*
X026032Y013896D01*
X026041Y013874D01*
X026041Y013874D01*
X026042Y013870D01*
X026058Y013830D01*
X026095Y013734D01*
X026096Y013734D02*
X026245Y013352D01*
X026282Y013256D01*
X026329Y013136D01*
X026451Y012908D01*
X026480Y012866D01*
X026480Y012866D01*
X026524Y012802D01*
X026583Y012717D01*
X026583Y012717D01*
X026662Y012603D01*
X026693Y012558D01*
X026755Y012469D01*
X026765Y012457D01*
X026767Y012454D01*
X026824Y012387D01*
X026890Y012309D01*
X027046Y012125D01*
X027112Y012047D01*
X027159Y011991D01*
X027260Y011887D01*
X027313Y011838D01*
X027314Y011838D01*
X027390Y011769D01*
X027647Y011535D01*
X027650Y011532D01*
X027654Y011528D01*
X027722Y011466D01*
X027728Y011466D01*
X028162Y011099D01*
X028168Y011092D01*
X028177Y011086D01*
X028239Y011033D01*
X028250Y011033D01*
X028607Y010774D01*
X028986Y010432D01*
X029208Y010210D01*
X029459Y009896D01*
X029459Y009895D01*
X029508Y009835D01*
X029523Y009817D01*
X029523Y009816D01*
X029736Y009552D01*
X029746Y009535D01*
X029769Y009491D01*
X029785Y009457D01*
X029791Y009440D01*
X029798Y009424D01*
X029810Y009368D01*
X029809Y009367D01*
X029814Y009269D01*
X029814Y009242D01*
X029806Y009199D01*
X029792Y009165D01*
X029773Y009133D01*
X029773Y009132D01*
X029756Y009130D01*
X029728Y009130D01*
X029630Y009134D01*
X029626Y009130D01*
X029573Y009130D01*
X029559Y009130D01*
X029469Y009130D01*
X029456Y009131D01*
X029429Y009136D01*
X029416Y009141D01*
X029320Y009179D01*
X029299Y009187D01*
X028762Y009456D01*
X028443Y009633D01*
X028442Y009634D01*
X028414Y009649D01*
X028356Y009681D01*
X028355Y009681D01*
X028009Y009870D01*
X028006Y009873D01*
X027974Y009889D01*
X027922Y009918D01*
X027917Y009918D01*
X027744Y010004D01*
X027680Y010036D01*
X027665Y010044D01*
X027663Y010049D01*
X027651Y010053D01*
X027639Y010057D01*
X027627Y010063D01*
X027621Y010063D01*
X027579Y010077D01*
X027498Y010104D01*
X027493Y010101D01*
X027413Y010114D01*
X027383Y010114D01*
X027351Y010120D01*
X027288Y010115D01*
X027258Y010115D01*
X027255Y010112D01*
X027244Y010111D01*
X027243Y010111D02*
X027189Y010091D01*
X027150Y010093D01*
X027085Y010034D01*
X027013Y009983D01*
X027006Y009945D01*
X026976Y009898D01*
X026976Y009898D01*
X026962Y009855D01*
X026940Y009833D01*
X026940Y009736D01*
X026934Y009639D01*
X026940Y009634D01*
X026940Y009051D01*
X026903Y008680D01*
X026837Y008330D01*
X026818Y008229D01*
X026803Y008156D01*
X026763Y008012D01*
X026738Y007942D01*
X026702Y007845D01*
X026536Y007402D01*
X026535Y007402D01*
X026499Y007306D01*
X026499Y007305D01*
X026474Y007242D01*
X026415Y007117D01*
X026382Y007056D01*
X025797Y007056D01*
X025797Y006957D02*
X026326Y006957D01*
X026331Y006966D02*
X026066Y006504D01*
X026015Y006414D01*
X025991Y006373D01*
X025966Y006333D01*
X025929Y006275D01*
X025797Y006071D01*
X025797Y007287D01*
X026597Y008087D01*
X026597Y008468D01*
X026597Y009237D01*
X026597Y009618D01*
X026547Y009668D01*
X025747Y010468D01*
X025747Y012345D01*
X025762Y012383D01*
X025762Y012572D01*
X025747Y012610D01*
X025747Y012668D01*
X025747Y016068D01*
X025477Y016337D01*
X023827Y017987D01*
X023446Y017987D01*
X017396Y017987D01*
X017127Y017718D01*
X016627Y017218D01*
X016627Y016837D01*
X016627Y014618D01*
X016627Y012187D01*
X016677Y012137D01*
X016677Y010968D01*
X016677Y010895D01*
X016667Y010871D01*
X016667Y010708D01*
X015546Y009587D01*
X015300Y009587D01*
X015177Y009464D01*
X015177Y009218D01*
X014846Y008887D01*
X014887Y008928D02*
X014167Y008928D01*
X014157Y009027D02*
X014986Y009027D01*
X015084Y009125D02*
X014147Y009125D01*
X014157Y009028D02*
X014157Y009028D01*
X014138Y009224D02*
X015177Y009224D01*
X015177Y009323D02*
X014131Y009323D01*
X014131Y009421D02*
X015177Y009421D01*
X015232Y009520D02*
X014131Y009520D01*
X014131Y009618D02*
X015577Y009618D01*
X015675Y009717D02*
X014131Y009717D01*
X014131Y009815D02*
X015774Y009815D01*
X015873Y009914D02*
X014131Y009914D01*
X014064Y010012D02*
X015971Y010012D01*
X016070Y010111D02*
X013949Y010111D01*
X013975Y010086D02*
X013975Y010086D01*
X014049Y010032D02*
X014049Y010032D01*
X013735Y010111D02*
X011768Y010111D01*
X011691Y010012D02*
X013377Y010012D01*
X013542Y010067D02*
X013542Y010067D01*
X013542Y010067D01*
X013107Y009914D02*
X011616Y009914D01*
X011549Y009815D02*
X012909Y009815D01*
X012919Y009820D02*
X012919Y009820D01*
X012882Y009802D02*
X012882Y009802D01*
X012742Y009718D02*
X012742Y009718D01*
X012740Y009717D02*
X011486Y009717D01*
X011433Y009618D02*
X012599Y009618D01*
X012459Y009520D02*
X011378Y009520D01*
X011347Y009421D02*
X012294Y009421D01*
X012116Y009323D02*
X011336Y009323D01*
X011336Y009326D02*
X011336Y009326D01*
X011337Y009224D02*
X011924Y009224D01*
X011684Y009125D02*
X011352Y009125D01*
X012740Y009716D02*
X012740Y009716D01*
X011960Y010308D02*
X016267Y010308D01*
X016365Y010406D02*
X012064Y010406D01*
X012161Y010505D02*
X016464Y010505D01*
X016562Y010604D02*
X012269Y010604D01*
X012209Y010549D02*
X012209Y010549D01*
X012377Y010702D02*
X016661Y010702D01*
X016667Y010801D02*
X012485Y010801D01*
X012594Y010899D02*
X016677Y010899D01*
X016677Y010998D02*
X012702Y010998D01*
X012810Y011096D02*
X016677Y011096D01*
X016677Y011195D02*
X012918Y011195D01*
X013026Y011293D02*
X016677Y011293D01*
X016677Y011392D02*
X013134Y011392D01*
X013243Y011490D02*
X016677Y011490D01*
X016677Y011589D02*
X013351Y011589D01*
X013459Y011688D02*
X016677Y011688D01*
X016677Y011786D02*
X013567Y011786D01*
X013675Y011885D02*
X016677Y011885D01*
X016677Y011983D02*
X013783Y011983D01*
X013892Y012082D02*
X016677Y012082D01*
X016633Y012180D02*
X013985Y012180D01*
X013903Y012093D02*
X013903Y012093D01*
X014078Y012279D02*
X016627Y012279D01*
X016627Y012377D02*
X014171Y012377D01*
X014264Y012476D02*
X016627Y012476D01*
X016627Y012574D02*
X014356Y012574D01*
X014449Y012673D02*
X016627Y012673D01*
X016627Y012772D02*
X014542Y012772D01*
X014606Y012870D02*
X016627Y012870D01*
X016627Y012969D02*
X014665Y012969D01*
X014643Y012933D02*
X014643Y012933D01*
X014724Y013067D02*
X016627Y013067D01*
X016627Y013166D02*
X014783Y013166D01*
X014832Y013264D02*
X016627Y013264D01*
X016627Y013363D02*
X014867Y013363D01*
X014873Y013380D02*
X014873Y013380D01*
X014902Y013461D02*
X016627Y013461D01*
X016627Y013560D02*
X014937Y013560D01*
X014973Y013658D02*
X016627Y013658D01*
X016627Y013757D02*
X015008Y013757D01*
X014979Y013676D02*
X014979Y013676D01*
X015058Y013954D02*
X015058Y013954D01*
X015080Y014053D02*
X016627Y014053D01*
X016627Y014151D02*
X015101Y014151D01*
X015123Y014250D02*
X016627Y014250D01*
X016627Y014348D02*
X015144Y014348D01*
X015166Y014447D02*
X016627Y014447D01*
X016627Y014545D02*
X015187Y014545D01*
X015201Y014609D02*
X015201Y014609D01*
X015208Y014644D02*
X016627Y014644D01*
X016627Y014742D02*
X015230Y014742D01*
X015240Y014841D02*
X016627Y014841D01*
X016627Y014939D02*
X015249Y014939D01*
X015259Y015038D02*
X016627Y015038D01*
X016627Y015137D02*
X015268Y015137D01*
X015277Y015235D02*
X016627Y015235D01*
X016627Y015334D02*
X015287Y015334D01*
X015296Y015432D02*
X016627Y015432D01*
X016627Y015531D02*
X015306Y015531D01*
X015315Y015629D02*
X016627Y015629D01*
X016627Y015728D02*
X015323Y015728D01*
X015332Y015826D02*
X016627Y015826D01*
X016627Y015925D02*
X015340Y015925D01*
X015349Y016023D02*
X016627Y016023D01*
X016627Y016122D02*
X015357Y016122D01*
X015366Y016221D02*
X016627Y016221D01*
X016627Y016319D02*
X015375Y016319D01*
X015389Y016418D02*
X016627Y016418D01*
X016627Y016516D02*
X015407Y016516D01*
X015430Y016615D02*
X016627Y016615D01*
X016627Y016713D02*
X015459Y016713D01*
X015488Y016812D02*
X016627Y016812D01*
X016627Y016910D02*
X015517Y016910D01*
X015546Y017009D02*
X016627Y017009D01*
X016627Y017107D02*
X015575Y017107D01*
X015610Y017206D02*
X016627Y017206D01*
X016713Y017305D02*
X015646Y017305D01*
X015638Y017281D02*
X015638Y017281D01*
X015683Y017403D02*
X016812Y017403D01*
X016910Y017502D02*
X015725Y017502D01*
X015772Y017600D02*
X017009Y017600D01*
X017107Y017699D02*
X015828Y017699D01*
X015847Y017733D02*
X015847Y017733D01*
X015884Y017797D02*
X017206Y017797D01*
X017304Y017896D02*
X015940Y017896D01*
X015996Y017994D02*
X025158Y017994D01*
X025214Y017896D02*
X023919Y017896D01*
X024017Y017797D02*
X025262Y017797D01*
X025308Y017699D02*
X024116Y017699D01*
X024214Y017600D02*
X025354Y017600D01*
X025375Y017554D02*
X025375Y017554D01*
X025400Y017502D02*
X024313Y017502D01*
X024411Y017403D02*
X025444Y017403D01*
X025482Y017305D02*
X024510Y017305D01*
X024609Y017206D02*
X025516Y017206D01*
X025525Y017179D02*
X025525Y017179D01*
X025549Y017107D02*
X024707Y017107D01*
X024806Y017009D02*
X025582Y017009D01*
X025614Y016910D02*
X024904Y016910D01*
X025003Y016812D02*
X025647Y016812D01*
X025674Y016713D02*
X025101Y016713D01*
X025200Y016615D02*
X025701Y016615D01*
X025727Y016516D02*
X025298Y016516D01*
X025397Y016418D02*
X025752Y016418D01*
X025771Y016319D02*
X025495Y016319D01*
X025594Y016221D02*
X025786Y016221D01*
X025794Y016122D02*
X025692Y016122D01*
X025747Y016023D02*
X025798Y016023D01*
X025798Y015925D02*
X025747Y015925D01*
X025747Y015826D02*
X025798Y015826D01*
X025798Y015728D02*
X025747Y015728D01*
X025747Y015629D02*
X025798Y015629D01*
X025798Y015531D02*
X025747Y015531D01*
X025747Y015432D02*
X025798Y015432D01*
X025798Y015334D02*
X025747Y015334D01*
X025747Y015235D02*
X025798Y015235D01*
X025798Y015137D02*
X025747Y015137D01*
X025798Y015057D02*
X025798Y015057D01*
X025799Y015038D02*
X025747Y015038D01*
X025747Y014939D02*
X025809Y014939D01*
X025819Y014841D02*
X025747Y014841D01*
X025747Y014742D02*
X025829Y014742D01*
X025843Y014644D02*
X025747Y014644D01*
X025747Y014545D02*
X025860Y014545D01*
X025885Y014447D02*
X025747Y014447D01*
X025747Y014348D02*
X025910Y014348D01*
X025934Y014250D02*
X025747Y014250D01*
X025747Y014151D02*
X025959Y014151D01*
X025947Y014201D02*
X025947Y014201D01*
X025984Y014053D02*
X025747Y014053D01*
X025747Y013954D02*
X026014Y013954D01*
X026048Y013856D02*
X025747Y013856D01*
X025747Y013757D02*
X026086Y013757D01*
X026095Y013734D02*
X026096Y013734D01*
X026125Y013658D02*
X025747Y013658D01*
X025747Y013560D02*
X026164Y013560D01*
X026202Y013461D02*
X025747Y013461D01*
X025747Y013363D02*
X026241Y013363D01*
X026279Y013264D02*
X025747Y013264D01*
X025747Y013166D02*
X026318Y013166D01*
X026329Y013136D02*
X026329Y013136D01*
X026366Y013067D02*
X025747Y013067D01*
X025747Y012969D02*
X026419Y012969D01*
X026451Y012908D02*
X026451Y012908D01*
X026477Y012870D02*
X025747Y012870D01*
X025747Y012772D02*
X026545Y012772D01*
X026614Y012673D02*
X025747Y012673D01*
X025761Y012574D02*
X026682Y012574D01*
X026750Y012476D02*
X025762Y012476D01*
X025760Y012377D02*
X026832Y012377D01*
X026755Y012469D02*
X026755Y012469D01*
X026916Y012279D02*
X025747Y012279D01*
X025747Y012180D02*
X026999Y012180D01*
X027046Y012125D02*
X027046Y012125D01*
X027082Y012082D02*
X025747Y012082D01*
X025747Y011983D02*
X027167Y011983D01*
X027159Y011991D02*
X027159Y011991D01*
X027260Y011887D02*
X027260Y011887D01*
X027262Y011885D02*
X025747Y011885D01*
X025747Y011786D02*
X027371Y011786D01*
X027390Y011769D02*
X027390Y011769D01*
X027479Y011688D02*
X025747Y011688D01*
X025747Y011589D02*
X027587Y011589D01*
X027696Y011490D02*
X025747Y011490D01*
X025747Y011392D02*
X027815Y011392D01*
X027932Y011293D02*
X025747Y011293D01*
X025747Y011195D02*
X028048Y011195D01*
X028164Y011096D02*
X025747Y011096D01*
X025747Y010998D02*
X028298Y010998D01*
X028434Y010899D02*
X025747Y010899D01*
X025747Y010801D02*
X028569Y010801D01*
X028686Y010702D02*
X025747Y010702D01*
X025747Y010604D02*
X028795Y010604D01*
X028905Y010505D02*
X025747Y010505D01*
X025808Y010406D02*
X029012Y010406D01*
X029110Y010308D02*
X025907Y010308D01*
X026005Y010209D02*
X029208Y010209D01*
X029287Y010111D02*
X027435Y010111D01*
X027413Y010114D02*
X027413Y010114D01*
X027351Y010120D02*
X027351Y010120D01*
X027247Y010111D02*
X026104Y010111D01*
X026202Y010012D02*
X027055Y010012D01*
X026986Y009914D02*
X026301Y009914D01*
X026399Y009815D02*
X026940Y009815D01*
X026939Y009717D02*
X026498Y009717D01*
X026596Y009618D02*
X026940Y009618D01*
X026940Y009520D02*
X026597Y009520D01*
X026597Y009421D02*
X026940Y009421D01*
X026940Y009323D02*
X026597Y009323D01*
X026597Y009224D02*
X026940Y009224D01*
X026940Y009125D02*
X026597Y009125D01*
X026597Y009027D02*
X026937Y009027D01*
X026927Y008928D02*
X026597Y008928D01*
X026597Y008830D02*
X026918Y008830D01*
X026908Y008731D02*
X026597Y008731D01*
X026597Y008633D02*
X026894Y008633D01*
X026875Y008534D02*
X026597Y008534D01*
X026597Y008436D02*
X026857Y008436D01*
X026838Y008337D02*
X026597Y008337D01*
X026597Y008239D02*
X026820Y008239D01*
X026798Y008140D02*
X026597Y008140D01*
X026551Y008041D02*
X026771Y008041D01*
X026738Y007943D02*
X026453Y007943D01*
X026354Y007844D02*
X026701Y007844D01*
X026664Y007746D02*
X026256Y007746D01*
X026157Y007647D02*
X026627Y007647D01*
X026590Y007549D02*
X026058Y007549D01*
X025960Y007450D02*
X026553Y007450D01*
X026516Y007352D02*
X025861Y007352D01*
X025797Y007253D02*
X026478Y007253D01*
X026433Y007155D02*
X025797Y007155D01*
X025797Y006859D02*
X026269Y006859D01*
X026213Y006760D02*
X025797Y006760D01*
X025797Y006662D02*
X026157Y006662D01*
X026101Y006563D02*
X025797Y006563D01*
X025797Y006465D02*
X026044Y006465D01*
X026066Y006504D02*
X026066Y006504D01*
X025987Y006366D02*
X025797Y006366D01*
X025797Y006268D02*
X025924Y006268D01*
X025860Y006169D02*
X025797Y006169D01*
X026331Y006966D02*
X026331Y006967D01*
X026382Y007056D01*
X023727Y006169D02*
X022883Y006169D01*
X022982Y006071D02*
X023727Y006071D01*
X023727Y005972D02*
X023080Y005972D01*
X023179Y005874D02*
X023727Y005874D01*
X023727Y005775D02*
X023277Y005775D01*
X023376Y005676D02*
X023727Y005676D01*
X023727Y005578D02*
X023474Y005578D01*
X023573Y005479D02*
X023727Y005479D01*
X023727Y005381D02*
X023672Y005381D01*
X023189Y004987D02*
X020547Y004987D01*
X020547Y005085D02*
X023090Y005085D01*
X022992Y005184D02*
X020547Y005184D01*
X020547Y005282D02*
X022893Y005282D01*
X022795Y005381D02*
X020547Y005381D01*
X020547Y005479D02*
X022696Y005479D01*
X022598Y005578D02*
X020547Y005578D01*
X020547Y005676D02*
X022499Y005676D01*
X022401Y005775D02*
X020547Y005775D01*
X020547Y005874D02*
X022302Y005874D01*
X022204Y005972D02*
X020547Y005972D01*
X020547Y006071D02*
X022105Y006071D01*
X022006Y006169D02*
X020547Y006169D01*
X020547Y006268D02*
X021908Y006268D01*
X021809Y006366D02*
X020547Y006366D01*
X020547Y006449D02*
X021527Y007429D01*
X021527Y006649D01*
X021708Y006467D01*
X023627Y004549D01*
X023627Y004508D01*
X023627Y004014D01*
X023527Y003914D01*
X023527Y003040D01*
X023650Y002917D01*
X024524Y002917D01*
X024587Y002980D01*
X024650Y002917D01*
X025524Y002917D01*
X025558Y002952D01*
X026285Y002477D02*
X022375Y002477D01*
X022320Y002477D01*
X022272Y002477D01*
X022219Y002478D01*
X022112Y002484D01*
X022059Y002490D01*
X022032Y002493D01*
X021877Y002513D01*
X021547Y002586D01*
X021215Y002697D01*
X021118Y002738D01*
X020895Y002800D01*
X020666Y002831D01*
X020654Y002831D01*
X020551Y002831D01*
X020453Y002831D01*
X020453Y002831D01*
X020447Y002831D01*
X020447Y002830D01*
X020258Y002808D01*
X020068Y002761D01*
X019976Y002727D01*
X019901Y002699D01*
X019667Y002621D01*
X019616Y002605D01*
X019513Y002577D01*
X019461Y002566D01*
X019437Y002561D01*
X019360Y002546D01*
X019360Y002546D01*
X019194Y002513D01*
X019063Y002494D01*
X019003Y002486D01*
X018882Y002478D01*
X018821Y002477D01*
X014746Y002477D01*
X014683Y002477D01*
X014643Y002477D01*
X014574Y002479D01*
X014437Y002493D01*
X014302Y002523D01*
X014263Y002535D01*
X014203Y002573D01*
X014047Y002695D01*
X013975Y002763D01*
X013949Y002790D01*
X013901Y002850D01*
X013880Y002881D01*
X013858Y002917D02*
X014524Y002917D01*
X014587Y002980D01*
X014650Y002917D01*
X015524Y002917D01*
X015587Y002980D01*
X015650Y002917D01*
X016524Y002917D01*
X016587Y002980D01*
X016650Y002917D01*
X017524Y002917D01*
X017647Y003040D01*
X017647Y003117D01*
X019327Y003117D01*
X019597Y003387D01*
X019597Y003599D01*
X020365Y004367D01*
X020547Y004549D01*
X020547Y006449D01*
X020562Y006465D02*
X021711Y006465D01*
X021612Y006563D02*
X020661Y006563D01*
X020759Y006662D02*
X021527Y006662D01*
X021527Y006760D02*
X020858Y006760D01*
X020956Y006859D02*
X021527Y006859D01*
X021527Y006957D02*
X021055Y006957D01*
X021154Y007056D02*
X021527Y007056D01*
X021527Y007155D02*
X021252Y007155D01*
X021351Y007253D02*
X021527Y007253D01*
X021527Y007352D02*
X021449Y007352D01*
X020277Y007506D02*
X020277Y007775D01*
X020195Y007742D01*
X020123Y007742D01*
X020123Y008220D01*
X020066Y008220D01*
X020066Y007742D01*
X019994Y007742D01*
X019897Y007782D01*
X019897Y007126D01*
X020277Y007506D01*
X020277Y007549D02*
X019897Y007549D01*
X019897Y007647D02*
X020277Y007647D01*
X020277Y007746D02*
X020206Y007746D01*
X020123Y007746D02*
X020066Y007746D01*
X019983Y007746D02*
X019897Y007746D01*
X020066Y007844D02*
X020123Y007844D01*
X020123Y007943D02*
X020066Y007943D01*
X020066Y008041D02*
X020123Y008041D01*
X020123Y008140D02*
X020066Y008140D01*
X020221Y007450D02*
X019897Y007450D01*
X019897Y007352D02*
X020123Y007352D01*
X020024Y007253D02*
X019897Y007253D01*
X019897Y007155D02*
X019925Y007155D01*
X018927Y006465D02*
X018841Y006465D01*
X018927Y006366D02*
X018698Y006366D01*
X018927Y006268D02*
X018460Y006268D01*
X018927Y005578D02*
X015627Y005578D01*
X015597Y005479D02*
X018927Y005479D01*
X018927Y005381D02*
X015498Y005381D01*
X015232Y005282D02*
X018903Y005282D01*
X018805Y005184D02*
X015008Y005184D01*
X014577Y007450D02*
X014565Y007450D01*
X014577Y007549D02*
X014526Y007549D01*
X014486Y007647D02*
X014577Y007647D01*
X014577Y007746D02*
X014447Y007746D01*
X014408Y007844D02*
X014577Y007844D01*
X014577Y007943D02*
X014368Y007943D01*
X014343Y008041D02*
X014577Y008041D01*
X014577Y008140D02*
X014324Y008140D01*
X014335Y008082D02*
X014335Y008082D01*
X014304Y008239D02*
X014577Y008239D01*
X014577Y008337D02*
X014284Y008337D01*
X014265Y008436D02*
X014577Y008436D01*
X014577Y008534D02*
X014245Y008534D01*
X014225Y008633D02*
X014591Y008633D01*
X014690Y008731D02*
X014205Y008731D01*
X014190Y008810D02*
X014190Y008810D01*
X014186Y008830D02*
X014789Y008830D01*
X015881Y007549D02*
X016261Y007549D01*
X018137Y008140D02*
X018237Y008140D01*
X018237Y008239D02*
X018137Y008239D01*
X020437Y009815D02*
X020877Y009815D01*
X020877Y009717D02*
X020536Y009717D01*
X020634Y009618D02*
X020877Y009618D01*
X020877Y009520D02*
X020733Y009520D01*
X020877Y009914D02*
X020339Y009914D01*
X020240Y010012D02*
X020877Y010012D01*
X020877Y010111D02*
X020197Y010111D01*
X020197Y010209D02*
X020877Y010209D01*
X020877Y010308D02*
X020197Y010308D01*
X020197Y010406D02*
X020877Y010406D01*
X020877Y010505D02*
X020197Y010505D01*
X020197Y010604D02*
X020877Y010604D01*
X020877Y010702D02*
X020197Y010702D01*
X020197Y010801D02*
X020877Y010801D01*
X020877Y010899D02*
X020197Y010899D01*
X020197Y010998D02*
X020877Y010998D01*
X020877Y011096D02*
X020197Y011096D01*
X020197Y011195D02*
X020877Y011195D01*
X020877Y011293D02*
X020197Y011293D01*
X020197Y011392D02*
X020877Y011392D01*
X020877Y011490D02*
X020197Y011490D01*
X020197Y011589D02*
X020877Y011589D01*
X020877Y011688D02*
X020197Y011688D01*
X020197Y011786D02*
X020877Y011786D01*
X020877Y011885D02*
X020197Y011885D01*
X020197Y011983D02*
X020942Y011983D01*
X021040Y012082D02*
X020133Y012082D01*
X020034Y012180D02*
X021139Y012180D01*
X021238Y012279D02*
X019936Y012279D01*
X019837Y012377D02*
X021336Y012377D01*
X021435Y012476D02*
X019739Y012476D01*
X019640Y012574D02*
X021533Y012574D01*
X021616Y012673D02*
X019558Y012673D01*
X019514Y012772D02*
X021660Y012772D01*
X021758Y012870D02*
X019415Y012870D01*
X019398Y013067D02*
X021600Y013067D01*
X021577Y013166D02*
X019496Y013166D01*
X019550Y013264D02*
X021577Y013264D01*
X021577Y013363D02*
X019591Y013363D01*
X019597Y013461D02*
X021577Y013461D01*
X021577Y013560D02*
X019597Y013560D01*
X019564Y013658D02*
X021577Y013658D01*
X021577Y013757D02*
X019523Y013757D01*
X019430Y013856D02*
X021577Y013856D01*
X021666Y013954D02*
X019269Y013954D01*
X019383Y014877D02*
X019787Y014877D01*
X019787Y015427D01*
X019887Y015427D01*
X019887Y015527D01*
X020437Y015527D01*
X020437Y015931D01*
X020290Y016077D01*
X019887Y016077D01*
X019887Y015528D01*
X019787Y015528D01*
X019787Y016077D01*
X019383Y016077D01*
X019237Y015931D01*
X019237Y015928D01*
X018569Y016596D01*
X018519Y016716D01*
X018375Y016860D01*
X018188Y016937D01*
X017985Y016937D01*
X017798Y016860D01*
X017654Y016716D01*
X017577Y016529D01*
X017577Y016326D01*
X017654Y016139D01*
X017798Y015995D01*
X017918Y015945D01*
X018277Y015587D01*
X018277Y015366D01*
X018362Y015160D01*
X018519Y015003D01*
X018725Y014917D01*
X018948Y014917D01*
X019154Y015003D01*
X019237Y015085D01*
X019237Y015024D01*
X019383Y014877D01*
X019321Y014939D02*
X019001Y014939D01*
X019189Y015038D02*
X019237Y015038D01*
X019787Y015038D02*
X019887Y015038D01*
X019887Y014939D02*
X019787Y014939D01*
X019887Y014877D02*
X020290Y014877D01*
X020437Y015024D01*
X020437Y015427D01*
X019887Y015427D01*
X019887Y014877D01*
X019887Y015137D02*
X019787Y015137D01*
X019787Y015235D02*
X019887Y015235D01*
X019887Y015334D02*
X019787Y015334D01*
X019887Y015432D02*
X021536Y015432D01*
X021536Y015427D02*
X020987Y015427D01*
X020987Y015024D01*
X021133Y014877D01*
X021537Y014877D01*
X021537Y015427D01*
X021637Y015427D01*
X021637Y014877D01*
X022040Y014877D01*
X022187Y015024D01*
X022187Y015085D01*
X022269Y015003D01*
X022475Y014917D01*
X022698Y014917D01*
X022904Y015003D01*
X023061Y015160D01*
X023147Y015366D01*
X023147Y015587D01*
X023505Y015945D01*
X023625Y015995D01*
X023769Y016139D01*
X023847Y016326D01*
X023847Y016529D01*
X023769Y016716D01*
X023625Y016860D01*
X023438Y016937D01*
X023235Y016937D01*
X023048Y016860D01*
X022904Y016716D01*
X022854Y016596D01*
X022187Y015928D01*
X022187Y015931D01*
X022040Y016077D01*
X021637Y016077D01*
X021637Y015528D01*
X021537Y015528D01*
X021537Y016077D01*
X021133Y016077D01*
X020987Y015931D01*
X020987Y015527D01*
X021536Y015527D01*
X021536Y015427D01*
X021537Y015334D02*
X021637Y015334D01*
X021637Y015235D02*
X021537Y015235D01*
X021537Y015137D02*
X021637Y015137D01*
X021637Y015038D02*
X021537Y015038D01*
X021537Y014939D02*
X021637Y014939D01*
X022102Y014939D02*
X022422Y014939D01*
X022234Y015038D02*
X022187Y015038D01*
X022751Y014939D02*
X024827Y014939D01*
X024827Y015038D02*
X022939Y015038D01*
X023038Y015137D02*
X024827Y015137D01*
X024827Y015235D02*
X023092Y015235D01*
X023133Y015334D02*
X024827Y015334D01*
X024827Y015432D02*
X023147Y015432D01*
X023147Y015531D02*
X024827Y015531D01*
X024827Y015629D02*
X023189Y015629D01*
X023288Y015728D02*
X024786Y015728D01*
X024687Y015826D02*
X023386Y015826D01*
X023485Y015925D02*
X024589Y015925D01*
X024490Y016023D02*
X023654Y016023D01*
X023752Y016122D02*
X024391Y016122D01*
X024293Y016221D02*
X023803Y016221D01*
X023844Y016319D02*
X024194Y016319D01*
X024096Y016418D02*
X023847Y016418D01*
X023847Y016516D02*
X023997Y016516D01*
X023899Y016615D02*
X023811Y016615D01*
X023800Y016713D02*
X023770Y016713D01*
X023702Y016812D02*
X023673Y016812D01*
X023603Y016910D02*
X023503Y016910D01*
X023505Y017009D02*
X017719Y017009D01*
X017620Y016910D02*
X017920Y016910D01*
X017750Y016812D02*
X017547Y016812D01*
X017547Y016713D02*
X017653Y016713D01*
X017612Y016615D02*
X017547Y016615D01*
X017547Y016516D02*
X017577Y016516D01*
X017577Y016418D02*
X017547Y016418D01*
X017547Y016319D02*
X017579Y016319D01*
X017547Y016221D02*
X017620Y016221D01*
X017671Y016122D02*
X017547Y016122D01*
X017547Y016023D02*
X017769Y016023D01*
X017939Y015925D02*
X017547Y015925D01*
X017547Y015826D02*
X018037Y015826D01*
X018136Y015728D02*
X017547Y015728D01*
X017547Y015629D02*
X018234Y015629D01*
X018277Y015531D02*
X017547Y015531D01*
X017547Y015432D02*
X018277Y015432D01*
X018290Y015334D02*
X017547Y015334D01*
X017547Y015235D02*
X018331Y015235D01*
X018385Y015137D02*
X017547Y015137D01*
X017547Y015038D02*
X018484Y015038D01*
X018672Y014939D02*
X017547Y014939D01*
X019042Y016122D02*
X022381Y016122D01*
X022479Y016221D02*
X018944Y016221D01*
X018845Y016319D02*
X022578Y016319D01*
X022676Y016418D02*
X018747Y016418D01*
X018648Y016516D02*
X022775Y016516D01*
X022862Y016615D02*
X018561Y016615D01*
X018520Y016713D02*
X022903Y016713D01*
X023000Y016812D02*
X018423Y016812D01*
X018253Y016910D02*
X023170Y016910D01*
X022282Y016023D02*
X022094Y016023D01*
X021637Y016023D02*
X021537Y016023D01*
X021537Y015925D02*
X021637Y015925D01*
X021637Y015826D02*
X021537Y015826D01*
X021537Y015728D02*
X021637Y015728D01*
X021637Y015629D02*
X021537Y015629D01*
X021537Y015531D02*
X021637Y015531D01*
X020987Y015531D02*
X020437Y015531D01*
X020437Y015629D02*
X020987Y015629D01*
X020987Y015728D02*
X020437Y015728D01*
X020437Y015826D02*
X020987Y015826D01*
X020987Y015925D02*
X020437Y015925D01*
X020344Y016023D02*
X021079Y016023D01*
X020987Y015334D02*
X020437Y015334D01*
X020437Y015235D02*
X020987Y015235D01*
X020987Y015137D02*
X020437Y015137D01*
X020437Y015038D02*
X020987Y015038D01*
X021071Y014939D02*
X020352Y014939D01*
X019887Y015531D02*
X019787Y015531D01*
X019787Y015629D02*
X019887Y015629D01*
X019887Y015728D02*
X019787Y015728D01*
X019787Y015826D02*
X019887Y015826D01*
X019887Y015925D02*
X019787Y015925D01*
X019787Y016023D02*
X019887Y016023D01*
X019329Y016023D02*
X019141Y016023D01*
X016053Y018093D02*
X025096Y018093D01*
X025033Y018191D02*
X016111Y018191D01*
X016168Y018290D02*
X024969Y018290D01*
X025006Y018233D02*
X025006Y018233D01*
X024903Y018389D02*
X016226Y018389D01*
X016193Y018332D02*
X016193Y018332D01*
X016286Y018487D02*
X024826Y018487D01*
X024740Y018586D02*
X016354Y018586D01*
X016428Y018684D02*
X024647Y018684D01*
X024688Y018641D02*
X024688Y018641D01*
X024555Y018783D02*
X016502Y018783D01*
X016581Y018881D02*
X024463Y018881D01*
X024447Y018898D02*
X024447Y018898D01*
X024370Y018980D02*
X016672Y018980D01*
X016777Y019078D02*
X024268Y019078D01*
X024259Y019087D02*
X024259Y019087D01*
X024152Y019177D02*
X016890Y019177D01*
X017004Y019275D02*
X024032Y019275D01*
X024137Y019189D02*
X024137Y019189D01*
X023913Y019374D02*
X017118Y019374D01*
X017032Y019299D02*
X017032Y019299D01*
X017246Y019472D02*
X023794Y019472D01*
X023674Y019571D02*
X017388Y019571D01*
X017350Y019545D02*
X017350Y019545D01*
X017532Y019670D02*
X023555Y019670D01*
X023422Y019768D02*
X017676Y019768D01*
X017820Y019867D02*
X023263Y019867D01*
X023197Y019903D02*
X023197Y019903D01*
X023086Y019965D02*
X017986Y019965D01*
X018183Y020064D02*
X022909Y020064D01*
X022730Y020162D02*
X018380Y020162D01*
X018580Y020261D02*
X022524Y020261D01*
X022351Y020359D02*
X018854Y020359D01*
X018916Y020389D02*
X018916Y020389D01*
X019034Y020458D02*
X022130Y020458D01*
X022050Y020503D02*
X022050Y020503D01*
X021981Y020556D02*
X019170Y020556D01*
X019234Y020609D02*
X019234Y020609D01*
X019234Y020609D01*
X019277Y020655D02*
X021867Y020655D01*
X021904Y020617D02*
X021904Y020617D01*
X021777Y020751D02*
X021777Y020751D01*
X021775Y020754D02*
X019367Y020754D01*
X019365Y020752D02*
X019365Y020752D01*
X019433Y020852D02*
X021707Y020852D01*
X021648Y020951D02*
X019492Y020951D01*
X019539Y021049D02*
X021600Y021049D01*
X021590Y021070D02*
X021534Y021246D01*
X019558Y021087D02*
X019558Y021087D01*
X022507Y013954D02*
X023147Y013954D01*
X021698Y012969D02*
X019233Y012969D01*
X018662Y012180D02*
X018650Y012180D01*
X018609Y012082D02*
X018761Y012082D01*
X018930Y011983D02*
X018520Y011983D01*
X017889Y011885D02*
X017597Y011885D01*
X017597Y011983D02*
X017753Y011983D01*
X017664Y012082D02*
X017597Y012082D01*
X017607Y012180D02*
X017623Y012180D01*
X017907Y011195D02*
X017967Y011195D01*
X017967Y011096D02*
X017907Y011096D01*
X017907Y010998D02*
X017967Y010998D01*
X017967Y010899D02*
X017907Y010899D01*
X018447Y010702D02*
X018628Y010702D01*
X018587Y010604D02*
X018447Y010604D01*
X018447Y010505D02*
X018577Y010505D01*
X018577Y010406D02*
X018439Y010406D01*
X016168Y010209D02*
X011861Y010209D01*
X020547Y004888D02*
X023288Y004888D01*
X023386Y004790D02*
X020547Y004790D01*
X020547Y004691D02*
X023485Y004691D01*
X023583Y004592D02*
X020547Y004592D01*
X020491Y004494D02*
X023627Y004494D01*
X023627Y004395D02*
X020393Y004395D01*
X020294Y004297D02*
X023627Y004297D01*
X023627Y004198D02*
X020196Y004198D01*
X020097Y004100D02*
X023627Y004100D01*
X023613Y004001D02*
X019999Y004001D01*
X019900Y003903D02*
X023527Y003903D01*
X023527Y003804D02*
X019802Y003804D01*
X019703Y003706D02*
X023527Y003706D01*
X023527Y003607D02*
X019605Y003607D01*
X019597Y003508D02*
X023527Y003508D01*
X023527Y003410D02*
X019597Y003410D01*
X019521Y003311D02*
X023527Y003311D01*
X023527Y003213D02*
X019423Y003213D01*
X019958Y002720D02*
X014020Y002720D01*
X013926Y002819D02*
X020350Y002819D01*
X020258Y002808D02*
X020258Y002808D01*
X020068Y002761D02*
X020068Y002761D01*
X019670Y002622D02*
X014141Y002622D01*
X014301Y002523D02*
X019246Y002523D01*
X020666Y002831D02*
X020666Y002831D01*
X020757Y002819D02*
X027131Y002819D01*
X027159Y002852D02*
X027051Y002721D01*
X026993Y002660D01*
X026977Y002645D01*
X026943Y002620D01*
X026924Y002610D01*
X026858Y002579D01*
X026719Y002532D01*
X026648Y002515D01*
X026623Y002510D01*
X026539Y002496D01*
X026370Y002479D01*
X026285Y002477D01*
X026681Y002523D02*
X021831Y002523D01*
X021441Y002622D02*
X026945Y002622D01*
X027051Y002720D02*
X021160Y002720D01*
X021118Y002738D02*
X021118Y002738D01*
X020895Y002800D02*
X020895Y002800D01*
X023527Y003114D02*
X017647Y003114D01*
X017622Y003016D02*
X023551Y003016D01*
X027159Y002852D02*
X027205Y002917D01*
X029226Y009224D02*
X029811Y009224D01*
X029811Y009323D02*
X029029Y009323D01*
X028832Y009421D02*
X029798Y009421D01*
X029754Y009520D02*
X028647Y009520D01*
X028470Y009618D02*
X029682Y009618D01*
X029603Y009717D02*
X028290Y009717D01*
X028110Y009815D02*
X029524Y009815D01*
X029445Y009914D02*
X027929Y009914D01*
X027728Y010012D02*
X029366Y010012D01*
X027651Y010053D02*
X027651Y010053D01*
X027244Y010111D02*
X027243Y010111D01*
X024377Y010111D02*
X024141Y010111D01*
X024228Y010209D02*
X024377Y010209D01*
X024377Y010308D02*
X024268Y010308D01*
X024297Y010406D02*
X024377Y010406D01*
X024377Y010505D02*
X024297Y010505D01*
X024286Y010604D02*
X024377Y010604D01*
X024377Y010702D02*
X024246Y010702D01*
X024185Y010801D02*
X024377Y010801D01*
X024377Y010899D02*
X024086Y010899D01*
X023996Y010012D02*
X024377Y010012D01*
X023577Y010012D02*
X023196Y010012D01*
X022777Y010012D02*
X022399Y010012D01*
X022498Y010111D02*
X022632Y010111D01*
D21*
X022987Y010477D02*
X023787Y010477D01*
X023487Y009477D02*
X024637Y009477D01*
X025287Y009677D02*
X025487Y009477D01*
X026087Y009477D01*
X025487Y010077D01*
X025487Y009477D01*
X025287Y009677D02*
X025287Y010277D01*
X025487Y010077D01*
X025287Y010277D02*
X025287Y012477D01*
X025287Y015877D01*
X023637Y017527D01*
X017587Y017527D01*
X017087Y017027D01*
X017087Y014427D01*
X018087Y014427D01*
X017087Y014427D02*
X017087Y012377D01*
X017137Y012377D01*
X017137Y010777D01*
X017137Y010527D01*
X015687Y009077D01*
X015037Y008427D01*
X015037Y006985D01*
X015183Y006631D02*
X015637Y006177D01*
X015687Y006177D01*
X015183Y006631D02*
X015154Y006664D01*
X015127Y006698D01*
X015104Y006735D01*
X015084Y006774D01*
X015067Y006814D01*
X015054Y006856D01*
X015045Y006898D01*
X015039Y006941D01*
X015037Y006985D01*
X015687Y007077D02*
X016687Y007077D01*
X017937Y007527D02*
X018187Y007277D01*
X017937Y007527D02*
X017937Y010777D01*
X017937Y012177D01*
X018137Y012377D01*
X018137Y013477D01*
X019837Y015177D01*
X019837Y015477D01*
X021587Y015477D01*
X022587Y015477D02*
X022587Y015677D01*
X023337Y016427D01*
X018837Y015677D02*
X018087Y016427D01*
X018837Y015677D02*
X018837Y015477D01*
X022087Y013477D02*
X022137Y013427D01*
X023787Y013427D01*
X022987Y012477D02*
X022087Y012477D01*
X021337Y011727D01*
X021637Y011027D02*
X022087Y011477D01*
X019737Y011827D02*
X019087Y012477D01*
X019087Y011477D02*
X019437Y011127D01*
X019087Y010477D02*
X019087Y009477D01*
X024637Y006534D02*
X024637Y005277D01*
X026087Y003827D01*
X026087Y003477D01*
X026087Y003427D02*
X026087Y002877D01*
X027087Y003477D02*
X027087Y003677D01*
X025337Y005427D01*
X025337Y007477D01*
X026137Y008277D01*
X026137Y009427D01*
X026087Y009477D01*
X024087Y004317D02*
X024087Y003477D01*
X025087Y003477D02*
X025087Y003937D01*
X019137Y003577D02*
X017087Y003577D01*
X017087Y003477D01*
X016387Y004027D02*
X016087Y003727D01*
X016087Y003477D01*
X015687Y004327D02*
X015087Y003727D01*
X015087Y003477D01*
X014087Y003477D02*
X014087Y003727D01*
X014987Y004627D01*
D22*
X015887Y012477D03*
X025287Y012477D03*
X021337Y020477D03*
X019837Y020477D03*
D23*
X019887Y011827D02*
X019737Y011827D01*
X019637Y011717D02*
X019887Y011467D01*
X019887Y011827D01*
X019887Y011467D02*
X019887Y009927D01*
X020587Y009227D01*
X020587Y007377D01*
X019937Y006727D01*
X019937Y004877D01*
X019237Y004177D01*
X016747Y004177D01*
X016547Y003977D01*
X016387Y004027D02*
X016387Y004177D01*
X016747Y004177D01*
X016047Y004477D02*
X015847Y004277D01*
X015687Y004327D02*
X015687Y004477D01*
X016047Y004477D01*
X019037Y004477D01*
X019587Y005027D01*
X019587Y010767D01*
X019387Y010967D01*
X019437Y011127D02*
X019587Y011127D01*
X019587Y010767D01*
X021187Y011367D02*
X021437Y011617D01*
X021337Y011727D02*
X021187Y011727D01*
X021187Y011367D01*
X021187Y009627D01*
X021537Y009277D01*
X021537Y007877D01*
X020237Y006577D01*
X020237Y004677D01*
X019137Y003577D01*
X018837Y004777D02*
X015347Y004777D01*
X015147Y004577D01*
X014987Y004627D02*
X014987Y004777D01*
X015347Y004777D01*
X018837Y004777D02*
X019237Y005177D01*
X019237Y009117D01*
X019037Y009317D01*
X019087Y009477D02*
X019237Y009477D01*
X019237Y009117D01*
X021487Y009827D02*
X021837Y009477D01*
X021837Y006777D01*
X023937Y004677D01*
X023937Y004377D01*
X024087Y004317D02*
X024087Y004527D01*
X023937Y004677D01*
X021487Y009827D02*
X021487Y010667D01*
X021787Y010967D01*
X021637Y011027D02*
X021487Y011027D01*
X021487Y010667D01*
D24*
X024637Y009477D02*
X024737Y009477D01*
X024737Y012477D01*
X023787Y013427D01*
X024737Y009477D02*
X024737Y008427D01*
X024087Y007777D01*
X024087Y005077D01*
X024987Y004177D01*
X024987Y004037D01*
X025087Y004077D02*
X024987Y004177D01*
X025087Y004077D02*
X025087Y003937D01*
M02*
