G75*
G70*
%OFA0B0*%
%FSLAX24Y24*%
%IPPOS*%
%LPD*%
%AMOC8*
5,1,8,0,0,1.08239X$1,22.5*
%
%ADD10C,0.0600*%
%ADD11C,0.0700*%
%ADD12R,0.0700X0.0700*%
%ADD13C,0.0850*%
%ADD14R,0.0600X0.0600*%
%ADD15R,0.0520X0.0520*%
%ADD16C,0.0520*%
%ADD17C,0.0515*%
%ADD18C,0.1575*%
%ADD19R,0.0200X0.0300*%
%ADD20R,0.0400X0.0400*%
%ADD21C,0.0100*%
%ADD22C,0.0500*%
%ADD23C,0.0400*%
%ADD24C,0.0396*%
%ADD25C,0.0200*%
%ADD26C,0.0600*%
D10*
X010679Y005822D03*
X012679Y005822D03*
X012679Y007422D03*
X012679Y008122D03*
X010679Y008122D03*
X010679Y007422D03*
X010179Y009772D03*
X010037Y011464D03*
X008622Y012879D03*
X012779Y012822D03*
X012779Y011822D03*
X013179Y010772D03*
X015079Y009822D03*
X016079Y009822D03*
X017079Y009822D03*
X017329Y008072D03*
X015329Y008072D03*
X015079Y012822D03*
X014079Y012822D03*
X016079Y012822D03*
X017079Y012822D03*
D11*
X015829Y006322D03*
X007929Y012472D03*
D12*
X006929Y012472D03*
X016829Y006322D03*
X018579Y006822D03*
X018579Y007822D03*
X018579Y008822D03*
X018579Y009822D03*
X018579Y010822D03*
X018579Y011822D03*
X018579Y012822D03*
X018579Y005822D03*
D13*
X014079Y005922D03*
X014079Y008922D03*
D14*
X014079Y009822D03*
X013179Y009772D03*
X010179Y010772D03*
D15*
X011179Y011922D03*
D16*
X011179Y012722D03*
D17*
X008939Y009014D03*
X008151Y009014D03*
X008151Y008029D03*
X008939Y008029D03*
D18*
X007179Y006122D03*
X007179Y010922D03*
D19*
X015179Y008922D03*
X015479Y008922D03*
D20*
X014079Y010972D03*
X014079Y011672D03*
X015079Y012222D03*
X015779Y012222D03*
X016379Y012222D03*
X017079Y012222D03*
D21*
X008217Y005915D02*
X008079Y005582D01*
X010227Y005582D01*
X010169Y005720D01*
X010169Y005923D01*
X010247Y006110D01*
X007230Y006110D01*
X007230Y006072D02*
X007230Y006171D01*
X008217Y006171D01*
X008217Y006328D01*
X008059Y006709D01*
X007767Y007001D01*
X007386Y007159D01*
X007229Y007159D01*
X007229Y006172D01*
X007129Y006172D01*
X007129Y007159D01*
X006973Y007159D01*
X006592Y007001D01*
X006589Y006999D01*
X006589Y010044D01*
X006592Y010042D01*
X006973Y009884D01*
X007129Y009884D01*
X007129Y010871D01*
X007229Y010871D01*
X007229Y009884D01*
X007386Y009884D01*
X007767Y010042D01*
X008059Y010334D01*
X008217Y010715D01*
X008217Y010872D01*
X007230Y010872D01*
X007230Y010971D01*
X008217Y010971D01*
X008217Y011128D01*
X008059Y011509D01*
X007767Y011801D01*
X007446Y011934D01*
X007529Y012018D01*
X007529Y012080D01*
X007612Y011997D01*
X007818Y011912D01*
X008041Y011912D01*
X008247Y011997D01*
X008404Y012154D01*
X008489Y012360D01*
X008489Y012382D01*
X008521Y012369D01*
X008724Y012369D01*
X008911Y012446D01*
X009055Y012590D01*
X009132Y012777D01*
X009132Y012980D01*
X009099Y013062D01*
X010855Y013062D01*
X010781Y012988D01*
X010709Y012815D01*
X010709Y012628D01*
X010781Y012455D01*
X010810Y012426D01*
X010669Y012285D01*
X010669Y011952D01*
X011149Y011952D01*
X011149Y011891D01*
X011209Y011891D01*
X011209Y011412D01*
X011543Y011412D01*
X011689Y011558D01*
X011689Y011891D01*
X011210Y011891D01*
X011210Y011952D01*
X011689Y011952D01*
X011689Y012285D01*
X011549Y012426D01*
X011578Y012455D01*
X011649Y012628D01*
X011649Y012815D01*
X011578Y012988D01*
X011504Y013062D01*
X012327Y013062D01*
X012269Y012923D01*
X012269Y012720D01*
X012347Y012533D01*
X012491Y012389D01*
X012602Y012343D01*
X012468Y012288D01*
X012313Y012133D01*
X012229Y011931D01*
X012229Y011857D01*
X012744Y011857D01*
X012744Y011786D01*
X012814Y011786D01*
X012814Y011272D01*
X012889Y011272D01*
X013091Y011355D01*
X013246Y011510D01*
X013329Y011712D01*
X013329Y011786D01*
X012815Y011786D01*
X012815Y011857D01*
X013329Y011857D01*
X013329Y011931D01*
X013246Y012133D01*
X013091Y012288D01*
X012957Y012343D01*
X013068Y012389D01*
X013212Y012533D01*
X013289Y012720D01*
X013289Y012923D01*
X013232Y013062D01*
X013627Y013062D01*
X013569Y012923D01*
X013569Y012720D01*
X013647Y012533D01*
X013669Y012510D01*
X013669Y011991D01*
X013669Y011959D01*
X013669Y011385D01*
X013732Y011322D01*
X013669Y011259D01*
X013669Y011141D01*
X013669Y010921D01*
X013612Y011060D01*
X013468Y011204D01*
X013281Y011282D01*
X013078Y011282D01*
X012891Y011204D01*
X012747Y011060D01*
X012669Y010873D01*
X012669Y010670D01*
X012747Y010483D01*
X012891Y010339D01*
X013030Y010282D01*
X012792Y010282D01*
X012669Y010159D01*
X012669Y009385D01*
X012792Y009262D01*
X013533Y009262D01*
X013444Y009048D01*
X013444Y008795D01*
X013541Y008562D01*
X013720Y008383D01*
X013953Y008287D01*
X014206Y008287D01*
X014439Y008383D01*
X014517Y008462D01*
X014998Y008462D01*
X014897Y008360D01*
X014819Y008173D01*
X014819Y007970D01*
X014897Y007783D01*
X015041Y007639D01*
X015228Y007562D01*
X015431Y007562D01*
X015618Y007639D01*
X015762Y007783D01*
X015839Y007970D01*
X015839Y008173D01*
X015762Y008360D01*
X015661Y008462D01*
X015869Y008462D01*
X015869Y008162D01*
X015869Y007781D01*
X016419Y007231D01*
X016689Y006962D01*
X017639Y006962D01*
X017979Y006962D01*
X017979Y006871D01*
X018529Y006871D01*
X018529Y006772D01*
X017979Y006772D01*
X017979Y006368D01*
X018054Y006293D01*
X018019Y006259D01*
X018019Y006082D01*
X017429Y006082D01*
X017429Y006272D01*
X016880Y006272D01*
X016880Y006371D01*
X017429Y006371D01*
X017429Y006775D01*
X017283Y006922D01*
X016879Y006922D01*
X016879Y006372D01*
X016779Y006372D01*
X016779Y006922D01*
X016376Y006922D01*
X016229Y006775D01*
X016229Y006713D01*
X016147Y006796D01*
X015941Y006882D01*
X015718Y006882D01*
X015512Y006796D01*
X015355Y006639D01*
X015269Y006433D01*
X015269Y006411D01*
X013849Y007832D01*
X013510Y007832D01*
X013111Y007832D01*
X013112Y007833D01*
X013189Y008020D01*
X013189Y008223D01*
X013112Y008410D01*
X012968Y008554D01*
X012781Y008632D01*
X012578Y008632D01*
X012391Y008554D01*
X012247Y008410D01*
X012169Y008223D01*
X012169Y008020D01*
X012247Y007833D01*
X012308Y007772D01*
X012247Y007710D01*
X012169Y007523D01*
X012169Y007320D01*
X012247Y007133D01*
X012391Y006989D01*
X012578Y006912D01*
X012781Y006912D01*
X012968Y006989D01*
X012991Y007012D01*
X013510Y007012D01*
X013931Y006591D01*
X013697Y006494D01*
X013507Y006304D01*
X013404Y006056D01*
X013404Y005971D01*
X014029Y005971D01*
X014029Y005872D01*
X013404Y005872D01*
X013404Y005787D01*
X013490Y005582D01*
X013132Y005582D01*
X013189Y005720D01*
X013189Y005923D01*
X013112Y006110D01*
X013427Y006110D01*
X013404Y006011D02*
X013153Y006011D01*
X013189Y005913D02*
X014029Y005913D01*
X013434Y005716D02*
X013188Y005716D01*
X013189Y005814D02*
X013404Y005814D01*
X013475Y005617D02*
X013147Y005617D01*
X013112Y006110D02*
X012968Y006254D01*
X012781Y006332D01*
X012578Y006332D01*
X012391Y006254D01*
X012247Y006110D01*
X011112Y006110D01*
X010968Y006254D01*
X010781Y006332D01*
X010578Y006332D01*
X010391Y006254D01*
X010247Y006110D01*
X010206Y006011D02*
X008217Y006011D01*
X008217Y006072D02*
X008217Y005915D01*
X008216Y005913D02*
X010169Y005913D01*
X010169Y005814D02*
X008175Y005814D01*
X008134Y005716D02*
X010171Y005716D01*
X010212Y005617D02*
X008093Y005617D01*
X008217Y006072D02*
X007230Y006072D01*
X007229Y006208D02*
X007129Y006208D01*
X007129Y006307D02*
X007229Y006307D01*
X007229Y006406D02*
X007129Y006406D01*
X007129Y006504D02*
X007229Y006504D01*
X007229Y006603D02*
X007129Y006603D01*
X007129Y006701D02*
X007229Y006701D01*
X007229Y006800D02*
X007129Y006800D01*
X007129Y006898D02*
X007229Y006898D01*
X007229Y006997D02*
X007129Y006997D01*
X007129Y007095D02*
X007229Y007095D01*
X007539Y007095D02*
X010284Y007095D01*
X010247Y007133D02*
X010391Y006989D01*
X010578Y006912D01*
X010781Y006912D01*
X010968Y006989D01*
X011112Y007133D01*
X011189Y007320D01*
X011189Y007523D01*
X011112Y007710D01*
X011051Y007772D01*
X011112Y007833D01*
X011189Y008020D01*
X011189Y008223D01*
X011112Y008410D01*
X010968Y008554D01*
X010781Y008632D01*
X010578Y008632D01*
X010391Y008554D01*
X010247Y008410D01*
X010169Y008223D01*
X010169Y008020D01*
X010247Y007833D01*
X010308Y007772D01*
X010247Y007710D01*
X010169Y007523D01*
X010169Y007320D01*
X010247Y007133D01*
X010222Y007194D02*
X006589Y007194D01*
X006589Y007292D02*
X010181Y007292D01*
X010169Y007391D02*
X006589Y007391D01*
X006589Y007490D02*
X010169Y007490D01*
X010196Y007588D02*
X009094Y007588D01*
X009031Y007562D02*
X009203Y007633D01*
X009335Y007765D01*
X009392Y007903D01*
X010349Y008860D01*
X010589Y009101D01*
X010589Y009460D01*
X010612Y009483D01*
X010689Y009670D01*
X010689Y009873D01*
X010612Y010060D01*
X010468Y010204D01*
X010329Y010262D01*
X010566Y010262D01*
X010689Y010385D01*
X010689Y011159D01*
X010689Y011533D01*
X010469Y011753D01*
X010325Y011897D01*
X010248Y011974D01*
X010138Y011974D01*
X009935Y011974D01*
X009825Y011974D01*
X009748Y011897D01*
X009604Y011753D01*
X009527Y011676D01*
X009527Y011566D01*
X009527Y011363D01*
X009527Y011253D01*
X009604Y011176D01*
X009604Y011176D01*
X009669Y011110D01*
X009669Y010385D01*
X009792Y010262D01*
X010030Y010262D01*
X009891Y010204D01*
X009747Y010060D01*
X009669Y009873D01*
X009669Y009670D01*
X009747Y009483D01*
X009769Y009460D01*
X009082Y009460D01*
X009031Y009481D02*
X009203Y009410D01*
X009335Y009279D01*
X009406Y009107D01*
X009406Y009077D01*
X009769Y009440D01*
X009769Y009460D01*
X009715Y009559D02*
X006589Y009559D01*
X006589Y009657D02*
X009675Y009657D01*
X009669Y009756D02*
X006589Y009756D01*
X006589Y009855D02*
X009669Y009855D01*
X009703Y009953D02*
X007552Y009953D01*
X007777Y010052D02*
X009743Y010052D01*
X009837Y010150D02*
X007875Y010150D01*
X007974Y010249D02*
X009999Y010249D01*
X009707Y010347D02*
X008064Y010347D01*
X008105Y010446D02*
X009669Y010446D01*
X009669Y010544D02*
X008146Y010544D01*
X008187Y010643D02*
X009669Y010643D01*
X009669Y010741D02*
X008217Y010741D01*
X008217Y010840D02*
X009669Y010840D01*
X009669Y010939D02*
X007230Y010939D01*
X007229Y010840D02*
X007129Y010840D01*
X007129Y010741D02*
X007229Y010741D01*
X007229Y010643D02*
X007129Y010643D01*
X007129Y010544D02*
X007229Y010544D01*
X007229Y010446D02*
X007129Y010446D01*
X007129Y010347D02*
X007229Y010347D01*
X007229Y010249D02*
X007129Y010249D01*
X007129Y010150D02*
X007229Y010150D01*
X007229Y010052D02*
X007129Y010052D01*
X007129Y009953D02*
X007229Y009953D01*
X006807Y009953D02*
X006589Y009953D01*
X006589Y009460D02*
X008008Y009460D01*
X008058Y009481D02*
X007886Y009410D01*
X007755Y009279D01*
X007684Y009107D01*
X007684Y008921D01*
X007755Y008749D01*
X007886Y008617D01*
X008058Y008546D01*
X008244Y008546D01*
X008416Y008617D01*
X008545Y008746D01*
X008674Y008617D01*
X008845Y008546D01*
X008876Y008546D01*
X008812Y008483D01*
X008674Y008426D01*
X008573Y008325D01*
X008439Y008460D01*
X008252Y008537D01*
X008180Y008537D01*
X008180Y008058D01*
X008122Y008058D01*
X008122Y008001D01*
X007644Y008001D01*
X007644Y007928D01*
X007721Y007742D01*
X007864Y007599D01*
X008050Y007522D01*
X008122Y007522D01*
X008122Y008000D01*
X008180Y008000D01*
X008180Y007522D01*
X008252Y007522D01*
X008439Y007599D01*
X008573Y007734D01*
X008674Y007633D01*
X008845Y007562D01*
X009031Y007562D01*
X008782Y007588D02*
X008412Y007588D01*
X008526Y007687D02*
X008620Y007687D01*
X008180Y007687D02*
X008122Y007687D01*
X008122Y007785D02*
X008180Y007785D01*
X008180Y007884D02*
X008122Y007884D01*
X008122Y007982D02*
X008180Y007982D01*
X008122Y008058D02*
X007644Y008058D01*
X007644Y008130D01*
X007721Y008317D01*
X007864Y008460D01*
X008050Y008537D01*
X008122Y008537D01*
X008122Y008058D01*
X008122Y008081D02*
X008180Y008081D01*
X008180Y008179D02*
X008122Y008179D01*
X008122Y008278D02*
X008180Y008278D01*
X008180Y008376D02*
X008122Y008376D01*
X008122Y008475D02*
X008180Y008475D01*
X008310Y008574D02*
X008780Y008574D01*
X008793Y008475D02*
X008402Y008475D01*
X008522Y008376D02*
X008624Y008376D01*
X008619Y008672D02*
X008471Y008672D01*
X007992Y008574D02*
X006589Y008574D01*
X006589Y008672D02*
X007832Y008672D01*
X007746Y008771D02*
X006589Y008771D01*
X006589Y008869D02*
X007705Y008869D01*
X007684Y008968D02*
X006589Y008968D01*
X006589Y009066D02*
X007684Y009066D01*
X007708Y009165D02*
X006589Y009165D01*
X006589Y009263D02*
X007749Y009263D01*
X007838Y009362D02*
X006589Y009362D01*
X006589Y008475D02*
X007901Y008475D01*
X007780Y008376D02*
X006589Y008376D01*
X006589Y008278D02*
X007705Y008278D01*
X007664Y008179D02*
X006589Y008179D01*
X006589Y008081D02*
X007644Y008081D01*
X007644Y007982D02*
X006589Y007982D01*
X006589Y007884D02*
X007662Y007884D01*
X007703Y007785D02*
X006589Y007785D01*
X006589Y007687D02*
X007776Y007687D01*
X007891Y007588D02*
X006589Y007588D01*
X006589Y007095D02*
X006820Y007095D01*
X007771Y006997D02*
X010383Y006997D01*
X010976Y006997D02*
X012383Y006997D01*
X012284Y007095D02*
X011074Y007095D01*
X011137Y007194D02*
X012222Y007194D01*
X012181Y007292D02*
X011178Y007292D01*
X011189Y007391D02*
X012169Y007391D01*
X012169Y007490D02*
X011189Y007490D01*
X011162Y007588D02*
X012196Y007588D01*
X012237Y007687D02*
X011122Y007687D01*
X011064Y007785D02*
X012295Y007785D01*
X012226Y007884D02*
X011133Y007884D01*
X011174Y007982D02*
X012185Y007982D01*
X012169Y008081D02*
X011189Y008081D01*
X011189Y008179D02*
X012169Y008179D01*
X012192Y008278D02*
X011167Y008278D01*
X011126Y008376D02*
X012233Y008376D01*
X012312Y008475D02*
X011047Y008475D01*
X010921Y008574D02*
X012438Y008574D01*
X012921Y008574D02*
X013536Y008574D01*
X013495Y008672D02*
X010161Y008672D01*
X010259Y008771D02*
X013455Y008771D01*
X013444Y008869D02*
X010358Y008869D01*
X010457Y008968D02*
X013444Y008968D01*
X013452Y009066D02*
X010555Y009066D01*
X010589Y009165D02*
X013493Y009165D01*
X012791Y009263D02*
X010589Y009263D01*
X010589Y009362D02*
X012692Y009362D01*
X012669Y009460D02*
X010589Y009460D01*
X010643Y009559D02*
X012669Y009559D01*
X012669Y009657D02*
X010684Y009657D01*
X010689Y009756D02*
X012669Y009756D01*
X012669Y009855D02*
X010689Y009855D01*
X010656Y009953D02*
X012669Y009953D01*
X012669Y010052D02*
X010615Y010052D01*
X010522Y010150D02*
X012669Y010150D01*
X012760Y010249D02*
X010360Y010249D01*
X010652Y010347D02*
X012882Y010347D01*
X012784Y010446D02*
X010689Y010446D01*
X010689Y010544D02*
X012721Y010544D01*
X012681Y010643D02*
X010689Y010643D01*
X010689Y010741D02*
X012669Y010741D01*
X012669Y010840D02*
X010689Y010840D01*
X010689Y010939D02*
X012697Y010939D01*
X012737Y011037D02*
X010689Y011037D01*
X010689Y011136D02*
X012822Y011136D01*
X012744Y011272D02*
X012744Y011786D01*
X012229Y011786D01*
X012229Y011712D01*
X012313Y011510D01*
X012468Y011355D01*
X012670Y011272D01*
X012744Y011272D01*
X012744Y011333D02*
X012814Y011333D01*
X012814Y011431D02*
X012744Y011431D01*
X012744Y011530D02*
X012814Y011530D01*
X012814Y011628D02*
X012744Y011628D01*
X012744Y011727D02*
X012814Y011727D01*
X012815Y011825D02*
X013669Y011825D01*
X013669Y011727D02*
X013329Y011727D01*
X013295Y011628D02*
X013669Y011628D01*
X013669Y011530D02*
X013254Y011530D01*
X013167Y011431D02*
X013669Y011431D01*
X013721Y011333D02*
X013036Y011333D01*
X012964Y011234D02*
X010689Y011234D01*
X010689Y011333D02*
X012522Y011333D01*
X012392Y011431D02*
X011563Y011431D01*
X011661Y011530D02*
X012305Y011530D01*
X012264Y011628D02*
X011689Y011628D01*
X011689Y011727D02*
X012229Y011727D01*
X012229Y011924D02*
X011210Y011924D01*
X011149Y011924D02*
X010298Y011924D01*
X010325Y011897D02*
X010325Y011897D01*
X010397Y011825D02*
X010669Y011825D01*
X010669Y011891D02*
X010669Y011558D01*
X010816Y011412D01*
X011149Y011412D01*
X011149Y011891D01*
X010669Y011891D01*
X010669Y012023D02*
X008272Y012023D01*
X008371Y012121D02*
X010669Y012121D01*
X010669Y012220D02*
X008431Y012220D01*
X008472Y012318D02*
X010703Y012318D01*
X010801Y012417D02*
X008840Y012417D01*
X008980Y012515D02*
X010756Y012515D01*
X010715Y012614D02*
X009065Y012614D01*
X009105Y012712D02*
X010709Y012712D01*
X010709Y012811D02*
X009132Y012811D01*
X009132Y012909D02*
X010749Y012909D01*
X010801Y013008D02*
X009121Y013008D01*
X009775Y011924D02*
X008071Y011924D01*
X007788Y011924D02*
X007470Y011924D01*
X007529Y012023D02*
X007586Y012023D01*
X007708Y011825D02*
X009676Y011825D01*
X009748Y011897D02*
X009748Y011897D01*
X009604Y011753D02*
X009604Y011753D01*
X009578Y011727D02*
X007841Y011727D01*
X007940Y011628D02*
X009527Y011628D01*
X009527Y011530D02*
X008038Y011530D01*
X008091Y011431D02*
X009527Y011431D01*
X009527Y011333D02*
X008132Y011333D01*
X008173Y011234D02*
X009546Y011234D01*
X009644Y011136D02*
X008214Y011136D01*
X008217Y011037D02*
X009669Y011037D01*
X010594Y011628D02*
X010669Y011628D01*
X010669Y011727D02*
X010495Y011727D01*
X010469Y011753D02*
X010469Y011753D01*
X010689Y011530D02*
X010698Y011530D01*
X010689Y011431D02*
X010796Y011431D01*
X011149Y011431D02*
X011209Y011431D01*
X011209Y011530D02*
X011149Y011530D01*
X011149Y011628D02*
X011209Y011628D01*
X011209Y011727D02*
X011149Y011727D01*
X011149Y011825D02*
X011209Y011825D01*
X011689Y011825D02*
X012744Y011825D01*
X012267Y012023D02*
X011689Y012023D01*
X011689Y012121D02*
X012308Y012121D01*
X012400Y012220D02*
X011689Y012220D01*
X011656Y012318D02*
X012541Y012318D01*
X012463Y012417D02*
X011558Y012417D01*
X011603Y012515D02*
X012365Y012515D01*
X012313Y012614D02*
X011643Y012614D01*
X011649Y012712D02*
X012273Y012712D01*
X012269Y012811D02*
X011649Y012811D01*
X011610Y012909D02*
X012269Y012909D01*
X012305Y013008D02*
X011558Y013008D01*
X013018Y012318D02*
X013669Y012318D01*
X013669Y012220D02*
X013159Y012220D01*
X013251Y012121D02*
X013669Y012121D01*
X013669Y012023D02*
X013291Y012023D01*
X013329Y011924D02*
X013669Y011924D01*
X013669Y012417D02*
X013096Y012417D01*
X013194Y012515D02*
X013665Y012515D01*
X013613Y012614D02*
X013245Y012614D01*
X013286Y012712D02*
X013573Y012712D01*
X013569Y012811D02*
X013289Y012811D01*
X013289Y012909D02*
X013569Y012909D01*
X013605Y013008D02*
X013254Y013008D01*
X014489Y011512D02*
X015608Y011512D01*
X015789Y011693D01*
X015908Y011812D01*
X016066Y011812D01*
X016092Y011812D01*
X016666Y011812D01*
X016729Y011875D01*
X016792Y011812D01*
X017366Y011812D01*
X017489Y011935D01*
X017489Y012509D01*
X017489Y012510D01*
X017512Y012533D01*
X017589Y012720D01*
X017589Y012923D01*
X017532Y013062D01*
X018019Y013062D01*
X018019Y012385D01*
X018082Y012322D01*
X018019Y012259D01*
X018019Y012091D01*
X017919Y011991D01*
X017469Y011541D01*
X017469Y011202D01*
X017469Y010209D01*
X017391Y010288D01*
X017189Y010372D01*
X017118Y010372D01*
X017118Y009860D01*
X017041Y009860D01*
X017041Y010372D01*
X016970Y010372D01*
X016768Y010288D01*
X016613Y010133D01*
X016558Y009999D01*
X016512Y010110D01*
X016368Y010254D01*
X016181Y010332D01*
X015978Y010332D01*
X015791Y010254D01*
X015647Y010110D01*
X015579Y009947D01*
X015512Y010110D01*
X015368Y010254D01*
X015181Y010332D01*
X014978Y010332D01*
X014791Y010254D01*
X014647Y010110D01*
X014589Y009971D01*
X014589Y010209D01*
X014489Y010309D01*
X014489Y011141D01*
X014489Y011259D01*
X014426Y011322D01*
X014489Y011385D01*
X014489Y011512D01*
X014489Y011431D02*
X017469Y011431D01*
X017469Y011333D02*
X014438Y011333D01*
X014489Y011234D02*
X017469Y011234D01*
X017469Y011136D02*
X014489Y011136D01*
X014489Y011037D02*
X017469Y011037D01*
X017469Y010939D02*
X014489Y010939D01*
X014489Y010840D02*
X017469Y010840D01*
X017469Y010741D02*
X014489Y010741D01*
X014489Y010643D02*
X017469Y010643D01*
X017469Y010544D02*
X014489Y010544D01*
X014489Y010446D02*
X017469Y010446D01*
X017469Y010347D02*
X017247Y010347D01*
X017118Y010347D02*
X017041Y010347D01*
X017041Y010249D02*
X017118Y010249D01*
X017118Y010150D02*
X017041Y010150D01*
X017041Y010052D02*
X017118Y010052D01*
X017118Y009953D02*
X017041Y009953D01*
X017041Y009783D02*
X017118Y009783D01*
X017118Y009272D01*
X017189Y009272D01*
X017391Y009355D01*
X017469Y009434D01*
X017469Y008791D01*
X017260Y008582D01*
X017228Y008582D01*
X017041Y008504D01*
X016897Y008360D01*
X016819Y008173D01*
X016819Y008132D01*
X016789Y008162D01*
X016789Y008912D01*
X016520Y009182D01*
X016329Y009373D01*
X016368Y009389D01*
X016512Y009533D01*
X016558Y009644D01*
X016613Y009510D01*
X016768Y009355D01*
X016970Y009272D01*
X017041Y009272D01*
X017041Y009783D01*
X017041Y009756D02*
X017118Y009756D01*
X017118Y009657D02*
X017041Y009657D01*
X017041Y009559D02*
X017118Y009559D01*
X017118Y009460D02*
X017041Y009460D01*
X017041Y009362D02*
X017118Y009362D01*
X017397Y009362D02*
X017469Y009362D01*
X017469Y009263D02*
X016438Y009263D01*
X016537Y009165D02*
X017469Y009165D01*
X017469Y009066D02*
X016635Y009066D01*
X016734Y008968D02*
X017469Y008968D01*
X017469Y008869D02*
X016789Y008869D01*
X016789Y008771D02*
X017449Y008771D01*
X017350Y008672D02*
X016789Y008672D01*
X016789Y008574D02*
X017209Y008574D01*
X017012Y008475D02*
X016789Y008475D01*
X016789Y008376D02*
X016913Y008376D01*
X016863Y008278D02*
X016789Y008278D01*
X016789Y008179D02*
X016822Y008179D01*
X016161Y007490D02*
X014191Y007490D01*
X014093Y007588D02*
X015164Y007588D01*
X014993Y007687D02*
X013994Y007687D01*
X013896Y007785D02*
X014896Y007785D01*
X014855Y007884D02*
X013133Y007884D01*
X013174Y007982D02*
X014819Y007982D01*
X014819Y008081D02*
X013189Y008081D01*
X013189Y008179D02*
X014822Y008179D01*
X014863Y008278D02*
X013167Y008278D01*
X013126Y008376D02*
X013736Y008376D01*
X013628Y008475D02*
X013047Y008475D01*
X014423Y008376D02*
X014913Y008376D01*
X015746Y008376D02*
X015869Y008376D01*
X015869Y008278D02*
X015796Y008278D01*
X015837Y008179D02*
X015869Y008179D01*
X015869Y008081D02*
X015839Y008081D01*
X015839Y007982D02*
X015869Y007982D01*
X015869Y007884D02*
X015804Y007884D01*
X015763Y007785D02*
X015869Y007785D01*
X015964Y007687D02*
X015666Y007687D01*
X015495Y007588D02*
X016062Y007588D01*
X016259Y007391D02*
X014290Y007391D01*
X014388Y007292D02*
X016358Y007292D01*
X016457Y007194D02*
X014487Y007194D01*
X014585Y007095D02*
X016555Y007095D01*
X016654Y006997D02*
X014684Y006997D01*
X014783Y006898D02*
X016353Y006898D01*
X016254Y006800D02*
X016138Y006800D01*
X015521Y006800D02*
X014881Y006800D01*
X014980Y006701D02*
X015417Y006701D01*
X015340Y006603D02*
X015078Y006603D01*
X015177Y006504D02*
X015299Y006504D01*
X013919Y006603D02*
X008103Y006603D01*
X008062Y006701D02*
X013820Y006701D01*
X013721Y006800D02*
X007968Y006800D01*
X007870Y006898D02*
X013623Y006898D01*
X013524Y006997D02*
X012976Y006997D01*
X012840Y006307D02*
X013510Y006307D01*
X013468Y006208D02*
X013014Y006208D01*
X012519Y006307D02*
X010840Y006307D01*
X011014Y006208D02*
X012345Y006208D01*
X012247Y006110D02*
X012169Y005923D01*
X012169Y005720D01*
X012227Y005582D01*
X011132Y005582D01*
X011189Y005720D01*
X011189Y005923D01*
X011112Y006110D01*
X011153Y006011D02*
X012206Y006011D01*
X012169Y005913D02*
X011189Y005913D01*
X011189Y005814D02*
X012169Y005814D01*
X012171Y005716D02*
X011188Y005716D01*
X011147Y005617D02*
X012212Y005617D01*
X013609Y006406D02*
X008185Y006406D01*
X008217Y006307D02*
X010519Y006307D01*
X010345Y006208D02*
X008217Y006208D01*
X008144Y006504D02*
X013722Y006504D01*
X016779Y006504D02*
X016879Y006504D01*
X016879Y006406D02*
X016779Y006406D01*
X016880Y006307D02*
X018040Y006307D01*
X018019Y006208D02*
X017429Y006208D01*
X017429Y006110D02*
X018019Y006110D01*
X017979Y006406D02*
X017429Y006406D01*
X017429Y006504D02*
X017979Y006504D01*
X017979Y006603D02*
X017429Y006603D01*
X017429Y006701D02*
X017979Y006701D01*
X017979Y006898D02*
X017306Y006898D01*
X017405Y006800D02*
X018529Y006800D01*
X016879Y006800D02*
X016779Y006800D01*
X016779Y006898D02*
X016879Y006898D01*
X016879Y006701D02*
X016779Y006701D01*
X016779Y006603D02*
X016879Y006603D01*
X016761Y009362D02*
X016340Y009362D01*
X016439Y009460D02*
X016663Y009460D01*
X016593Y009559D02*
X016523Y009559D01*
X016536Y010052D02*
X016579Y010052D01*
X016630Y010150D02*
X016472Y010150D01*
X016373Y010249D02*
X016729Y010249D01*
X016911Y010347D02*
X014489Y010347D01*
X014549Y010249D02*
X014785Y010249D01*
X014687Y010150D02*
X014589Y010150D01*
X014589Y010052D02*
X014623Y010052D01*
X015373Y010249D02*
X015785Y010249D01*
X015687Y010150D02*
X015472Y010150D01*
X015536Y010052D02*
X015623Y010052D01*
X015582Y009953D02*
X015577Y009953D01*
X017430Y010249D02*
X017469Y010249D01*
X017469Y011530D02*
X015626Y011530D01*
X015725Y011628D02*
X017556Y011628D01*
X017655Y011727D02*
X015823Y011727D01*
X016680Y011825D02*
X016779Y011825D01*
X017380Y011825D02*
X017754Y011825D01*
X017852Y011924D02*
X017479Y011924D01*
X017489Y012023D02*
X017951Y012023D01*
X018019Y012121D02*
X017489Y012121D01*
X017489Y012220D02*
X018019Y012220D01*
X018079Y012318D02*
X017489Y012318D01*
X017489Y012417D02*
X018019Y012417D01*
X018019Y012515D02*
X017494Y012515D01*
X017545Y012614D02*
X018019Y012614D01*
X018019Y012712D02*
X017586Y012712D01*
X017589Y012811D02*
X018019Y012811D01*
X018019Y012909D02*
X017589Y012909D01*
X017554Y013008D02*
X018019Y013008D01*
X013669Y011234D02*
X013395Y011234D01*
X013537Y011136D02*
X013669Y011136D01*
X013669Y011037D02*
X013621Y011037D01*
X013662Y010939D02*
X013669Y010939D01*
X010438Y008574D02*
X010062Y008574D01*
X009964Y008475D02*
X010312Y008475D01*
X010233Y008376D02*
X009865Y008376D01*
X009767Y008278D02*
X010192Y008278D01*
X010169Y008179D02*
X009668Y008179D01*
X009570Y008081D02*
X010169Y008081D01*
X010185Y007982D02*
X009471Y007982D01*
X009384Y007884D02*
X010226Y007884D01*
X010295Y007785D02*
X009343Y007785D01*
X009257Y007687D02*
X010237Y007687D01*
X009494Y009165D02*
X009382Y009165D01*
X009341Y009263D02*
X009593Y009263D01*
X009691Y009362D02*
X009251Y009362D01*
X009031Y009481D02*
X008845Y009481D01*
X008674Y009410D01*
X008545Y009281D01*
X008416Y009410D01*
X008244Y009481D01*
X008058Y009481D01*
X008294Y009460D02*
X008795Y009460D01*
X008626Y009362D02*
X008464Y009362D01*
X008180Y007588D02*
X008122Y007588D01*
D22*
X009429Y006622D02*
X008929Y006122D01*
X007279Y006122D01*
X009429Y006622D02*
X012879Y006622D01*
X013379Y006622D01*
X014079Y005922D01*
X014929Y007272D02*
X015979Y007272D01*
X016829Y006422D01*
X016829Y006322D01*
X016879Y007422D02*
X017829Y007422D01*
X018229Y007822D01*
X018579Y007822D01*
X016879Y007422D02*
X016329Y007972D01*
X016329Y008722D01*
X016129Y008922D01*
X015629Y008922D01*
X015029Y008922D02*
X014079Y008922D01*
X014079Y009822D01*
X011179Y011922D02*
X010779Y011922D01*
X010429Y012272D01*
X009479Y012272D01*
X008529Y011322D01*
X006929Y011322D01*
X006929Y012472D01*
D23*
X007929Y012472D02*
X008337Y012879D01*
X008622Y012879D01*
X010179Y009772D02*
X010179Y009270D01*
X008939Y008029D01*
X012679Y007422D02*
X013679Y007422D01*
X015429Y005672D01*
X018429Y005672D01*
X018579Y005822D01*
X017329Y008072D02*
X017879Y008622D01*
X017879Y011372D01*
X018329Y011822D01*
X018579Y011822D01*
X017079Y012222D02*
X017079Y012822D01*
X016379Y012222D02*
X015779Y012222D01*
X015079Y012222D02*
X015079Y012822D01*
X014079Y012822D02*
X014079Y011822D01*
X014079Y011672D01*
X014079Y010972D02*
X014079Y009822D01*
X015579Y008922D02*
X015629Y008922D01*
X017079Y008972D02*
X017079Y009822D01*
X017079Y010772D01*
D24*
X015129Y011322D03*
X012879Y006622D03*
D25*
X015029Y008922D02*
X015179Y008922D01*
X015479Y008922D02*
X015579Y008922D01*
X015479Y011822D02*
X014079Y011822D01*
X015479Y011822D02*
X015779Y012122D01*
X015779Y012222D01*
D26*
X010179Y011322D02*
X010179Y010772D01*
X010179Y011322D02*
X010037Y011464D01*
M02*
