%
M48
M72
T01C0.0236
T02C0.0315
T03C0.0320
T04C0.0340
T05C0.0354
T06C0.0400
T07C0.0430
T08C0.0500
T09C0.1024
%
T01
X128794Y66216
X151294Y113216
T02
X89385Y90137
X81511Y90137
X81511Y80294
X89385Y80294
T03
X111794Y119216
X111794Y127216
T04
X127794Y128216
X127794Y118216
X131794Y107716
X131794Y97716
X126794Y81216
X126794Y74216
X106794Y74216
X106794Y81216
X101794Y97716
X101794Y107716
X100365Y114644
X86223Y128787
X153294Y80716
X173294Y80716
X126794Y58216
X106794Y58216
T05
X140794Y98216
X150794Y98216
X160794Y98216
X170794Y98216
X170794Y128216
X160794Y128216
X150794Y128216
X140794Y128216
T06
X185794Y128216
X185794Y118216
X185794Y108216
X185794Y98216
X185794Y88216
X185794Y78216
X185794Y68216
X185794Y58216
T07
X168294Y63216
X158294Y63216
X79294Y124716
X69294Y124716
T08
X140794Y89216
X140794Y59216
T09
X71794Y61216
X71794Y109216
M30
