G75*
G70*
%OFA0B0*%
%FSLAX24Y24*%
%IPPOS*%
%LPD*%
%AMOC8*
5,1,8,0,0,1.08239X$1,22.5*
%
%ADD10C,0.0640*%
%ADD11C,0.0740*%
%ADD12R,0.0740X0.0740*%
%ADD13C,0.0890*%
%ADD14R,0.0640X0.0640*%
%ADD15R,0.0560X0.0560*%
%ADD16C,0.0560*%
%ADD17C,0.0555*%
%ADD18C,0.1615*%
%ADD19R,0.0240X0.0340*%
%ADD20R,0.0440X0.0440*%
D10*
X010679Y005822D03*
X012679Y005822D03*
X012679Y007422D03*
X012679Y008122D03*
X010679Y008122D03*
X010679Y007422D03*
X010179Y009772D03*
X010037Y011464D03*
X008622Y012879D03*
X012779Y012822D03*
X012779Y011822D03*
X013179Y010772D03*
X015079Y009822D03*
X016079Y009822D03*
X017079Y009822D03*
X017329Y008072D03*
X015329Y008072D03*
X015079Y012822D03*
X014079Y012822D03*
X016079Y012822D03*
X017079Y012822D03*
D11*
X015829Y006322D03*
X007929Y012472D03*
D12*
X006929Y012472D03*
X016829Y006322D03*
X018579Y006822D03*
X018579Y007822D03*
X018579Y008822D03*
X018579Y009822D03*
X018579Y010822D03*
X018579Y011822D03*
X018579Y012822D03*
X018579Y005822D03*
D13*
X014079Y005922D03*
X014079Y008922D03*
D14*
X014079Y009822D03*
X013179Y009772D03*
X010179Y010772D03*
D15*
X011179Y011922D03*
D16*
X011179Y012722D03*
D17*
X008939Y009014D03*
X008151Y009014D03*
X008151Y008029D03*
X008939Y008029D03*
D18*
X007179Y006122D03*
X007179Y010922D03*
D19*
X015179Y008922D03*
X015479Y008922D03*
D20*
X014079Y010972D03*
X014079Y011672D03*
X015079Y012222D03*
X015779Y012222D03*
X016379Y012222D03*
X017079Y012222D03*
M02*
